<?xml version="1.0" encoding="UTF-8"?>
<svg width="59px" height="59px" viewBox="0 0 59 59" version="1.1" xmlns="http://www.w3.org/2000/svg" xmlns:xlink="http://www.w3.org/1999/xlink">
    <!-- Generator: Sketch 49.1 (51147) - http://www.bohemiancoding.com/sketch -->
    <title>Group 3</title>
    <desc>Created with Sketch.</desc>
    <defs></defs>
    <g id="Page-1" stroke="none" stroke-width="1" fill="none" fill-rule="evenodd">
        <g id="Elite_Niveis-Copy-2" transform="translate(-946.000000, -356.000000)" fill-rule="nonzero">
            <g id="Group-5" transform="translate(926.000000, 335.000000)">
                <g id="Group-3" transform="translate(20.000000, 21.000000)">
                    <g id="afiliado_1">
                        <circle id="Oval" fill="#0D2559" cx="29.5110902" cy="29.4667293" r="29.4445489"></circle>
                        <path d="M13.5718388,48.7131007 C14.5551568,49.1188553 16.6089805,49.6253791 18.1953059,47.7249432 L13.8516917,30.7088346 L13.1419173,31.6182331 C13.1419173,31.6182331 17.6088534,45.0672806 18.2190592,47.6962635 C18.6165142,47.2126264 18.9839611,46.5761975 19.2969925,45.7471805 C20.9716165,41.3 21.0048872,30.6977444 21.0048872,30.6977444 C21.0048872,30.4870301 21.1712406,30.3206767 21.3819549,30.3206767 L36.8084586,30.3206767 C37.0191729,30.3206767 37.1855263,30.4870301 37.1855263,30.6977444 C37.1855263,30.6977444 38.6827068,41.643797 39.237218,44.7934211 C40.4285016,51.4481774 44.6344095,49.0875904 45.2502587,48.7018527 C45.9105736,48.1831725 46.5577688,47.5911144 47.2221805,46.956015 C47.4107143,46.7785714 47.5881579,46.5789474 47.7766917,46.3904135 C47.8654135,46.3016917 47.9652256,46.2018797 48.0539474,46.1020677 C48.1426692,46.0022556 48.231391,45.8913534 48.3201128,45.7915414 C48.5086466,45.5808271 48.6860902,45.3701128 48.8746241,45.1593985 C49.0520677,44.937594 49.2295113,44.7157895 49.4069549,44.4828947 C49.3847744,44.4718045 49.3847744,44.4718045 49.362594,44.4496241 C49.3736842,44.4607143 49.4734962,44.349812 49.6176692,44.1612782 C49.7618421,43.9727444 49.9503759,43.7065789 50.1610902,43.4071429 C50.5714286,42.8082707 51.0261278,42.0652256 51.3255639,41.5550752 C51.3588346,41.5772556 51.3588346,41.5772556 51.381015,41.5883459 C51.381015,41.5883459 51.4253759,41.5328947 51.4919173,41.4219925 C51.5584586,41.3221805 51.6582707,41.1669173 51.7580827,40.9672932 C51.9577068,40.5791353 52.2349624,40.068985 52.4678571,39.5255639 C52.4900376,39.5366541 52.4900376,39.5366541 52.5233083,39.5477444 C53.000188,38.4719925 53.3994361,37.3629699 53.7432331,36.2428571 L53.9761278,35.3889098 C54.0537594,35.1116541 54.1092105,34.8233083 54.1757519,34.5349624 C54.3088346,33.9582707 54.3864662,33.3704887 54.475188,32.793797 C54.5084586,32.8048872 54.5084586,32.8048872 54.5417293,32.8048872 C54.6082707,32.2171053 54.7302632,31.3520677 54.7746241,30.4648496 C54.8300752,29.5887218 54.8300752,28.7015038 54.7746241,28.1137218 L54.8411654,28.1137218 C54.8300752,28.1137218 54.8078947,28.1137218 54.7968045,27.9695489 C54.7968045,27.9030075 54.7857143,27.7921053 54.7746241,27.6257519 C54.7635338,27.4593985 54.7413534,27.237594 54.7191729,26.9492481 C54.6969925,26.7274436 54.6859023,26.5167293 54.6637218,26.3171053 C54.6415414,26.1174812 54.6082707,25.9289474 54.5860902,25.7404135 C54.5306391,25.3744361 54.4973684,25.0417293 54.4308271,24.7422932 C54.3753759,24.4428571 54.3199248,24.1766917 54.2755639,23.943797 C54.231203,23.699812 54.1757519,23.500188 54.131391,23.3227444 C54.0315789,22.9678571 53.987218,22.712782 53.9317669,22.5575188 C53.887406,22.3911654 53.8652256,22.3246241 53.8652256,22.3246241 C53.7432331,21.9031955 53.6101504,21.4263158 53.4327068,20.9272556 C53.343985,20.6721805 53.2663534,20.406015 53.1665414,20.1509398 C53.0667293,19.8847744 52.9558271,19.618609 52.856015,19.3524436 C52.756203,19.0862782 52.6231203,18.8201128 52.512218,18.5539474 C52.3902256,18.287782 52.2682331,18.0105263 52.1351504,17.7554511 C52.0020677,17.4892857 51.8800752,17.2342105 51.7469925,16.9791353 C51.6139098,16.7351504 51.4697368,16.4911654 51.3366541,16.2471805 C51.2701128,16.125188 51.2035714,16.0142857 51.1370301,15.8922932 C51.0704887,15.781391 50.9928571,15.6704887 50.9263158,15.5595865 C50.7821429,15.337782 50.6490602,15.1270677 50.5270677,14.9274436 C50.249812,14.5281955 50.0058271,14.1843985 49.806203,13.8849624 C49.5954887,13.5966165 49.4180451,13.3637218 49.2960526,13.2084586 C49.2406015,13.1197368 49.1962406,13.0642857 49.1629699,13.0199248 C49.1296992,12.9755639 49.118609,12.9533835 49.118609,12.9533835 C48.3533835,12.0550752 47.7656015,11.3896617 47.1445489,10.768609 C46.8340226,10.4580827 46.5234962,10.1364662 46.1575188,9.82593985 C45.9800752,9.67067669 45.7915414,9.50432331 45.5919173,9.33796992 C45.3922932,9.18270677 45.1704887,9.00526316 44.937594,8.82781955 C44.9597744,8.79454887 45.4588346,9.11616541 45.7139098,9.27142857 C45.9578947,9.43778195 46.0022556,9.38233083 45.0817669,8.62819549 C44.1612782,7.88515038 42.8859023,6.96466165 41.4774436,6.15507519 C40.0800752,5.3343985 38.5385338,4.62462406 37.1855263,4.14774436 C35.843609,3.65977444 34.712406,3.36033835 34.1357143,3.18289474 C33.5590226,3.00545113 33.5701128,2.96109023 34.4795113,3.11635338 C34.6347744,3.14962406 34.8787594,3.19398496 35.1892857,3.24943609 C35.3445489,3.28270677 35.5219925,3.31597744 35.7105263,3.34924812 C35.8990602,3.3825188 36.0986842,3.44906015 36.3093985,3.49342105 C36.531203,3.54887218 36.7530075,3.60432331 36.9859023,3.65977444 C37.218797,3.71522556 37.462782,3.80394737 37.7067669,3.87048872 C37.9507519,3.9481203 38.2058271,4.02575188 38.4609023,4.10338346 C38.7048872,4.19210526 38.9599624,4.28082707 39.2150376,4.36954887 C39.725188,4.53590226 40.2131579,4.76879699 40.6900376,4.95733083 C41.1558271,5.15695489 41.5994361,5.3787594 41.9986842,5.56729323 C42.7860902,5.97763158 43.3960526,6.29924812 43.662218,6.4656015 C43.9172932,6.64304511 44.3276316,6.86484962 44.7601504,7.15319549 C44.9819549,7.2862782 45.2148496,7.44154135 45.4477444,7.58571429 C45.6806391,7.74097744 45.9135338,7.8962406 46.1353383,8.05150376 C46.5900376,8.35093985 46.9892857,8.66146617 47.299812,8.87218045 C47.6103383,9.08289474 47.7988722,9.21597744 47.8210526,9.19379699 C48.0539474,9.40451128 48.2757519,9.62631579 48.4864662,9.82593985 C48.6971805,10.0366541 48.8746241,10.2362782 49.0409774,10.4026316 C49.2073308,10.5800752 49.3404135,10.7131579 49.4402256,10.8129699 C49.5400376,10.9016917 49.5843985,10.9682331 49.5954887,10.9571429 C49.6176692,10.9238722 49.3736842,10.6244361 48.9522556,10.1586466 C48.8524436,10.0477444 48.7415414,9.91466165 48.6084586,9.78157895 L48.1981203,9.3712406 L47.7434211,8.91654135 C47.5770677,8.77236842 47.4107143,8.61710526 47.2332707,8.46184211 C47.0558271,8.30657895 46.8783835,8.14022556 46.6898496,7.98496241 C46.5013158,7.84078947 46.3016917,7.68552632 46.1131579,7.53026316 C45.7360902,7.20864662 45.3257519,6.93139098 44.9486842,6.65413534 C44.1834586,6.11071429 43.4404135,5.64492481 42.8969925,5.3343985 C42.3646617,4.9906015 42.3868421,4.9462406 42.6862782,5.06823308 C42.8415414,5.12368421 43.0522556,5.22349624 43.3073308,5.34548872 C43.4293233,5.41203008 43.5734962,5.4674812 43.7065789,5.54511278 C43.8396617,5.62274436 43.9838346,5.70037594 44.1169173,5.77800752 C44.1169173,5.77800752 44.3276316,5.88890977 44.7157895,6.09962406 C44.9043233,6.19943609 45.137218,6.34360902 45.4033835,6.50996241 C45.6695489,6.67631579 45.9800752,6.86484962 46.3016917,7.09774436 C47.6214286,7.99605263 49.3847744,9.43778195 51.0261278,11.4229323 C51.8357143,12.4210526 52.6120301,13.5078947 53.3218045,14.6612782 C54.0204887,15.8257519 54.6526316,17.0678571 55.2071429,18.3654135 C55.7616541,19.6629699 56.1941729,21.0381579 56.5490602,22.4355263 C56.9039474,23.8328947 57.1257519,25.2746241 57.2477444,26.7274436 C57.3253759,27.4483083 57.3253759,28.1802632 57.3475564,28.9011278 C57.3364662,29.2671053 57.3364662,29.6219925 57.3253759,29.9879699 C57.3142857,30.3539474 57.281015,30.7199248 57.2588346,31.074812 C57.1479323,32.5054511 56.937218,33.925 56.6045113,35.300188 C56.5601504,35.4665414 56.5268797,35.643985 56.4825188,35.8103383 C56.4270677,35.987782 56.3827068,36.1541353 56.3383459,36.3204887 C56.2385338,36.6642857 56.1609023,36.9969925 56.05,37.3296992 C55.9390977,37.662406 55.8281955,37.9951128 55.7172932,38.3167293 C55.6618421,38.4830827 55.606391,38.6494361 55.5398496,38.8046992 C55.4733083,38.9599624 55.4178571,39.1263158 55.3513158,39.2815789 C55.1184211,39.924812 54.818985,40.5236842 54.5417293,41.1336466 C54.231203,41.7214286 53.9428571,42.3092105 53.6101504,42.8637218 C53.443797,43.1409774 53.2441729,43.4847744 52.9890977,43.8507519 C52.7340226,44.2167293 52.4789474,44.6270677 52.1795113,45.0041353 C51.8911654,45.3922932 51.6028195,45.7804511 51.3144737,46.1131579 C51.0261278,46.4569549 50.7821429,46.7674812 50.5603383,47.0003759 C50.3496241,47.2443609 50.1278195,47.4772556 49.9171053,47.7212406 C49.6953008,47.9652256 49.462406,48.1870301 49.2406015,48.4199248 C49.118609,48.5308271 49.018797,48.6528195 48.8968045,48.7637218 L48.5419173,49.0964286 C48.2979323,49.3071429 48.0650376,49.5400376 47.8210526,49.7507519 C46.8451128,50.6157895 45.7915414,51.3921053 44.693609,52.1240602 C43.5956767,52.8449248 42.431203,53.4770677 41.2334586,54.0537594 C40.0357143,54.6082707 38.7825188,55.0851504 37.4960526,55.4843985 C36.2095865,55.8725564 34.8898496,56.1609023 33.5479323,56.3716165 C32.206015,56.5712406 30.8530075,56.6599624 29.4889098,56.6710526 C28.124812,56.6710526 26.7607143,56.5601504 25.4077068,56.3716165 C24.0546992,56.1609023 22.712782,55.8725564 21.3930451,55.4733083 C20.0843985,55.0629699 18.7868421,54.575 17.5447368,53.987218 C16.3026316,53.3883459 15.093797,52.7007519 13.9515038,51.9355263 C12.8092105,51.1481203 11.7334586,50.2941729 10.7131579,49.362594 C9.70394737,48.4199248 8.77236842,47.4107143 7.90733083,46.3349624 C7.04229323,45.2592105 6.28815789,44.1169173 5.58947368,42.9302632 C4.89078947,41.7546992 4.30300752,40.5015038 3.80394737,39.237218 C3.69304511,38.9266917 3.54887218,38.6050752 3.44906015,38.2834586 L3.12744361,37.318609 C2.93890977,36.6642857 2.73928571,36.0099624 2.60620301,35.3445489 C2.43984962,34.6902256 2.34003759,34.0137218 2.21804511,33.3483083 C2.12932331,32.6718045 2.02951128,32.006391 1.9962406,31.3298872 C2.0406015,31.9620301 2.14041353,32.5830827 2.21804511,33.2152256 C2.26240602,33.5257519 2.32894737,33.8362782 2.3843985,34.1468045 L2.4731203,34.612594 L2.58402256,35.0783835 C2.46203008,34.6236842 2.3843985,34.1135338 2.22913534,33.5257519 C2.17368421,33.2595865 2.15150376,32.9823308 2.10714286,32.7050752 C2.07387218,32.4278195 2.02951128,32.1505639 1.9962406,31.862218 C1.96296992,31.5738722 1.94078947,31.2855263 1.91860902,30.9971805 L1.88533835,30.5646617 L1.87424812,30.1321429 L1.84097744,29.2671053 C1.84097744,28.9898496 1.85206767,28.7015038 1.85206767,28.4242481 C1.87424812,27.3152256 1.97406015,26.2838346 2.08496241,25.4631579 C2.12932331,25.0417293 2.20695489,24.6868421 2.26240602,24.387406 C2.31785714,24.0879699 2.36221805,23.8550752 2.39548872,23.699812 C2.83909774,21.8477444 3.52669173,19.7406015 4.61353383,17.4671053 C4.73552632,17.1787594 4.9018797,16.9015038 5.04605263,16.6131579 C5.20131579,16.324812 5.34548872,16.0364662 5.52293233,15.7481203 C5.68928571,15.4597744 5.8556391,15.1714286 6.03308271,14.8719925 C6.22161654,14.5836466 6.41015038,14.2953008 6.59868421,13.9958647 C7.38609023,12.8203008 8.29548872,11.6336466 9.36015038,10.4802632 C9.38233083,10.5024436 9.61522556,10.2917293 9.95902256,9.97011278 C10.1253759,9.8037594 10.325,9.62631579 10.5468045,9.42669173 C10.768609,9.22706767 10.9904135,9.01635338 11.2343985,8.81672932 C12.6428571,7.57462406 14.4283835,6.27706767 16.3469925,5.22349624 C18.2656015,4.18101504 20.3283835,3.3825188 22.1360902,2.88345865 L21.237782,3.16071429 L20.3505639,3.4712406 C20.0511278,3.57105263 19.762782,3.69304511 19.4744361,3.80394737 C19.1860902,3.92593985 18.8977444,4.02575188 18.6093985,4.15883459 C18.3210526,4.29191729 18.3321429,4.30300752 18.4763158,4.24755639 C18.5539474,4.21428571 18.6648496,4.16992481 18.7868421,4.12556391 C18.9088346,4.08120301 19.0640977,4.03684211 19.2082707,3.98139098 C19.7960526,3.78176692 20.3838346,3.57105263 19.8071429,3.81503759 C18.6426692,4.25864662 17.2342105,4.91296992 15.881203,5.68928571 C14.5281955,6.45451128 13.2528195,7.35281955 12.2879699,8.14022556 L12.3323308,8.18458647 C13.7851504,7.02011278 15.093797,6.16616541 16.4578947,5.4231203 C17.8219925,4.68007519 19.2415414,4.03684211 21.0159774,3.46015038 C21.9031955,3.18289474 22.6573308,2.9943609 23.2672932,2.87236842 C23.8772556,2.73928571 24.3319549,2.68383459 24.6424812,2.63947368 C25.2524436,2.56184211 25.2524436,2.59511278 24.6535714,2.71710526 C23.4447368,2.93890977 22.1693609,3.27161654 20.893985,3.70413534 C20.5834586,3.82612782 20.2507519,3.91484962 19.9402256,4.04793233 C19.6296992,4.16992481 19.3080827,4.30300752 18.9864662,4.425 C18.3654135,4.71334586 17.7221805,4.9906015 17.112218,5.31221805 C15.881203,5.9443609 14.6945489,6.66522556 13.6077068,7.4637218 C12.5208647,8.26221805 11.5116541,9.10507519 10.6355263,9.97011278 C11.0902256,9.53759398 11.3120301,9.33796992 11.4340226,9.23815789 C11.556015,9.14943609 11.5671053,9.16052632 11.5781955,9.17161654 C11.8110902,8.96090226 12.0994361,8.71691729 12.4210526,8.43966165 C12.7537594,8.17349624 13.1197368,7.8962406 13.4857143,7.60789474 C13.862782,7.34172932 14.2287594,7.06447368 14.5836466,6.83157895 C14.9385338,6.60977444 15.2712406,6.39906015 15.5263158,6.23270677 C12.3766917,8.15131579 9.87030075,10.5246241 7.86296992,13.2417293 C5.86672932,15.9699248 4.35845865,19.075188 3.4712406,22.6573308 L3.52669173,22.6684211 C3.62650376,22.2691729 3.73740602,21.881015 3.84830827,21.4817669 C3.89266917,21.2821429 3.95921053,21.0825188 4.02575188,20.893985 L4.21428571,20.306203 C4.24755639,20.3172932 4.30300752,20.3394737 4.3362782,20.3505639 C3.83721805,21.7922932 3.33815789,23.7330827 3.09417293,25.7958647 C2.83909774,27.8586466 2.83909774,30.0434211 3.07199248,31.9398496 C3.29379699,33.8362782 3.70413534,35.4332707 4.02575188,36.3870301 C4.16992481,36.8639098 4.30300752,37.1855263 4.36954887,37.318609 C4.43609023,37.4516917 4.43609023,37.3962406 4.36954887,37.0968045 C4.11447368,36.3315789 3.9037594,35.5552632 3.72631579,34.7678571 C3.75958647,34.7567669 3.81503759,34.7456767 3.81503759,34.7456767 C3.55996241,33.5590226 3.34924812,32.2947368 3.27161654,30.975 C3.18289474,29.6552632 3.17180451,28.3022556 3.30488722,26.9492481 C3.53778195,24.2432331 4.21428571,21.5926692 5.12368421,19.3635338 C5.12368421,19.3635338 5.17913534,19.3857143 5.21240602,19.3968045 C4.75770677,20.5058271 4.41390977,21.6592105 4.11447368,22.8236842 C4.22537594,22.3911654 4.34736842,21.9919173 4.44718045,21.6259398 C4.49154135,21.437406 4.55808271,21.2710526 4.61353383,21.1046992 C4.66898496,20.9383459 4.72443609,20.7830827 4.77988722,20.6278195 C4.83533835,20.4725564 4.89078947,20.3283835 4.93515038,20.1953008 C4.9906015,20.062218 5.03496241,19.9291353 5.09041353,19.8071429 C5.20131579,19.5631579 5.29003759,19.3413534 5.3787594,19.1306391 C5.75582707,18.3210526 6.03308271,17.7887218 6.32142857,17.2674812 C6.43233083,17.0789474 6.54323308,16.8571429 6.67631579,16.6353383 C6.8093985,16.4135338 6.9424812,16.1806391 7.09774436,15.9255639 C7.24191729,15.6704887 7.4193609,15.4154135 7.59680451,15.1492481 C7.77424812,14.8830827 7.95169173,14.5947368 8.16240602,14.3174812 C8.96090226,13.175188 9.97011278,11.9330827 11.1900376,10.7353383 C12.3988722,9.53759398 13.8184211,8.38421053 15.3710526,7.38609023 C16.9236842,6.38796992 18.587218,5.55620301 20.2618421,4.93515038 C20.5390977,4.82424812 20.7609023,4.76879699 20.9161654,4.71334586 C21.0825188,4.66898496 21.1823308,4.63571429 21.2599624,4.62462406 C21.4041353,4.60244361 21.4152256,4.62462406 21.4152256,4.63571429 C21.6924812,4.53590226 21.9697368,4.45827068 22.2469925,4.3806391 C22.5242481,4.30300752 22.7904135,4.20319549 23.0676692,4.14774436 C23.6110902,4.02575188 24.1434211,3.89266917 24.6757519,3.80394737 C25.7293233,3.60432331 26.7607143,3.50451128 27.7921053,3.43796992 C29.8548872,3.34924812 31.9398496,3.48233083 34.2577068,3.93703008 C31.9287594,3.5156015 29.5554511,3.36033835 27.2043233,3.57105263 C26.6165414,3.60432331 26.0398496,3.69304511 25.4520677,3.77067669 C25.1526316,3.81503759 24.8642857,3.87048872 24.5759398,3.92593985 L24.1434211,4.00357143 L23.7109023,4.10338346 C22.5575188,4.35845865 21.437406,4.72443609 20.3283835,5.12368421 L19.5077068,5.44530075 C19.2304511,5.55620301 18.9642857,5.67819549 18.6981203,5.80018797 L18.2988722,5.97763158 L17.8996241,6.17725564 C17.6334586,6.32142857 17.3672932,6.44342105 17.112218,6.58759398 C16.0808271,7.15319549 15.0827068,7.78533835 14.1289474,8.48402256 C13.1862782,9.19379699 12.2768797,9.94793233 11.4340226,10.7796992 C11.212218,10.9793233 11.0236842,11.2011278 10.8129699,11.4118421 C10.6133459,11.6336466 10.4026316,11.8443609 10.2140977,12.0661654 L9.63740602,12.7315789 L9.09398496,13.4302632 C6.21052632,17.1565789 4.39172932,21.7146617 3.92593985,26.4169173 C3.81503759,27.5924812 3.75958647,28.7791353 3.81503759,29.9546992 C3.81503759,30.5424812 3.89266917,31.1302632 3.93703008,31.7180451 L4.05902256,32.5941729 L4.12556391,33.0266917 L4.20319549,33.4592105 C4.61353383,35.7770677 5.3787594,38.0394737 6.4212406,40.1466165 C6.68740602,40.6789474 6.8537594,41.0005639 6.98684211,41.2223684 C7.11992481,41.4441729 7.20864662,41.5661654 7.2862782,41.6881579 C7.36390977,41.8101504 7.45263158,41.9321429 7.58571429,42.1539474 C7.72988722,42.3646617 7.9406015,42.6640977 8.25112782,43.1631579 C8.91654135,44.1280075 9.63740602,45.0595865 10.4137218,45.9357143 C10.0588346,45.4699248 10.081015,45.4477444 10.2917293,45.6584586 C10.4913534,45.8691729 10.912782,46.2795113 11.3120301,46.7009398 C12.0218626,47.402322 12.7767676,48.0779485 13.5718388,48.7131007 Z M25.3855263,15.3488722 C25.4077068,15.2157895 25.4298872,15.0605263 25.4298872,14.8830827 L25.3633459,14.5171053 L25.3855263,14.1511278 C25.8180451,14.162218 26.1396617,14.1733083 26.2727444,14.1733083 L28.8456767,14.1733083 L28.6016917,14.6612782 C28.5906015,14.7832707 28.3577068,15.2490602 28.3022556,15.4265038 L25.3855263,15.3488722 Z M24.3319549,14.2509398 L24.4095865,14.6058271 L24.3652256,15.1048872 L24.3652256,15.1492481 L21.6148496,15.2157895 L21.537218,14.2620301 C22.0917293,14.1954887 23.2783835,14.2176692 24.3319549,14.2509398 Z M33.7586466,14.8830827 L30.0545113,14.6280075 L30.0545113,14.0513158 L33.5257519,14.0513158 L33.6477444,14.5947368 C33.6477444,14.6945489 33.7364662,14.75 33.7586466,14.8830827 Z M37.9951128,15.2712406 C37.9618421,15.2712406 36.7308271,15.0050752 36.7197368,15.0161654 L34.8233083,14.9163534 L34.8787594,13.962594 L35.7992481,13.962594 C36.3648496,13.962594 38.1503759,13.962594 38.3721805,14.0402256 L37.9951128,15.2712406 Z M38.4719925,13.3526316 L35.0451128,13.3969925 L35.0451128,7.03120301 L35.1227444,6.98684211 C35.1227444,6.98684211 35.9545113,6.56541353 37.2077068,6.64304511 C38.1836466,6.69849624 38.6050752,7.14210526 38.693797,7.30845865 L38.4719925,13.3526316 Z M33.8695489,7.26409774 L33.6588346,13.4968045 L30.2208647,13.5411654 L30.2208647,6.96466165 L30.2984962,6.92030075 C30.3095865,6.92030075 31.1302632,6.48778195 32.3834586,6.56541353 C33.4370301,6.63195489 33.8030075,7.14210526 33.8695489,7.26409774 Z M24.487218,13.6409774 L21.5704887,13.6853383 L21.3819549,7.79642857 L21.437406,7.76315789 C21.4484962,7.75206767 22.2026316,7.36390977 23.3449248,7.44154135 C24.0325188,7.48590226 24.4095865,7.74097744 24.5870301,7.91842105 L24.5870301,10.4026316 L24.487218,13.6409774 Z M29.1672932,7.54135338 L28.9565789,13.5522556 L25.518609,13.5966165 L25.518609,10.4137218 L25.6184211,7.98496241 C25.6184211,7.88515038 25.5851504,7.76315789 25.518609,7.64116541 L25.518609,7.26409774 L25.5962406,7.21973684 C25.5962406,7.21973684 26.4280075,6.79830827 27.681203,6.87593985 C28.6571429,6.9424812 29.0785714,7.375 29.1672932,7.54135338 Z M21.8477444,22.0917293 C20.8496241,21.3597744 21.237782,19.9845865 21.2156015,18.3765038 L21.2045113,16.1140977 C21.2821429,16.1362782 21.3486842,16.1473684 21.4263158,16.1473684 L24.6868421,16.0697368 C24.7977444,16.0697368 25.4964286,16.1030075 25.5075188,16.1030075 L28.124812,16.0808271 C28.124812,16.0808271 27.7366541,17.5336466 29.0342105,18.2988722 C29.7994361,18.7535714 31.4407895,19.518797 31.4407895,19.518797 L28.8900376,21.8033835 L29.4556391,22.4798872 L33.4148496,19.0086466 C33.4148496,19.0086466 31.9176692,18.831203 30.7975564,18.2766917 C29.6774436,17.7221805 29.156203,17.1787594 29.156203,17.1787594 C28.8234962,16.7462406 29.1229323,15.537406 29.3447368,15.1714286 L34.9674812,15.6261278 C35.1338346,15.637218 37.3629699,15.9144737 37.3518797,16.0808271 L37.7511278,18.6870301 C37.7400376,18.8422932 36.9526316,21.9586466 34.9120301,23.8883459 L34.7900376,25.9178571 C34.7900376,26.1396617 34.612594,26.3171053 34.3796992,26.3171053 L22.7349624,26.3171053 C22.5131579,26.3171053 22.3246241,26.1396617 22.3246241,25.9178571 L21.8477444,22.0917293 Z M21.3930451,29.6552632 C21.1823308,29.6552632 21.0159774,29.6330827 21.0159774,29.599812 L21.0159774,26.9714286 C21.0159774,26.9381579 21.1823308,26.9159774 21.3930451,26.9159774 L36.8195489,26.9159774 C37.0302632,26.9159774 37.1966165,26.9381579 37.1966165,26.9714286 L37.1966165,29.599812 C37.1966165,29.6330827 37.0302632,29.6552632 36.8195489,29.6552632 L21.3930451,29.6552632 Z M16.2693609,36.0210526 C16.0142857,34.4906015 13.6742481,21.9919173 13.6742481,21.9808271 L14.3507519,21.3043233 L16.2693609,36.0210526 Z M17.3672932,46.3682331 C16.7129699,45.2148496 6.82048872,26.7718045 6.82048872,26.7828947 L7.16428571,26.0509398 L17.3672932,46.3682331 Z M18.043797,45.2259398 L16.7240602,9.18270677 L18.1546992,7.87406015 L18.043797,45.2259398 Z M40.6900376,48.087218 L45.1261278,30.7088346 L45.8359023,31.6182331 C45.8359023,31.6182331 40.7011278,47.0780075 40.6900376,48.087218 Z M42.7084586,36.0210526 L44.6270677,21.3043233 L45.3035714,21.9808271 C45.2924812,21.9919173 42.9635338,34.4906015 42.7084586,36.0210526 Z M41.5994361,46.3682331 L51.8024436,26.0509398 L52.1462406,26.7828947 C52.1462406,26.7718045 42.2648496,45.2148496 41.5994361,46.3682331 Z M40.9340226,45.2259398 L40.8231203,7.87406015 L42.2537594,9.18270677 L40.9340226,45.2259398 Z" id="Shape" fill="#FFFFFF"></path>
                    </g>
                </g>
            </g>
        </g>
    </g>
</svg>