<?xml version="1.0" encoding="UTF-8"?>
<svg width="44px" height="53px" viewBox="0 0 44 53" version="1.1" xmlns="http://www.w3.org/2000/svg" xmlns:xlink="http://www.w3.org/1999/xlink">
    <!-- Generator: Sketch 49.1 (51147) - http://www.bohemiancoding.com/sketch -->
    <title>iconViagem</title>
    <desc>Created with Sketch.</desc>
    <defs></defs>
    <g id="Page-1" stroke="none" stroke-width="1" fill="none" fill-rule="evenodd" opacity="0.821557971">
        <g id="Imersão-Copy" transform="translate(-558.000000, -732.000000)" fill-rule="nonzero">
            <g id="Group-4" transform="translate(536.000000, 712.000000)">
                <g id="iconViagem" transform="translate(22.000000, 20.000000)">
                    <path d="M22.8771061,8.26395026 L22.0883562,13 L26.1894933,12.331188 L27.7985612,7.46134502 L34.9106779,6.30139222 L34.9871815,5.73545062 C35.1717569,4.36852315 33.3118809,3.62398491 32.7007583,3.37930135 C31.7018312,2.97930965 30.5134197,2.69753413 30.5134197,2.69753413 L26.4063164,3.36742575 L21.5967091,0 L17.827717,0.614677811 L20.8973015,4.26596117 L18.5052233,4.65608224 L15.7792631,2.54962896 L12,3.16600329 L15.1714634,9.52083571 L22.8771061,8.26395026 Z M25.0499445,10.955161 L23.930711,11.1376905 L24.4519627,8.00708267 L26.1135183,7.73610311 L25.0499445,10.955161 Z M20.732815,1.70252876 L21.2396419,1.61986226 L24.2400484,3.72060909 L22.6478218,3.98032994 L20.732815,1.70252876 Z M15.3813386,4.17627729 L18.1072233,6.28265346 L30.4556456,4.26866017 C30.711589,4.33451576 31.2878205,4.49175175 31.8929014,4.71630848 C32.2590312,4.85226094 32.5431443,4.97795719 32.7630638,5.08969576 L16.0182141,7.82077457 L14.2883112,4.35448836 L15.3813386,4.17627729 Z" id="Shape" fill="#E5C688"></path>
                    <path d="M3.43779968,37 L2,37.5360049 C2.1832061,38.0280977 2.38513176,38.520651 2.60009974,39 L4,38.371411 C3.79861138,37.9223092 3.60942115,37.4609243 3.43779968,37 Z" id="Shape" fill="#000000"></path>
                    <path d="M1.98452074,28.988898 C1.98452074,28.681243 1.98958127,28.368934 1.99940465,28.0607941 L0.0158761659,28 C0.005358206,28.3283076 0,28.6609783 0,28.988898 C0,29.3251564 0.0055566581,29.66539 0.0165707481,30 L2,29.9376545 C1.98977972,29.6236971 1.98452074,29.3045038 1.98452074,28.988898 Z" id="Shape" fill="#000000"></path>
                    <path d="M1.7783634,31 L0,31.1718778 C0.0589601574,31.7817581 0.13855637,32.3968197 0.236465964,33 L2,32.7135072 C1.90825442,32.1482937 1.83366089,31.5716455 1.7783634,31 Z" id="Shape" fill="#000000"></path>
                    <path d="M4.29668072,39 L3,39.6863788 C3.23465982,40.129902 3.48721804,40.5718845 3.75048598,41 L5,40.2310796 C4.75323675,39.8298911 4.51659637,39.4156425 4.29668072,39 Z" id="Shape" fill="#000000"></path>
                    <path d="M6.16577388,42 L5,42.8256428 C5.2824084,43.2243571 5.58174416,43.6195 5.88986501,44 L7,43.101 C6.71116349,42.7442857 6.43046925,42.3738572 6.16577388,42 Z" id="Shape" fill="#000000"></path>
                    <path d="M4,19.6267432 L2.60059806,19 C2.38537034,19.4799233 2.18333078,19.97318 2,20.465977 L3.43735624,21 C3.60910904,20.5383908 3.79842049,20.0763218 4,19.6267432 Z" id="Shape" fill="#000000"></path>
                    <path d="M7,13.8985114 L5.8901503,13 C5.58212845,13.3804662 5.28260326,13.7757827 5,14.1749545 L6.16554211,15 C6.43050944,14.6257452 6.71125629,14.2551315 7,13.8985114 Z" id="Shape" fill="#000000"></path>
                    <path d="M5,16.76781 L3.75099886,16 C3.48751879,16.4283934 3.23481544,16.8707857 3,17.3147904 L4.29621348,18 C4.51622008,17.5838464 4.75301492,17.1693052 5,16.76781 Z" id="Shape" fill="#000000"></path>
                    <path d="M8,12.024159 L7.02376914,11 C6.67282115,11.3345478 6.32838144,11.6847299 6,12.0407131 L7.04003962,13 C7.34790604,12.6661597 7.67091115,12.3378374 8,12.024159 Z" id="Shape" fill="#000000"></path>
                    <path d="M3,22.4692592 L1.43129068,22 C1.27066192,22.5371265 1.12550657,23.0867786 1,23.6339746 L2.595972,24 C2.71353719,23.4872697 2.84944124,22.9723291 3,22.4692592 Z" id="Shape" fill="#000000"></path>
                    <path d="M7.03993494,44 L6,44.9594284 C6.32867603,45.3156238 6.67312792,45.6657352 7.0238761,46 L8,44.9756995 C7.67111173,44.6623749 7.34809525,44.3340525 7.03993494,44 Z" id="Shape" fill="#000000"></path>
                    <path d="M2,25.2852163 L0.23533092,25 C0.137641328,25.6039507 0.0584528755,26.2194316 0,26.8292814 L1.77932699,27 C1.83420476,26.4282267 1.90838808,25.8513586 2,25.2852163 Z" id="Shape" fill="#000000"></path>
                    <path d="M2.59507345,34 L1,34.3668058 C1.12570072,34.913168 1.27112403,35.4626401 1.43225991,36 L3,35.5297487 C2.84901183,35.0264342 2.7127542,34.511744 2.59507345,34 Z" id="Shape" fill="#000000"></path>
                    <path d="M17,51.5460481 C17.5295,51.7141003 18.0716516,51.8668234 18.6115324,52 L19,50.425078 C18.4942622,50.3003366 17.9864158,50.1572651 17.4905721,50 L17,51.5460481 Z" id="Shape" fill="#000000"></path>
                    <path d="M11,10.1496686 L10.1573058,9 C9.76386317,9.28836152 9.37448324,9.59354289 9,9.90706297 L9.91511049,11 C10.2662153,10.7060081 10.6312188,10.4199986 11,10.1496686 Z" id="Shape" fill="#000000"></path>
                    <path d="M23.0922136,51 L23,52.9640171 C23.4947154,52.9879074 23.996994,53 24.4932609,53 C24.6624648,53 24.8313779,52.9986236 25,52.9958708 L24.9685833,51.0297891 C24.3464559,51.0401121 23.7143411,51.0299858 23.0922136,51 Z" id="Shape" fill="#000000"></path>
                    <path d="M20,52.7379827 C20.5942797,52.8441845 21.2009181,52.932377 21.8029661,53 L22,51.2454205 C21.4358228,51.1820349 20.8674082,51.0994924 20.310558,51 L20,52.7379827 Z" id="Shape" fill="#000000"></path>
                    <path d="M9,47.0928717 C9.37447899,47.4062199 9.76406258,47.7115173 10.1577785,48 L11,46.8505576 C10.6308646,46.5801004 10.2656479,46.2938976 9.91460942,46 L9,47.0928717 Z" id="Shape" fill="#000000"></path>
                    <path d="M13,8.27960563 L12.2954711,7 C11.8578524,7.24086181 11.4219869,7.49947053 11,7.76866897 L11.7858291,9 C12.1813732,8.74767206 12.5898466,8.50527664 13,8.27960563 Z" id="Shape" fill="#000000"></path>
                    <path d="M14,50.379636 C14.473548,50.6013252 14.9600365,50.8100678 15.4459922,51 L16,49.5812962 C15.5447972,49.4033204 15.0889853,49.2078289 14.6452767,49 L14,50.379636 Z" id="Shape" fill="#000000"></path>
                    <path d="M11,49.2309208 C11.4221127,49.5001278 11.8583105,49.7588963 12.2966247,50 L13,48.7207562 C12.589345,48.4948356 12.1805145,48.252345 11.7848932,48 L11,49.2309208 Z" id="Shape" fill="#000000"></path>
                    <path d="M19.4981448,29.5251378 C19.6388464,29.7024158 19.9681433,30 20.593051,30 C22.1326722,30 25.1181134,28.027376 26.6597206,25.4841478 C27.4256356,24.2204136 28.0070801,24.2204136 28.286421,24.2204136 C28.5947119,24.2204136 28.9499033,24.3013577 29.3258715,24.3871111 C29.7908285,24.4930635 30.317734,24.6132219 30.8933733,24.6131478 C31.4247091,24.6130739 31.9164774,24.5125967 32.3966351,24.305871 C33.1533838,23.9800969 33.6490477,23.5248418 33.8696483,22.952832 C34.2355337,22.0042174 33.7581258,21.0153527 33.3369376,20.142947 C33.118934,19.6914654 32.9129994,19.264992 32.8347045,18.8940846 C32.6539006,18.0378084 32.0522904,17.0170545 30.213239,17.0170545 C29.6349263,17.0170545 29.0398851,17.1131664 28.5148893,17.1978839 L28.4853282,17.2026932 C28.3848815,17.2188968 28.2955108,17.2271096 28.2195839,17.2271096 C28.0979021,17.2271096 28.0558903,17.2061707 28.0552028,17.2061707 C27.9749983,17.1319596 27.9136609,16.7401132 27.876996,16.5060116 C27.8640869,16.4235878 27.8510251,16.34035 27.836741,16.2571122 C27.6657908,15.2635123 27.2347488,14.2201917 25.3343601,14.0156117 C25.2378855,14.0052533 25.141029,14 25.0463113,14 C23.7738094,14 22.878345,14.863601 21.2527905,16.4314306 C20.7591126,16.9075506 20.1995906,17.4472273 19.5303794,18.061263 C18.2618495,19.2253339 17.7891775,20.2028782 18.0853995,21.0496837 C18.3089792,21.6886538 18.8940138,22.0036995 19.357214,22.156561 C19.4905826,23.3818949 19.7689305,26.5350154 19.31757,28.1743923 C19.1653342,28.727683 19.2260605,29.1820503 19.4981448,29.5251378 Z M19.5322126,20.5745996 C19.5309141,20.5709741 19.4585772,20.1655877 20.5809822,19.1355851 C21.2640191,18.5087492 21.8307213,17.9622656 22.3306628,17.4800785 C23.6679394,16.1903001 24.4045224,15.4797825 25.0462349,15.4797825 C25.0853442,15.4797825 25.1243006,15.4819281 25.1655487,15.4863675 C26.1331207,15.5904702 26.2216512,15.8725167 26.3296599,16.5003884 C26.3427982,16.5765233 26.3546379,16.6526581 26.3664776,16.727979 C26.4747919,17.4195554 26.676449,18.7068921 28.2195075,18.7068921 C28.3793818,18.7068921 28.5532347,18.6918723 28.7364065,18.6622766 L28.7661203,18.6575413 C29.2554443,18.578521 29.7613438,18.496837 30.213239,18.496837 C31.1167238,18.496837 31.2608628,18.8250527 31.3380883,19.190633 C31.4526661,19.7331952 31.7071054,20.2602197 31.9531423,20.7698568 C32.2613568,21.408161 32.5800361,22.0682919 32.4385706,22.434908 C32.3669213,22.6206948 32.1441054,22.7951611 31.7761577,22.9535719 C31.4913934,23.0761718 31.2109068,23.1332914 30.8932969,23.1332914 C30.4950242,23.1332914 30.0971334,23.0425807 29.6758687,22.9466168 C29.2316121,22.8453258 28.7720784,22.7406311 28.2864974,22.7406311 C27.1026023,22.7406311 26.1670357,23.374274 25.3423041,24.73486 C24.1162444,26.7577226 21.8140693,28.2770892 20.8104435,28.4936554 C21.4258031,26.1422071 20.8388588,21.6548407 20.8133461,21.4633569 L20.7410092,20.8839481 L20.1406975,20.8227591 C19.8650232,20.7909438 19.559253,20.6537679 19.5322126,20.5745996 Z" id="Shape" fill="#E5C688"></path>
                    <path d="M11.4579307,29.2061554 L11.2533612,29.0222789 L10.9810869,29.0037633 C10.9810869,29.0037633 10.9249471,29 10.8249983,29 C9.29987949,29 7.52546313,29.7112702 7.11923457,31.7075684 C6.63013653,34.1106078 7.68300692,35.0592691 9.59428802,36.7815214 C9.85231669,37.0140954 10.1192298,37.2544972 10.409962,37.5223713 C10.8380951,37.916844 11.164671,38.2397381 11.4271419,38.4992576 C12.7645408,39.8213921 12.9933124,39.8606061 15.5906787,39.9625925 C15.7528179,39.9689901 15.9256029,39.9757641 16.1099528,39.9832908 C16.3839886,39.9945056 16.6204958,40 16.8331072,40 C17.7520232,40 18.3953717,39.906594 18.7633058,39.4414459 C19.1271805,38.9814912 18.9910052,38.4558287 18.8816359,38.0335826 C18.7687435,37.5978638 18.6408398,37.1040391 18.8597314,36.4586272 C19.0561059,35.8796759 19.0253171,35.3692926 18.768284,34.9419283 C18.2807944,34.1313814 17.2063259,33.937645 15.9621358,33.7133503 C14.8771747,33.5177321 13.6474599,33.2959965 12.9105196,32.6487783 C12.6457511,32.4162042 12.5222129,32.2689073 12.4661496,32.1893505 C12.4683708,32.1858882 12.4706684,32.1825765 12.4727363,32.17934 C13.0830749,31.2568715 12.8079668,30.4510664 11.4579307,29.2061554 Z M15.6857258,35.1939212 C16.2959878,35.3039611 17.3175333,35.4881387 17.4495728,35.7077669 C17.4559297,35.7183795 17.4683371,35.8004954 17.4065298,35.9825655 C17.0454121,37.0472127 17.2656058,37.8971241 17.3971093,38.4049485 C17.4024706,38.425722 17.4082913,38.4479257 17.4141121,38.4706562 C17.2876635,38.4838279 17.1020115,38.4945911 16.8331072,38.4945911 C16.6419407,38.4945911 16.4262658,38.4896235 16.1737516,38.4792366 C15.9884825,38.4716347 15.814855,38.4648607 15.6518734,38.458463 C14.5187376,38.4139052 13.8945364,38.3893682 13.5450604,38.2705221 C13.2694162,38.1767398 13.0777902,37.9957988 12.5134817,37.4378468 C12.242586,37.170048 11.9054408,36.8367671 11.4575477,36.4241551 C11.1606118,36.1504855 10.8783809,35.8962346 10.6294663,35.6719399 C8.70807549,33.9406556 8.31210986,33.5212697 8.62114688,32.002689 C8.86814673,30.7891643 9.98795602,30.5476335 10.6273985,30.5109787 C11.0967365,30.9730408 11.2129221,31.2023784 11.2408772,31.2774945 C11.2263252,31.3015799 11.2053398,31.3333425 11.1884136,31.3588579 C10.654511,32.1658672 10.8577019,32.8647937 11.88974,33.7711551 C12.9476653,34.7001718 14.4658911,34.9739919 15.6857258,35.1939212 Z" id="Shape" fill="#E5C688"></path>
                    <path d="M38.2885567,14.5516273 C35.7914903,12.0425841 32.7360078,10.2989897 29.4040977,9.43542022 L28.8463672,10.8785296 C33.0920352,11.9417846 36.745086,14.5259108 39.1978203,18.0189164 C39.0402208,18.9253468 38.5495215,21.5974142 37.9453262,23.419 C37.4917227,24.7861079 36.350211,25.1089419 35.3429903,25.3938134 C34.9854395,25.4949191 34.6476172,25.5904376 34.3663907,25.7318018 C33.1086407,26.3636931 30.2244688,28.0804229 30.6040332,30.369039 C30.7121211,31.0203707 30.9970039,31.4578574 31.450836,31.6694063 C32.2809571,32.0564551 33.2255644,31.4911511 34.3193165,30.8368345 C34.7966094,30.5513506 35.290127,30.2561465 35.7857012,30.0282187 C35.7926328,30.0250042 36.5605215,29.845754 38.7089492,32.72164 C39.6525664,33.9846573 40.4748418,35.325972 40.8378008,35.936586 C40.5127754,36.6456268 40.1432656,37.329793 39.7330801,37.9859466 L36.7659571,36.4589525 C36.4976797,36.3040412 34.7673594,35.3204613 33.813916,35.1529979 C33.2022558,35.0453866 32.4253789,35.3123484 31.2078477,35.7565704 C30.4245723,36.0422839 29.5367891,36.3661894 29.0702364,36.3661894 C28.2449141,36.3661894 27.436959,36.6795328 26.7335879,37.272237 C25.9893125,37.899383 25.4065215,38.7954808 25.0013633,39.9356558 C24.4692266,41.4328769 24.3632715,41.4624203 22.5947129,41.9572334 C22.329711,42.0313214 22.0295176,42.1152827 21.6951231,42.2140923 C19.8091836,42.7714363 18.9523262,44.2851895 18.6397168,45.4827674 C11.5960274,43.0354132 6.52336133,36.3053423 6.52336133,28.4063184 C6.52336133,26.4403069 6.83772266,24.5468526 7.41838085,22.7737913 C8.20051366,23.1825766 9.39008981,23.6986671 10.412545,23.6986671 C10.5999277,23.6986671 10.7816738,23.6812931 10.9542793,23.6427949 C12.0625039,23.3953501 15.7287324,22.4529473 16.3772598,20.7152462 C16.6423379,20.0049043 16.7244511,19.0569142 16.8037461,18.1401514 C16.8742051,17.326025 16.9470254,16.4841921 17.1389785,15.9699385 C17.4515879,15.1323917 18.5036738,14.1550879 18.8820957,13.8496279 L19.1679688,13.6198632 L19.1679688,11.1567423 C19.9501016,10.9122059 20.7547813,10.7193321 21.5782754,10.5834786 L21.7958984,9 C17.6128438,9.57953979 13.7491016,11.4993994 10.7113672,14.5517038 C7.02830469,18.2524315 5,23.1728564 5,28.4064715 C5,33.6400867 7.02830469,38.560435 10.7113672,42.2612393 C14.3944297,45.9619669 19.291291,48 24.5,48 C29.708709,48 34.6054942,45.9618904 38.2886329,42.2612393 C41.9716953,38.560435 44,33.6400867 44,28.4064715 C44,23.1728564 41.971543,18.252355 38.2885567,14.5516273 Z M17.6444551,11.7107952 L17.6444551,12.8978876 C17.1335703,13.3525952 16.1146953,14.3546205 15.7125078,15.4324176 C15.4474297,16.1427595 15.3653164,17.0907496 15.2860215,18.0075124 C15.2155625,18.8216388 15.1427422,19.6634717 14.9507891,20.1777253 C14.7290527,20.7718072 12.7475176,21.6743342 10.6237695,22.1485587 C10.027039,22.2815804 8.85650584,21.8170761 7.96049611,21.3310647 C9.80705467,16.9900266 13.2992305,13.5185279 17.6444551,11.7107952 Z M39.9350117,31.8128371 C37.8968809,29.0820656 36.3766426,28.0727692 35.1516465,28.6363128 C34.5814239,28.8986824 34.0281875,29.2295528 33.5400781,29.5214657 C33.0938633,29.7884276 32.4450313,30.1765478 32.1359258,30.2514012 C32.1264043,30.2181075 32.1161211,30.1741752 32.1067519,30.1173845 C31.9328516,29.0688246 33.5822774,27.8370346 35.0475195,27.1008996 C35.1994824,27.024592 35.4696641,26.9481313 35.7556133,26.8672315 C36.8499747,26.5577915 38.6816036,26.039711 39.3905352,23.9030215 C39.7935606,22.6881462 40.1409805,21.1603102 40.3844258,19.9559204 C41.7193379,22.4787403 42.4764863,25.3551621 42.4764863,28.4063184 C42.4764863,30.4181758 42.1471192,32.3541083 41.5402578,34.1629125 C41.1143809,33.4886961 40.5539083,32.6420413 39.9350117,31.8128371 Z M24.4999238,46.4691026 C22.9834941,46.4691026 21.5105586,46.2786014 20.1029024,45.9217084 C20.2701758,45.218867 20.7502871,44.088948 22.1250371,43.6826885 C22.4487676,43.587017 22.7434004,43.5045864 23.0032989,43.431876 C25.0050957,42.8719297 25.6746465,42.5925688 26.4359844,40.4505216 C27.1052305,38.5677826 28.2355449,37.8970104 29.0702364,37.8970104 C29.8048379,37.8970104 30.7824277,37.5404235 31.7277969,37.1954702 C32.3475313,36.9694558 33.283836,36.6280998 33.5516563,36.6610108 C34.0887441,36.7553047 35.3515215,37.4063303 36.021377,37.7946035 L38.8619786,39.2573064 C35.5783613,43.6340873 30.3626445,46.4691026 24.4999238,46.4691026 Z" id="Shape" fill="#E5C688"></path>
                </g>
            </g>
        </g>
    </g>
</svg>