<?xml version="1.0" encoding="UTF-8"?>
<svg width="44px" height="32px" viewBox="0 0 44 32" version="1.1" xmlns="http://www.w3.org/2000/svg" xmlns:xlink="http://www.w3.org/1999/xlink">
    <!-- Generator: Sketch 49.1 (51147) - http://www.bohemiancoding.com/sketch -->
    <title>noun_Buy Product_860314</title>
    <desc>Created with Sketch.</desc>
    <defs></defs>
    <g id="Page-1" stroke="none" stroke-width="1" fill="none" fill-rule="evenodd">
        <g id="Exclusividade" transform="translate(-923.000000, -712.000000)" fill="#E5C688" fill-rule="nonzero">
            <g id="noun_Buy-Product_860314" transform="translate(923.000000, 712.000000)">
                <g id="Group">
                    <g id="Group-2">
                        <path d="M0,1.48837209 L0,30.5116279 C0,31.3302326 0.689443463,32 1.53209658,32 L41.8262367,32 C42.6688899,32 43.3583333,31.3302326 43.3583333,30.5116279 L43.3583333,1.48837209 C43.3583333,0.669767442 42.6688899,0 41.8262367,0 L1.45549176,0 C0.612838634,0 0,0.669767442 0,1.48837209 Z M11.7971437,1.6372093 C12.6397968,1.6372093 13.3292403,2.30697674 13.3292403,3.1255814 C13.3292403,3.94418605 12.6397968,4.61395349 11.7971437,4.61395349 C10.9544906,4.61395349 10.2650471,3.94418605 10.2650471,3.1255814 C10.2650471,2.30697674 10.9544906,1.6372093 11.7971437,1.6372093 Z M7.73708775,1.6372093 C8.57974087,1.6372093 9.26918433,2.30697674 9.26918433,3.1255814 C9.26918433,3.94418605 8.57974087,4.61395349 7.73708775,4.61395349 C6.89443463,4.61395349 6.20499117,3.94418605 6.20499117,3.1255814 C6.20499117,2.30697674 6.89443463,1.6372093 7.73708775,1.6372093 Z M3.6770318,1.6372093 C4.51968492,1.6372093 5.20912839,2.30697674 5.20912839,3.1255814 C5.20912839,3.94418605 4.51968492,4.61395349 3.6770318,4.61395349 C2.83437868,4.61395349 2.14493522,3.94418605 2.14493522,3.1255814 C2.14493522,2.30697674 2.83437868,1.6372093 3.6770318,1.6372093 Z M40.7537691,29.4697674 L2.45135453,29.4697674 L2.45135453,6.25116279 L40.7537691,6.25116279 L40.7537691,29.4697674 Z" id="Shape"></path>
                        <path d="M13.1083333,26.7333333 C13.1083333,27.4666667 13.786838,28 14.5407321,28 L27.8092679,28 C28.6385514,28 29.2416667,27.4 29.2416667,26.7333333 L29.2416667,26 L13.1083333,26 L13.1083333,26.7333333 Z" id="Shape"></path>
                        <path d="M25.714845,12.9903161 C25.714845,12.9147834 25.714845,12.8392508 25.714845,12.7637182 C25.4897287,10.1956097 23.6887984,8.15622943 21.5126744,8.00516423 C20.086938,7.92963162 18.5861628,8.68495766 17.6856977,10.1200771 C17.0853876,10.9509358 16.7852326,12.0083922 16.7101938,13.0658487 L13.1083333,13.0658487 L13.1083333,25 L29.2416667,25 L29.2416667,12.9903161 L25.714845,12.9903161 Z M18.5861628,11.0264684 C19.2615116,10.0445445 20.2370155,9.44028369 21.2875581,9.44028369 C21.3625969,9.44028369 21.4376357,9.44028369 21.5126744,9.44028369 C23.0884884,9.5913489 24.439186,11.0264684 24.5892636,12.9147834 C24.5892636,12.9147834 24.5892636,12.9903161 24.5892636,12.9903161 L17.9858527,12.9903161 C17.910814,12.0839248 18.2860078,11.479664 18.5861628,11.0264684 Z M16.7101938,15.6339572 C16.7101938,15.1052289 17.1604264,14.6520333 17.6856977,14.6520333 C18.210969,14.6520333 18.6612016,15.1052289 18.6612016,15.6339572 C18.6612016,16.1626854 18.210969,16.615881 17.6856977,16.615881 C17.1604264,16.615881 16.7101938,16.1626854 16.7101938,15.6339572 Z M24.139031,20.5435764 C23.9889535,20.9212394 23.6887984,21.2989024 23.3886434,21.6010328 C22.7883333,22.2052937 22.1880233,22.7340219 21.4376357,23.1872175 C21.2125194,23.3382827 21.0624419,23.3382827 20.9123643,23.1872175 C20.0118992,22.6584893 19.1864729,21.9786959 18.511124,21.1478372 C17.910814,20.3925112 17.9858527,19.3350547 18.7362403,18.7307939 C19.4115891,18.2020657 20.1619767,18.2775983 20.7622868,18.8818591 C20.9123643,19.0329243 20.9874031,19.1839895 21.2125194,19.3350547 C21.3625969,19.1839895 21.4376357,19.0329243 21.5877132,18.9573917 C22.1880233,18.3531309 22.8633721,18.2020657 23.5387209,18.6552613 C24.139031,18.9573917 24.439186,19.7882504 24.139031,20.5435764 Z M24.7393411,16.615881 C24.2140698,16.615881 23.7638372,16.1626854 23.7638372,15.6339572 C23.7638372,15.1052289 24.2140698,14.6520333 24.7393411,14.6520333 C25.2646124,14.6520333 25.714845,15.1052289 25.714845,15.6339572 C25.714845,16.1626854 25.2646124,16.615881 24.7393411,16.615881 Z" id="Shape"></path>
                    </g>
                </g>
            </g>
        </g>
    </g>
</svg>