<?xml version="1.0" encoding="UTF-8"?>
<svg width="44px" height="44px" viewBox="0 0 44 44" version="1.1" xmlns="http://www.w3.org/2000/svg" xmlns:xlink="http://www.w3.org/1999/xlink">
    <!-- Generator: Sketch 49.1 (51147) - http://www.bohemiancoding.com/sketch -->
    <title>Group 10</title>
    <desc>Created with Sketch.</desc>
    <defs></defs>
    <g id="Page-1" stroke="none" stroke-width="1" fill="none" fill-rule="evenodd" opacity="0.821557971">
        <g id="Imersão-Copy" transform="translate(-558.000000, -844.000000)" fill="#E5C688" fill-rule="nonzero">
            <g id="Group-5" transform="translate(536.000000, 820.000000)">
                <g id="Group-10" transform="translate(22.000000, 24.000000)">
                    <path d="M35.3541667,27.7391304 L28.9520833,27.7391304 C28.5517708,27.289 27.9771875,27 27.3333333,27 C26.7711458,27 26.2629167,27.2224783 25.875,27.5765217 C25.4870833,27.2217391 24.9788542,27 24.4166667,27 C23.8544792,27 23.34625,27.2224783 22.9583333,27.5765217 C22.5704167,27.2217391 22.0621875,27 21.5,27 C20.9378125,27 20.4295833,27.2224783 20.0416667,27.5765217 C19.65375,27.2217391 19.1455208,27 18.5833333,27 C17.9394792,27 17.365625,27.289 16.9645833,27.7391304 L4.72916667,27.7391304 C4.32666667,27.7391304 4,28.0702609 4,28.4782609 L4,33.6521739 C4,35.6899565 5.63552083,37.3478261 7.64583333,37.3478261 L13.4791667,37.3478261 L13.4791667,41.0434783 C13.4791667,41.2393478 13.5557292,41.4278261 13.6928125,41.5660435 L14.9375,42.8277391 L14.9375,44 L16.3958333,44 L16.3958333,42.5217391 C16.3958333,42.3258696 16.3192708,42.1373913 16.1821875,41.9991739 L14.9375,40.7374783 L14.9375,32.2670435 C16.1938542,32.5959565 17.125,33.754913 17.125,35.1304348 L17.125,38.826087 L18.5833333,38.826087 L18.5833333,37.3478261 L28.0625,37.3478261 L28.0625,44 L29.5208333,44 L29.5208333,37.3478261 L38.2708333,37.3478261 C38.6733333,37.3478261 39,37.0166957 39,36.6086957 L39,31.4347826 C39,29.397 37.3644792,27.7391304 35.3541667,27.7391304 Z M27.3333333,28.4782609 C27.7351042,28.4782609 28.0625,28.8101304 28.0625,29.2173913 L28.0625,32.173913 C28.0625,32.5811739 27.7351042,32.9130435 27.3333333,32.9130435 C26.9315625,32.9130435 26.6041667,32.5811739 26.6041667,32.173913 L26.6041667,29.2173913 C26.6041667,28.8101304 26.9315625,28.4782609 27.3333333,28.4782609 Z M24.4166667,28.4782609 C24.8184375,28.4782609 25.1458333,28.8101304 25.1458333,29.2173913 L25.1458333,32.173913 C25.1458333,32.5811739 24.8184375,32.9130435 24.4166667,32.9130435 C24.0148958,32.9130435 23.6875,32.5811739 23.6875,32.173913 L23.6875,29.2173913 C23.6875,28.8101304 24.0148958,28.4782609 24.4166667,28.4782609 Z M21.5,28.4782609 C21.9017708,28.4782609 22.2291667,28.8101304 22.2291667,29.2173913 L22.2291667,32.173913 C22.2291667,32.5811739 21.9017708,32.9130435 21.5,32.9130435 C21.0982292,32.9130435 20.7708333,32.5811739 20.7708333,32.173913 L20.7708333,29.2173913 C20.7708333,28.8101304 21.0982292,28.4782609 21.5,28.4782609 Z M17.8541667,29.2173913 C17.8541667,28.8101304 18.1815625,28.4782609 18.5833333,28.4782609 C18.9851042,28.4782609 19.3125,28.8101304 19.3125,29.2173913 L19.3125,32.173913 C19.3125,32.5811739 18.9851042,32.9130435 18.5833333,32.9130435 C18.1815625,32.9130435 17.8541667,32.5811739 17.8541667,32.173913 L17.8541667,29.2173913 Z M14.2083333,30.6956522 C13.8058333,30.6956522 13.4791667,31.0267826 13.4791667,31.4347826 L13.4791667,35.8695652 L7.64583333,35.8695652 C6.43979167,35.8695652 5.45833333,34.8746957 5.45833333,33.6521739 L5.45833333,29.2173913 L16.3958333,29.2173913 L16.3958333,31.2958261 C15.75125,30.9166522 15.0053125,30.6956522 14.2083333,30.6956522 Z M37.5416667,35.8695652 L18.5833333,35.8695652 L18.5833333,35.1304348 C18.5833333,34.8754348 18.5570833,34.6278261 18.51625,34.3846522 C18.5388542,34.3853913 18.5607292,34.3913043 18.5833333,34.3913043 C19.1455208,34.3913043 19.65375,34.1688261 20.0416667,33.8147826 C20.4295833,34.1695652 20.9378125,34.3913043 21.5,34.3913043 C22.0621875,34.3913043 22.5704167,34.1688261 22.9583333,33.8147826 C23.34625,34.1695652 23.8544792,34.3913043 24.4166667,34.3913043 C24.9788542,34.3913043 25.4870833,34.1688261 25.875,33.8147826 C26.2629167,34.1695652 26.7711458,34.3913043 27.3333333,34.3913043 C28.539375,34.3913043 29.5208333,33.3964348 29.5208333,32.173913 L29.5208333,29.2173913 L35.3541667,29.2173913 C36.5602083,29.2173913 37.5416667,30.2122609 37.5416667,31.4347826 L37.5416667,35.8695652 Z" id="Shape"></path>
                    <path d="M42.5328017,18.2087237 L42.5328017,7.19973823 L43.4494569,6.96223474 C43.7735862,6.87767467 43.99945,6.58502331 43.99945,6.24972426 C43.99945,5.91442521 43.7735862,5.62177385 43.4494569,5.53794909 L22.183056,0.0231621053 C22.0627909,-0.00772070178 21.9359258,-0.00772070178 21.8156606,0.0231621053 L0.549259801,5.53794909 C0.225863843,5.62177385 0,5.91442521 0,6.24972426 C0,6.58502331 0.225863843,6.87767467 0.549993125,6.96149943 L10.2665383,9.48138943 L10.2665383,19.8528655 C10.2665383,20.1903704 10.4953355,20.4844924 10.8216647,20.5661113 L15.4782732,21.7330402 C15.3858743,21.9198076 15.3734078,22.1403991 15.4555401,22.3396668 C15.5692054,22.6146708 15.8368687,22.7940852 16.1331317,22.7940852 L17.59978,22.7940852 L17.59978,24.2646951 C17.59978,24.5617583 17.7787111,24.8301446 18.052241,24.9441168 C18.1431732,24.9816174 18.2385054,25 18.3331042,25 C18.5237685,25 18.7114994,24.9249989 18.8515644,24.7845557 L21.999725,21.6278916 L25.1478857,24.7845557 C25.2879506,24.9249989 25.4756816,25 25.6663458,25 C25.7609447,25 25.8562768,24.9816174 25.947209,24.9441168 C26.2207389,24.8301446 26.39967,24.5617583 26.39967,24.2646951 L26.39967,22.7940852 L27.8663183,22.7940852 C28.1625813,22.7940852 28.4302446,22.6146708 28.5439099,22.3404021 C28.6260422,22.1403991 28.6135757,21.9205429 28.5211768,21.7337755 L33.1777853,20.5668466 C33.5041145,20.4844924 33.7329117,20.1903704 33.7329117,19.8528655 L33.7329117,9.48138943 L41.0661533,7.57989088 L41.0661533,18.2087237 L39.676504,20.994794 C39.5731053,21.20215 39.5731053,21.445536 39.676504,21.652892 L41.1431524,24.5941117 C41.2678175,24.8426447 41.5215476,25 41.7994775,25 C42.0774074,25 42.3311375,24.8426447 42.4558026,24.5933764 L43.922451,21.6521566 C44.0258497,21.4448007 44.0258497,21.2014147 43.922451,20.9940587 L42.5328017,18.2087237 Z M18.3331042,21.3234753 L17.9033762,21.3234753 L19.2138265,20.0094854 C19.574622,20.4366976 20.0197498,20.7874381 20.5374766,21.0146473 L19.0664283,22.489669 L19.0664283,22.0587803 C19.0664283,21.652892 18.7378991,21.3234753 18.3331042,21.3234753 Z M21.999725,19.8528655 C20.7868068,19.8528655 19.7997525,18.863145 19.7997525,17.6469507 C19.7997525,16.4307563 20.7868068,15.4410359 21.999725,15.4410359 C23.2126432,15.4410359 24.1996975,16.4307563 24.1996975,17.6469507 C24.1996975,18.863145 23.2126432,19.8528655 21.999725,19.8528655 Z M25.6663458,21.3234753 C25.2615509,21.3234753 24.9330217,21.652892 24.9330217,22.0587803 L24.9330217,22.489669 L23.4619734,21.0146473 C23.9797003,20.7874381 24.424828,20.4366976 24.7856235,20.0094854 L26.0960738,21.3234753 L25.6663458,21.3234753 Z M32.2662633,19.2785923 L27.3581247,20.5087575 L25.5086811,18.6543184 C25.60108,18.3322549 25.6663458,17.9991618 25.6663458,17.6469507 C25.6663458,15.619715 24.0214997,13.970426 21.999725,13.970426 C19.9779503,13.970426 18.3331042,15.619715 18.3331042,17.6469507 C18.3331042,17.9991618 18.39837,18.3322549 18.4907689,18.6550538 L16.6413253,20.5094928 L11.7331867,19.2785923 L11.7331867,9.86154208 L21.816394,12.4762864 C21.8765265,12.4917278 21.9381258,12.4998162 21.999725,12.4998162 C22.0613242,12.4998162 22.1229235,12.4917278 22.183056,12.4762864 L32.2662633,9.86154208 L32.2662633,19.2785923 Z M21.999725,11.0049412 L3.66222089,6.24972426 L21.999725,1.49450727 L40.3372291,6.24972426 L21.999725,11.0049412 Z M41.7994775,22.6205532 L41.1526856,21.3234753 L41.7994775,20.0263974 L42.4462694,21.3234753 L41.7994775,22.6205532 Z" id="Shape"></path>
                    <rect id="Rectangle-path" x="4" y="25" width="1" height="1"></rect>
                    <rect id="Rectangle-path" x="7" y="25" width="1" height="1"></rect>
                    <rect id="Rectangle-path" x="10" y="25" width="1" height="1"></rect>
                </g>
            </g>
        </g>
    </g>
</svg>