<?xml version="1.0" encoding="UTF-8"?>
<svg width="48px" height="44px" viewBox="0 0 48 44" version="1.1" xmlns="http://www.w3.org/2000/svg" xmlns:xlink="http://www.w3.org/1999/xlink">
    <!-- Generator: Sketch 49.1 (51147) - http://www.bohemiancoding.com/sketch -->
    <title>noun_Red Carpet_1651105</title>
    <desc>Created with Sketch.</desc>
    <defs></defs>
    <g id="Page-1" stroke="none" stroke-width="1" fill="none" fill-rule="evenodd">
        <g id="Exclusividade" transform="translate(-921.000000, -382.000000)" fill="#E5C688" fill-rule="nonzero">
            <g id="noun_Red-Carpet_1651105" transform="translate(921.000000, 382.000000)">
                <g id="Group">
                    <path d="M47.4324324,30.6462716 L47.4324324,29.2882469 L45.2027027,29.2882469 L45.2027027,11.3161481 C46.4891892,10.614321 47.3648649,9.24488889 47.3648649,7.67283951 C47.3648649,5.38864198 45.5156757,3.5308642 43.2432432,3.5308642 C40.9708108,3.5308642 39.1216216,5.38864198 39.1216216,7.67283951 C39.1216216,9.24434568 39.9972973,10.614321 41.2837838,11.3161481 L41.2837838,12.1119506 C39.8448649,12.9957531 38.4081081,13.7334321 36.9821622,14.3423704 L36.9821622,11.8599012 L36.9605405,11.8599012 C37.5118919,11.3357037 37.8605405,10.5985679 37.8605405,9.77777778 C37.8605405,8.19269136 36.5772973,6.90311111 35,6.90311111 C33.4227027,6.90311111 32.1394595,8.19269136 32.1394595,9.77777778 C32.1394595,10.5991111 32.4886486,11.3357037 33.0394595,11.8599012 L33.0183784,11.8599012 L33.0183784,15.7297284 C25.8940541,17.6923457 19.292973,16.7574815 14.4594595,15.3217778 L14.4594595,11.8599012 L14.4383784,11.8599012 C14.9897297,11.3357037 15.3383784,10.5985679 15.3383784,9.77777778 C15.3383784,8.19269136 14.0551351,6.90311111 12.4778378,6.90311111 C10.9005405,6.90311111 9.6172973,8.19269136 9.6172973,9.77777778 C9.6172973,10.5991111 9.96594595,11.3357037 10.5172973,11.8599012 L10.4962162,11.8599012 L10.4962162,13.9083457 C8.65783784,13.1380741 7.37945946,12.4329877 6.82486486,12.1092346 L6.82486486,11.3161481 C8.11135135,10.614321 8.98702703,9.24488889 8.98702703,7.67283951 C8.98702703,5.38864198 7.13837838,3.5308642 4.86540541,3.5308642 C2.59243243,3.5308642 0.743783784,5.38864198 0.743783784,7.67283951 C0.743783784,9.24434568 1.61945946,10.614321 2.90594595,11.3161481 L2.90594595,29.2882469 L0.27027027,29.2882469 L0.27027027,30.6462716 L2.90540541,30.6462716 L2.90540541,39.382716 L0.27027027,39.382716 L0.27027027,40.7407407 L47.4324324,40.7407407 L47.4324324,39.382716 L45.2027027,39.382716 L45.2027027,30.6462716 L47.4324324,30.6462716 Z M6.82432432,16.3777778 C7.63135135,16.8134321 8.8827027,17.4375802 10.4956757,18.0861728 L10.4956757,29.2882469 L6.82432432,29.2882469 L6.82432432,16.3777778 Z M14.4594595,19.445284 C17.3659459,20.2774815 20.8502703,20.9228148 24.6827027,20.9228148 C27.3227027,20.9228148 30.1275676,20.6137284 33.0183784,19.8526914 L33.0183784,29.2882469 L14.4594595,29.2882469 L14.4594595,19.445284 Z M36.9821622,18.5272593 C38.407027,17.9476543 39.8437838,17.2490864 41.2837838,16.409284 L41.2837838,29.2877037 L36.9821622,29.2877037 L36.9821622,18.5272593 Z M24.6827027,18.2067654 C29.7891892,18.2067654 35.5097297,17.0600494 41.2837838,13.6937778 L41.2837838,14.828 C25.1335135,24.7475556 9.22,16.2245926 6.82432432,14.825284 L6.82432432,13.6617284 C9.33297297,15.0159506 16.1491892,18.2067654 24.6827027,18.2067654 Z M6.82432432,39.382716 L6.82432432,30.6462716 L41.2837838,30.6462716 L41.2837838,39.382716 L6.82432432,39.382716 Z" id="Shape"></path>
                    <polygon id="Shape" points="22.0021622 1.85288889 20.2556757 1.59812346 19.4718919 0.00977777778 18.6313514 0.0114074074 17.852973 1.59758025 16.5027027 1.79530864 16.0983784 1.8702716 15.8540541 2.66281481 17.1108108 3.8942716 16.8767568 5.27402469 16.8502703 5.57496296 17.2535135 6.01822222 17.7205405 6.01767901 19.0535135 5.31259259 20.2064865 5.92044444 20.3691892 6.01822222 20.8556757 6.01767901 21.2805405 5.54834568 20.9962162 3.89535802 22.2535135 2.65412346"></polygon>
                    <polygon id="Shape" points="28.9091892 7.9422716 27.1589189 7.68750617 26.5659459 6.47940741 26.34 6.09861728 25.5724324 6.10024691 25.3751351 6.43051852 24.7562162 7.68641975 23.4059459 7.88414815 23.0016216 7.95911111 22.7572973 8.75165432 24.0135135 9.9825679 23.7318919 11.6181728 24.1383784 12.1070617 24.6237838 12.1065185 25.9572973 11.4014321 27.1097297 12.009284 27.2724324 12.1070617 27.7772973 12.1065185 28.1805405 11.6192593 27.9005405 9.9825679 29.1540541 8.74567901"></polygon>
                    <rect id="Rectangle-path" x="9.18918919" y="32.0493827" width="25.8108108" height="1.35802469"></rect>
                    <rect id="Rectangle-path" x="36.3064865" y="32.0493827" width="2.34216216" height="1.35802469"></rect>
                    <rect id="Rectangle-path" x="0.27027027" y="42.3703704" width="47.1621622" height="1.35802469"></rect>
                </g>
            </g>
        </g>
    </g>
</svg>