<?xml version="1.0" encoding="UTF-8"?>
<svg width="44px" height="44px" viewBox="0 0 44 44" version="1.1" xmlns="http://www.w3.org/2000/svg" xmlns:xlink="http://www.w3.org/1999/xlink">
    <!-- Generator: Sketch 49.1 (51147) - http://www.bohemiancoding.com/sketch -->
    <title>noun_online course_1262179</title>
    <desc>Created with Sketch.</desc>
    <defs></defs>
    <g id="Page-1" stroke="none" stroke-width="1" fill="none" fill-rule="evenodd">
        <g id="Exclusividade" transform="translate(-923.000000, -491.000000)" fill="#E5C688" fill-rule="nonzero">
            <g id="noun_online-course_1262179" transform="translate(923.000000, 491.000000)">
                <g id="Group">
                    <path d="M42.9622642,7.16826415 L31.5596226,7.16826415 C31.1013585,7.16826415 30.729434,7.54018868 30.729434,7.99845283 C30.729434,8.45671698 31.1013585,8.82864151 31.5596226,8.82864151 L42.1320755,8.82864151 L42.1320755,28.7079245 C42.1320755,29.4567547 41.5247925,30.0656981 40.7788679,30.0656981 L25.3207547,30.0656981 C24.8624906,30.0656981 24.490566,30.4376226 24.490566,30.8958868 C24.490566,31.3541509 24.8624906,31.7260755 25.3207547,31.7260755 L40.7788679,31.7260755 C42.4404906,31.7260755 43.7924528,30.3720377 43.7924528,28.7079245 L43.7924528,7.99845283 C43.7924528,7.54018868 43.4205283,7.16826415 42.9622642,7.16826415 Z" id="Shape"></path>
                    <ellipse id="Oval" cx="4.56437736" cy="4.54196226" rx="1" ry="1"></ellipse>
                    <ellipse id="Oval" cx="7.07901887" cy="4.54196226" rx="1" ry="1"></ellipse>
                    <ellipse id="Oval" cx="9.59366038" cy="4.54196226" rx="1" ry="1"></ellipse>
                    <path d="M19.5090189,30.8958868 C19.5090189,30.4376226 19.1370943,30.0656981 18.6788302,30.0656981 L3.22154717,30.0656981 C2.47520755,30.0656981 1.86792453,29.4563396 1.86792453,28.7079245 L1.86792453,8.82864151 L12.4407925,8.82864151 C12.8990566,8.82864151 13.2709811,8.45671698 13.2709811,7.99845283 C13.2709811,7.54018868 12.8990566,7.16826415 12.4407925,7.16826415 L1.86792453,7.16826415 L1.86792453,3.27343396 C1.86792453,2.52460377 2.47520755,1.91566038 3.22154717,1.91566038 L42.9622642,1.91566038 C43.4205283,1.91566038 43.7924528,1.54373585 43.7924528,1.0854717 C43.7924528,0.627207547 43.4205283,0.255283019 42.9622642,0.255283019 L3.22154717,0.255283019 C1.55992453,0.255283019 0.20754717,1.60932075 0.20754717,3.27343396 L0.20754717,28.7079245 C0.20754717,30.3720377 1.55950943,31.7260755 3.22154717,31.7260755 L18.6788302,31.7260755 C19.1370943,31.7260755 19.5090189,31.354566 19.5090189,30.8958868 Z" id="Shape"></path>
                    <path d="M34.2278491,34.4291698 L24.182566,34.4291698 C23.4362264,34.4291698 22.8293585,33.8198113 22.8293585,33.0713962 L22.8293585,26.2472453 L29.942,22.9829434 C29.9623396,22.9738113 29.9789434,22.9605283 29.9980377,22.9501509 C30.0225283,22.9364528 30.047434,22.9235849 30.0706792,22.9073962 C30.096,22.8899623 30.118,22.8696226 30.1408302,22.8496981 C30.1578491,22.8347547 30.1756981,22.8206415 30.1918868,22.8040377 C30.2138868,22.7812075 30.2329811,22.7558868 30.2520755,22.7309811 C30.2653585,22.7135472 30.2794717,22.6973585 30.2910943,22.6786792 C30.3081132,22.6525283 30.3218113,22.624717 30.3355094,22.5969057 C30.3454717,22.576566 30.3562642,22.5574717 30.3649811,22.5363019 C30.3770189,22.506 30.3853208,22.4748679 30.3940377,22.4433208 C30.399434,22.4233962 30.4060755,22.4038868 30.4102264,22.3831321 C30.4176981,22.3445283 30.4201887,22.3059245 30.4218491,22.2664906 C30.4222642,22.2536226 30.4255849,22.2415849 30.4255849,22.228717 L30.4255849,22.2096226 C30.4255849,22.2063019 30.4255849,22.2033962 30.4255849,22.2000755 L30.426,16.9242264 C30.426,16.9204906 30.4247547,16.9167547 30.4247547,16.9130189 C30.4243396,16.8810566 30.4193585,16.8495094 30.4152075,16.8175472 C30.4123019,16.7938868 30.4110566,16.7698113 30.4060755,16.7469811 C30.4010943,16.724566 30.3923774,16.702566 30.3853208,16.6801509 C30.3757736,16.6490189 30.3670566,16.6178868 30.3541887,16.5884151 C30.3525283,16.5850943 30.3521132,16.5813585 30.3504528,16.5776226 C30.342566,16.5606038 30.3313585,16.5464906 30.3226415,16.5298868 C30.307283,16.5012453 30.2923396,16.4726038 30.2736604,16.4464528 C30.258717,16.425283 30.241283,16.4066038 30.2246792,16.3870943 C30.2064151,16.3659245 30.1889811,16.3443396 30.1690566,16.3252453 C30.1499623,16.3069811 30.1292075,16.2916226 30.1084528,16.2750189 C30.0868679,16.258 30.0661132,16.240566 30.0428679,16.2256226 C30.0216981,16.2123396 29.9996981,16.2015472 29.977283,16.1899245 C29.9515472,16.1766415 29.9266415,16.1629434 29.8996604,16.1521509 C29.876,16.1430189 29.8515094,16.1367925 29.827434,16.1297358 C29.8004528,16.1218491 29.7743019,16.1131321 29.7464906,16.1081509 C29.7166038,16.1027547 29.6863019,16.1010943 29.656,16.0990189 C29.6360755,16.0973585 29.616566,16.0927925 29.5962264,16.0927925 C29.5920755,16.0927925 29.5883396,16.0940377 29.5841887,16.0940377 C29.5538868,16.0944528 29.5235849,16.099434 29.4928679,16.1031698 C29.4679623,16.1064906 29.4426415,16.1073208 29.418566,16.112717 C29.396566,16.1176981 29.3753962,16.1264151 29.3533962,16.1330566 C29.3218491,16.1426038 29.2903019,16.1517358 29.2604151,16.1646038 C29.2570943,16.1662642 29.2533585,16.1666792 29.2496226,16.1683396 L21.9991698,19.4957358 L16.3688302,16.9105283 L22.3549057,14.0808302 C22.7695849,13.8849057 22.9464151,13.3901132 22.7504906,12.975434 C22.554566,12.5611698 22.0597736,12.3839245 21.6450943,12.5798491 L14.0484528,16.1708302 C14.036,16.1766415 14.0260377,16.1853585 14.014,16.1915849 C13.9940755,16.2019623 13.974566,16.2119245 13.9554717,16.2239623 C13.9442642,16.2310189 13.9334717,16.2384906 13.9226792,16.2463774 C13.9060755,16.258 13.8911321,16.271283 13.8753585,16.2841509 C13.86,16.2970189 13.8442264,16.3090566 13.8296981,16.3231698 C13.8201509,16.3323019 13.811434,16.341434 13.8023019,16.3509811 C13.7869434,16.3671698 13.7732453,16.3841887 13.7595472,16.4012075 C13.7479245,16.4153208 13.7363019,16.4290189 13.7255094,16.4439623 C13.7176226,16.4547547 13.710566,16.4663774 13.7035094,16.4775849 C13.6906415,16.4979245 13.6798491,16.5190943 13.6686415,16.5402642 C13.6624151,16.5523019 13.6541132,16.5622642 13.6483019,16.574717 C13.6466415,16.5780377 13.6462264,16.5817736 13.6449811,16.5850943 C13.6395849,16.596717 13.635434,16.6087547 13.6308679,16.6207925 C13.6217358,16.6440377 13.6155094,16.6676981 13.6084528,16.6913585 C13.6034717,16.7087925 13.5964151,16.7258113 13.5926792,16.7436604 C13.5906038,16.7540377 13.5893585,16.7644151 13.587283,16.7743774 C13.5831321,16.7984528 13.5814717,16.8225283 13.5789811,16.8466038 C13.5769057,16.8673585 13.574,16.8885283 13.5735849,16.909283 C13.5735849,16.9130189 13.5723396,16.9167547 13.5723396,16.9209057 L13.5715094,27.3219245 C13.5715094,27.7801887 13.9430189,28.1521132 14.4016981,28.1521132 C14.8599623,28.1521132 15.2318868,27.7801887 15.2318868,27.3219245 L15.232717,18.2155849 L21.652566,21.1631698 C21.762566,21.2138113 21.8808679,21.2391321 21.9987547,21.2391321 C22.1166415,21.2391321 22.2349434,21.2138113 22.3449434,21.1635849 L28.7652075,18.2172453 L28.7647925,21.6949057 L21.9987547,24.8002264 L17.6,22.7803774 C17.1828302,22.5886038 16.6901132,22.7716604 16.4991698,23.1884151 C16.3078113,23.6051698 16.4904528,24.0978868 16.9072075,24.2892453 L21.168566,26.246 L21.168566,33.0701509 C21.168566,34.7342642 22.5205283,36.0883019 24.1821509,36.0883019 L34.227434,36.0883019 C34.9737736,36.0883019 35.5806415,36.6972453 35.5806415,37.4460755 C35.5806415,38.1949057 34.9737736,38.8038491 34.227434,38.8038491 L19.0968302,38.8038491 C18.713283,36.9346792 17.0549811,35.5246038 15.0741509,35.5246038 L10.8538868,35.5246038 C8.58954717,35.5246038 6.74735849,37.3667925 6.74735849,39.6377736 C6.74735849,41.9021132 8.58954717,43.7438868 10.8538868,43.7438868 L15.0741509,43.7438868 C17.0537358,43.7438868 18.7103774,42.3358868 19.0955849,40.4646415 L34.2278491,40.4646415 C35.8894717,40.4646415 37.241434,39.1106038 37.241434,37.4464906 C37.241434,35.7823774 35.8898868,34.4291698 34.2278491,34.4291698 Z M15.0741509,42.0847547 L10.8538868,42.0847547 C9.50524528,42.0847547 8.40773585,40.9876604 8.40773585,39.6319623 C8.40773585,38.2833208 9.50524528,37.1862264 10.8538868,37.1862264 L15.0741509,37.1862264 C16.4227925,37.1862264 17.5203019,38.2833208 17.5203019,39.6390189 C17.5203019,40.9876604 16.4227925,42.0847547 15.0741509,42.0847547 Z" id="Shape"></path>
                    <path d="M14.8566415,38.8050943 L12.5275472,38.8050943 C12.069283,38.8050943 11.6973585,39.1770189 11.6973585,39.635283 C11.6973585,40.0935472 12.069283,40.4654717 12.5275472,40.4654717 L14.8566415,40.4654717 C15.3149057,40.4654717 15.6868302,40.0935472 15.6868302,39.635283 C15.6868302,39.1770189 15.3149057,38.8050943 14.8566415,38.8050943 Z" id="Shape"></path>
                    <path d="M31.7215094,15.9487547 C31.9128679,16.3650943 32.4055849,16.548566 32.8223396,16.3567925 L36.7018113,14.5760377 C36.9965283,14.440717 37.1858113,14.146 37.1858113,13.8213962 C37.1858113,13.4972075 36.9969434,13.2024906 36.7018113,13.0671698 L22.3470189,6.47630189 C22.127434,6.37543396 21.8742264,6.37501887 21.6546415,6.47630189 L7.29818868,13.0642642 C7.0034717,13.1995849 6.81418868,13.4943019 6.81418868,13.8189057 C6.81418868,14.1430943 7.0030566,14.4378113 7.29818868,14.5731321 L11.1938491,16.3617736 C11.3063396,16.4136604 11.4238113,16.4377358 11.5396226,16.4377358 C11.8542642,16.4377358 12.1547925,16.258 12.2946792,15.9537358 C12.4860377,15.5369811 12.3033962,15.0442642 11.8866415,14.8529057 L9.63475472,13.8189057 L22.0008302,8.14415094 L34.3656604,13.8213962 L32.1295472,14.8475094 C31.7127925,15.0388679 31.5301509,15.532 31.7215094,15.9487547 Z" id="Shape"></path>
                </g>
            </g>
        </g>
    </g>
</svg>