<?xml version="1.0" encoding="UTF-8"?>
<svg width="41px" height="44px" viewBox="0 0 41 44" version="1.1" xmlns="http://www.w3.org/2000/svg" xmlns:xlink="http://www.w3.org/1999/xlink">
    <!-- Generator: Sketch 49.1 (51147) - http://www.bohemiancoding.com/sketch -->
    <title>iconCastelo</title>
    <desc>Created with Sketch.</desc>
    <defs></defs>
    <g id="Page-1" stroke="none" stroke-width="1" fill="none" fill-rule="evenodd" opacity="0.821557971">
        <g id="Imersão-Copy" transform="translate(-209.000000, -844.000000)" fill="#E5C688" fill-rule="nonzero">
            <g id="Group-2" transform="translate(185.000000, 820.000000)">
                <g id="iconCastelo" transform="translate(24.000000, 24.000000)">
                    <path d="M36.7931268,42.0106754 L35.6578507,42.0106754 C34.8804992,39.631248 34.5921431,36.5562039 34.4908152,35.0072375 C34.9213328,34.8937893 35.2404402,34.5101552 35.2404402,34.0493961 L35.2404402,31.540598 C35.2404402,31.0614285 34.8971351,30.6618718 34.4404033,30.5673316 L34.4404033,26.617542 C34.7776589,26.5458904 35.0634944,26.3170037 35.1824665,25.9871082 C35.3251322,25.5900394 35.1991024,25.1471932 34.8678962,24.8814855 C31.7973073,22.4199575 30.1075003,18.3885647 29.7939383,17.5899489 L29.7939383,16.5340842 C30.1175827,16.5997648 30.43669,16.6400688 30.7497479,16.6400688 C32.9129227,16.6400688 34.0260175,15.0791604 34.0723964,15.0124847 C34.2745481,14.7223956 34.244301,14.3327905 33.998795,14.0770344 C33.7548014,13.8217759 33.3620927,13.7685349 33.0571007,13.9516443 C32.7016968,14.1646085 32.3825895,14.2636269 32.0523915,14.2641245 C31.6455674,14.2641245 31.2357187,14.108382 30.8021763,13.943683 C30.2012664,13.7157914 29.4970122,13.4545619 28.6868929,13.5595513 C28.5709455,13.5744787 28.4691135,13.6217488 28.3768597,13.6819559 C28.0244805,13.8372009 27.7779663,14.1845117 27.7779663,14.5900394 L27.7779663,17.5914416 C27.6176565,17.9989596 27.1246281,19.1802144 26.3003935,20.5669697 L26.3003935,20.2306057 C26.3003935,19.6812774 25.8487028,19.2354458 25.2921554,19.2354458 L24.739641,19.2354458 L24.739641,18.1950061 C24.8697037,18.253223 25.0078323,18.2925318 25.1520103,18.2925318 C25.2961884,18.2925318 25.4423829,18.2616818 25.5815197,18.197494 C26.0851346,17.9631338 26.3014017,17.3705161 26.0639616,16.8729362 C25.0774007,14.8069842 22.5179884,8.82209255 22.5179884,5.97742796 L22.5179884,5.60075994 C22.8416329,5.66644049 23.1607402,5.70674447 23.4737981,5.70674447 C25.6369728,5.70674447 26.7500676,4.14583616 26.7964466,4.07916045 C26.9985983,3.78907133 26.9683512,3.39946623 26.7228452,3.14371014 C26.4788516,2.88845162 26.0861429,2.83570815 25.7811509,3.01831999 C25.425747,3.23128421 25.1066396,3.33030262 24.7764417,3.3308002 C24.3696176,3.3308002 23.9597688,3.17505767 23.5262265,3.01035871 C22.9253166,2.78246709 22.2210623,2.52123762 21.4109431,2.62622699 C21.2949957,2.64115439 21.1931637,2.68842448 21.1009099,2.74863166 C20.7485307,2.9038766 20.5020165,3.25118741 20.5020165,3.65671507 L20.5020165,5.97742796 C20.5020165,9.40227077 16.9918357,16.7992943 16.9560433,16.8729362 C16.7186032,17.3705161 16.9348703,17.9631338 17.4384852,18.197494 C17.5771179,18.2621794 17.7233124,18.2925318 17.8674905,18.2925318 C18.0121726,18.2925318 18.1503012,18.2527254 18.2803639,18.1950061 L18.2803639,19.2354458 L17.7283536,19.2354458 C17.1718062,19.2354458 16.7201156,19.6812774 16.7201156,20.2306057 L16.7201156,22.7289546 L15.4769581,22.7289546 C15.0761835,22.7289546 14.7132178,22.9633148 14.5529079,23.3260506 C14.5483708,23.3364998 14.1738104,24.1455648 13.4745973,24.7879405 C12.1059142,22.924006 11.2479036,21.1108246 11.0023976,20.5634867 L11.0023976,19.5310083 C11.3255379,19.5966888 11.6451494,19.6369928 11.9582073,19.6369928 C11.9582073,19.6369928 11.9582073,19.6369928 11.9587114,19.6369928 C14.1218861,19.6369928 15.2349809,18.0760845 15.2813599,18.0094088 C15.4835116,17.7193197 15.4527604,17.3297146 15.2077585,17.0739585 C14.9627567,16.8182024 14.5695438,16.7659565 14.2655601,16.9485683 C13.9101562,17.1615325 13.5910488,17.260551 13.2608509,17.2610485 C12.8540268,17.2610485 12.444178,17.105306 12.0101316,16.940607 C11.4087176,16.7127154 10.7024468,16.4504908 9.89535227,16.5564753 C9.77940489,16.5714027 9.67757285,16.6186728 9.58531907,16.6783824 C9.23243576,16.8336274 8.98592155,17.1809382 8.98592155,17.5864658 L8.98592155,20.5644818 C8.65824419,21.2974171 7.26385098,24.2406025 5.01749662,26.5842041 C4.74073528,26.8732981 4.6646133,27.2967386 4.82391491,27.6619623 C4.95498586,27.962003 5.22620189,28.1670059 5.5417804,28.2326865 L5.5417804,30.5658389 C5.08504857,30.6603791 4.74174351,31.0599358 4.74174351,31.5391053 L4.74174351,34.0479034 C4.74174351,34.5086624 5.06085085,34.8927941 5.4913685,35.0062424 C5.39054469,36.553716 5.10269273,39.6267698 4.32382885,42.0091826 L3.18855281,42.0091826 C2.63200541,42.0091826 2.18031477,42.4550142 2.18031477,43.0043425 C2.18031477,43.5536708 2.63200541,43.9995024 3.18855281,43.9995024 L5.03161195,43.9995024 C5.03312431,43.9995024 5.03514078,44 5.03715726,44 C5.0381655,44 5.03917374,43.9995024 5.04018197,43.9995024 L15.6115579,43.9995024 C16.1681053,43.9995024 16.6197959,43.5536708 16.6197959,43.0043425 C16.6197959,40.3343285 18.3529571,37.5100647 19.9913439,37.5100647 C21.6297307,37.5100647 23.3628919,40.3343285 23.3628919,43.0043425 C23.3628919,43.5536708 23.8145826,43.9995024 24.37113,43.9995024 L34.9420017,43.9995024 C34.9435141,43.9995024 34.9445223,44 34.9455306,44 C34.947547,44 34.9490594,43.9995024 34.9510759,43.9995024 L36.794135,43.9995024 C37.3506824,43.9995024 37.802373,43.5536708 37.802373,43.0043425 C37.802373,42.4550142 37.3501783,42.0106754 36.7931268,42.0106754 Z M28.7851961,20.232596 C29.4324849,21.4984394 30.415517,23.1469218 31.7549613,24.6590673 L25.815431,24.6590673 C27.153867,23.1464242 28.1374032,21.4984394 28.7851961,20.232596 Z M25.24376,26.6493871 L32.4239272,26.6493871 L32.4239272,30.5454381 L31.4161933,30.5454381 L31.4161933,29.9025648 C31.4161933,29.3532365 30.9645026,28.9074049 30.4079552,28.9074049 C29.8514078,28.9074049 29.3997172,29.3532365 29.3997172,29.9025648 L29.3997172,30.5454381 L28.170675,30.5454381 L28.170675,29.9025648 C28.170675,29.3532365 27.7189844,28.9074049 27.162437,28.9074049 C26.6058896,28.9074049 26.1541989,29.3532365 26.1541989,29.9025648 L26.1541989,30.5454381 L25.24376,30.5454381 L25.24376,26.6493871 Z M21.5097504,10.8984937 C22.1721628,12.9559868 23.0190827,14.9945719 23.5942826,16.302212 L19.4252182,16.302212 C19.9999139,14.9945719 20.8468339,12.9559868 21.5097504,10.8984937 Z M22.7231649,18.2925318 L22.7231649,19.2359434 L20.2963359,19.2359434 L20.2963359,18.2925318 L22.7231649,18.2925318 Z M18.7360875,21.2257656 L24.2834133,21.2257656 L24.2834133,22.5189759 L23.388602,23.8898087 C23.2832411,24.050527 23.227788,24.237617 23.227788,24.4291853 L23.227788,30.5454381 L19.792721,30.5454381 L19.792721,24.4291853 C19.792721,24.237617 19.7367638,24.050527 19.631907,23.8898087 L18.7365917,22.5189759 L18.7365917,21.2257656 L18.7360875,21.2257656 Z M16.0803885,24.719772 L17.7742285,24.719772 L17.7757408,24.7222599 L17.7757408,26.2742118 L14.8120251,26.2742118 C15.3978114,25.7422988 15.8202631,25.1491835 16.0803885,24.719772 Z M14.5312308,28.2645316 L17.7757408,28.2645316 L17.7757408,30.5454381 L17.1148408,30.5454381 L17.1148408,29.9025648 C17.1148408,29.3532365 16.6631501,28.9074049 16.1066027,28.9074049 C15.5500553,28.9074049 15.0983647,29.3532365 15.0983647,29.9025648 L15.0983647,30.5454381 L14.5312308,30.5454381 L14.5312308,28.2645316 Z M9.99365548,23.0488985 C10.4942457,23.9669336 11.1914423,25.1173384 12.0741547,26.2737142 L7.91265216,26.2737142 C8.79586868,25.117836 9.49306529,23.9669336 9.99365548,23.0488985 Z M7.55775237,28.2645316 L12.5147547,28.2645316 L12.5147547,30.5454381 L11.0018935,30.5454381 L11.0018935,29.9025648 C11.0018935,29.3532365 10.5502029,28.9074049 9.99365548,28.9074049 C9.43710808,28.9074049 8.98541744,29.3532365 8.98541744,29.9025648 L8.98541744,30.5454381 L7.55775237,30.5454381 L7.55775237,28.2645316 Z M6.75771548,32.5357579 L33.2239641,32.5357579 L33.2239641,33.0542362 L6.75771548,33.0542362 L6.75771548,32.5357579 Z M25.3138325,42.0106754 C24.9362474,38.7704347 22.787188,35.5212376 19.9908398,35.5212376 C17.1944916,35.5212376 15.0454322,38.7704347 14.6683512,42.0106754 L6.42852576,42.0106754 C6.48902004,41.7987063 6.54598549,41.5842493 6.60043035,41.3678021 L12.045924,41.3678021 C12.6024714,41.3678021 13.0541621,40.9219704 13.0541621,40.3726421 C13.0541621,39.8233139 12.6024714,39.3774822 12.045924,39.3774822 L7.01632854,39.3774822 C7.31275052,37.655358 7.44936678,36.0322522 7.51036518,35.044556 L32.4703062,35.044556 C32.5313046,36.0322522 32.6684249,37.655358 32.9643428,39.3774822 L27.9342432,39.3774822 C27.3776958,39.3774822 26.9260052,39.8233139 26.9260052,40.3726421 C26.9260052,40.9219704 27.3776958,41.3678021 27.9342432,41.3678021 L33.380241,41.3678021 C33.4346858,41.5842493 33.4921554,41.7987063 33.5526497,42.0106754 L25.3138325,42.0106754 Z M28.9434895,38.3226127 C29.5000369,38.3226127 29.9517275,37.8767811 29.9517275,37.3274528 L29.9517275,36.6731352 C29.9517275,36.1238069 29.5000369,35.6779753 28.9434895,35.6779753 C28.3869421,35.6779753 27.9352514,36.1238069 27.9352514,36.6731352 L27.9352514,37.3274528 C27.9352514,37.8767811 28.3869421,38.3226127 28.9434895,38.3226127 Z M21.5097504,25.0148369 C22.0662978,25.0148369 22.5179884,24.5690053 22.5179884,24.019677 L22.5179884,23.0200389 C22.5179884,22.4707106 22.0662978,22.024879 21.5097504,22.024879 C20.953203,22.024879 20.5015124,22.4707106 20.5015124,23.0200389 L20.5015124,24.019677 C20.5015124,24.5690053 20.9526989,25.0148369 21.5097504,25.0148369 Z M11.037686,35.6774777 C10.4811386,35.6774777 10.0294479,36.1233094 10.0294479,36.6726376 L10.0294479,37.3269553 C10.0294479,37.8762835 10.4811386,38.3221152 11.037686,38.3221152 C11.5942334,38.3221152 12.045924,37.8762835 12.045924,37.3269553 L12.045924,36.6726376 C12.045924,36.1233094 11.5947375,35.6774777 11.037686,35.6774777 Z M10.093471,12.6673904 C10.2905816,12.8619442 10.5486905,12.9589723 10.8067995,12.9589723 C11.0649084,12.9589723 11.3225132,12.8619442 11.5196238,12.667888 C11.9133407,12.2792781 11.9138448,11.6493418 11.5201279,11.2602343 L10.470048,10.2227801 C10.076331,9.83367259 9.43811632,9.83367259 9.04389524,10.2222825 C8.65017829,10.6108925 8.64967417,11.2408287 9.04339112,11.6299362 L10.093471,12.6673904 Z M7.23814091,14.4183743 C7.23814091,14.4183743 7.23814091,14.4183743 7.23814091,14.4183743 C7.79468831,14.4183743 8.24637895,13.9730402 8.24637895,13.4232144 L8.24688307,11.9568462 C8.24688307,11.407518 7.79569654,10.9616863 7.23864503,10.9616863 C7.23864503,10.9616863 7.23864503,10.9616863 7.23864503,10.9616863 C6.68209763,10.9616863 6.23040698,11.4070204 6.23040698,11.9568462 L6.22990286,13.4232144 C6.22990286,13.9725426 6.68108939,14.4178767 7.23814091,14.4183743 Z M9.79402435,8.44094631 C9.79402435,8.99027457 10.245715,9.43610621 10.8022624,9.43610621 L12.2863888,9.43610621 C12.8429362,9.43610621 13.2946268,8.99027457 13.2946268,8.44094631 C13.2946268,7.89161804 12.8429362,7.4457864 12.2863888,7.4457864 L10.8022624,7.4457864 C10.2452109,7.4457864 9.79402435,7.89161804 9.79402435,8.44094631 Z M9.75722366,6.94969919 C10.0153326,6.94969919 10.2734415,6.8526711 10.4705521,6.65811734 L11.5201279,5.62116072 C11.9133407,5.23255078 11.9133407,4.60211698 11.5196238,4.21350703 C11.1254027,3.82489709 10.487188,3.82539467 10.093471,4.21400461 L9.04389524,5.25096123 C8.65068241,5.63957118 8.65068241,6.27000498 9.04439936,6.65861492 C9.2415099,6.8526711 9.49961884,6.94969919 9.75722366,6.94969919 Z M5.43289069,10.2237753 C5.03917374,9.83516533 4.40095906,9.83516533 4.00673798,10.2237753 L2.95615394,11.2602343 C2.56243699,11.6488443 2.56243699,12.2787805 2.95615394,12.667888 C3.15326448,12.8624418 3.4108693,12.9594699 3.66948236,12.9594699 C3.92759129,12.9594699 4.18519611,12.8624418 4.38230665,12.6683856 L5.43289069,11.6319265 C5.82660765,11.242819 5.82660765,10.6123852 5.43289069,10.2237753 Z M7.23864503,5.92070385 C7.79569654,5.92070385 8.24688307,5.47487221 8.24688307,4.92554395 L8.24637895,3.45917583 C8.24637895,2.90984756 7.79468831,2.46401592 7.23814091,2.46401592 C6.68108939,2.46401592 6.22990286,2.90984756 6.22990286,3.45917583 L6.23040698,4.92554395 C6.2309111,5.47536979 6.68209763,5.92070385 7.23864503,5.92070385 Z M1.1846797,8.44094631 C1.1846797,8.99027457 1.63637034,9.43610621 2.19291774,9.43610621 L3.67754826,9.43610621 C4.23409566,9.43610621 4.6857863,8.99027457 4.6857863,8.44094631 C4.6857863,7.89161804 4.23409566,7.4457864 3.67754826,7.4457864 L2.19291774,7.4457864 C1.63586622,7.4457864 1.1846797,7.89161804 1.1846797,8.44094631 Z M4.00673798,6.65811734 C4.2033444,6.8526711 4.46145334,6.94969919 4.71956228,6.94969919 C4.97767122,6.94969919 5.23578015,6.8526711 5.43238657,6.65811734 C5.82610353,6.2695074 5.82610353,5.63957118 5.43238657,5.25096123 L4.38180253,4.21400461 C3.9885897,3.82539467 3.34936678,3.82539467 2.95615394,4.21400461 C2.56243699,4.60261456 2.56243699,5.23255078 2.95615394,5.62116072 L4.00673798,6.65811734 Z M31.7121112,4.194599 C31.9092217,4.38915276 32.1668265,4.48618085 32.4249354,4.48618085 C32.6830444,4.48618085 32.9406492,4.38915276 33.1377597,4.194599 C33.5314767,3.80598905 33.5314767,3.17605283 33.1377597,2.78744289 L32.0871757,1.75048627 C31.6934587,1.36187633 31.0552441,1.36187633 30.6615271,1.75048627 C30.2678102,2.13909621 30.2678102,2.76903243 30.6615271,3.15764238 L31.7121112,4.194599 Z M29.8982909,6.97258787 L31.3829214,6.97258787 C31.9394688,6.97258787 32.3911595,6.52675623 32.3911595,5.97742796 C32.3911595,5.4280997 31.9394688,4.98226806 31.3829214,4.98226806 L29.8982909,4.98226806 C29.3417435,4.98226806 28.8900529,5.4280997 28.8900529,5.97742796 C28.8900529,6.52675623 29.3412394,6.97258787 29.8982909,6.97258787 Z M34.9440182,3.45668793 C34.9440182,3.45668793 34.9440182,3.45668793 34.9440182,3.45668793 C35.5010697,3.45668793 35.9522562,3.01085629 35.9522562,2.46152802 L35.9517521,0.995159904 C35.9517521,0.445831637 35.5000615,0 34.9435141,0 C34.9435141,0 34.9435141,0 34.94301,0 C34.3864626,0 33.935276,0.445831637 33.935276,0.995159904 L33.9357802,2.46152802 C33.9357802,3.01135387 34.3874708,3.45668793 34.9440182,3.45668793 Z M37.4625968,4.48618085 C37.7207058,4.48618085 37.9788147,4.38915276 38.1759252,4.194599 L39.225501,3.15764238 C39.6187139,2.76903243 39.6187139,2.13859863 39.2244928,1.74998869 C38.8317841,1.36187633 38.1925612,1.36137875 37.7988442,1.75048627 L36.7492684,2.78744289 C36.3560556,3.17605283 36.3560556,3.80648663 36.7502767,4.19509658 C36.9468831,4.38915276 37.204992,4.48618085 37.4625968,4.48618085 Z M39.991762,4.98226806 L38.5076356,4.98226806 C37.9510882,4.98226806 37.4993975,5.4280997 37.4993975,5.97742796 C37.4993975,6.52675623 37.9510882,6.97258787 38.5076356,6.97258787 L39.991762,6.97258787 C40.5483094,6.97258787 41,6.52675623 41,5.97742796 C41,5.4280997 40.5488135,4.98226806 39.991762,4.98226806 Z M38.1759252,7.75926177 C37.7827124,7.37015425 37.1434895,7.37015425 36.7502767,7.75876419 C36.3560556,8.14737413 36.3560556,8.77731035 36.7492684,9.16641788 L37.7993483,10.2038721 C37.9964589,10.3984258 38.2540637,10.4954539 38.5126767,10.4954539 C38.7707857,10.4954539 39.0283905,10.3984258 39.2249969,10.2043697 C39.619218,9.81575971 39.619218,9.18582349 39.2260052,8.79671597 L38.1759252,7.75926177 Z M34.94301,11.9548559 C34.9435141,11.9548559 34.9435141,11.9548559 34.94301,11.9548559 C35.5000615,11.9548559 35.9517521,11.5095219 35.9517521,10.959696 L35.9522562,9.49332791 C35.9522562,8.94399964 35.5010697,8.498168 34.9445223,8.498168 C34.9440182,8.498168 34.9440182,8.498168 34.9440182,8.498168 C34.3874708,8.498168 33.9357802,8.94350206 33.9357802,9.49332791 L33.935276,10.959696 C33.935276,11.5090243 34.3864626,11.9543583 34.94301,11.9548559 Z M31.7121112,7.75975935 L30.6615271,8.79621839 C30.2678102,9.18482833 30.2678102,9.81476455 30.6615271,10.2038721 C30.8581335,10.3984258 31.1162425,10.4954539 31.3743514,10.4954539 C31.6324603,10.4954539 31.8900652,10.3984258 32.0871757,10.2043697 L33.1377597,9.16791062 C33.5314767,8.77930067 33.5314767,8.14936445 33.1377597,7.76025693 C32.745051,7.37164699 32.1058281,7.37164699 31.7121112,7.75975935 Z M7.23864503,7.4457864 C6.68209763,7.4457864 6.23040698,7.89112046 6.23040698,8.44094631 C6.23040698,8.99027457 6.68209763,9.43610621 7.23864503,9.43610621 C7.79569654,9.43610621 8.24688307,8.99027457 8.24688307,8.44094631 C8.24688307,7.89112046 7.79569654,7.4457864 7.23864503,7.4457864 Z M13.4655232,9.99339576 C12.9089758,9.99339576 12.4572851,10.4387298 12.4572851,10.9885557 C12.4572851,11.5378839 12.9089758,11.9837156 13.4655232,11.9837156 C14.0225747,11.9837156 14.4737612,11.5378839 14.4737612,10.9885557 C14.4737612,10.4387298 14.0225747,9.99339576 13.4655232,9.99339576 Z M34.9450264,4.98226806 C34.388479,4.98226806 33.9367884,5.42760212 33.9367884,5.97742796 C33.9367884,6.52675623 34.388479,6.97258787 34.9450264,6.97258787 C35.5015738,6.97258787 35.9532645,6.52675623 35.9532645,5.97742796 C35.9532645,5.42760212 35.502078,4.98226806 34.9450264,4.98226806 Z M13.4655232,6.89048718 C14.0225747,6.89048718 14.4737612,6.44465554 14.4737612,5.89532727 C14.4737612,5.34550142 14.0225747,4.90016737 13.4655232,4.90016737 C12.9089758,4.90016737 12.4572851,5.34550142 12.4572851,5.89532727 C12.4572851,6.44465554 12.9084717,6.89048718 13.4655232,6.89048718 Z M1.00823804,9.99339576 C0.451690643,9.99339576 0,10.4387298 0,10.9885557 C0,11.5378839 0.451690643,11.9837156 1.00823804,11.9837156 C1.56528956,11.9837156 2.01647609,11.5378839 2.01647609,10.9885557 C2.01647609,10.4387298 1.56528956,9.99339576 1.00823804,9.99339576 Z M1.00823804,6.89048718 C1.56528956,6.89048718 2.01647609,6.44465554 2.01647609,5.89532727 C2.01647609,5.34550142 1.56528956,4.90016737 1.00823804,4.90016737 C0.451690643,4.90016737 0,5.34550142 0,5.89532727 C0,6.44465554 0.451186524,6.89048718 1.00823804,6.89048718 Z M4.65856388,13.5948794 C4.10201648,13.5948794 3.65032583,14.0407111 3.65032583,14.5900394 C3.65032583,15.1398652 4.10201648,15.5851993 4.65856388,15.5851993 C5.21561539,15.5851993 5.66680192,15.1398652 5.66680192,14.5900394 C5.66680192,14.0407111 5.21561539,13.5948794 4.65856388,13.5948794 Z M9.81872618,13.5948794 C9.26217878,13.5948794 8.81048813,14.0407111 8.81048813,14.5900394 C8.81048813,15.1398652 9.26217878,15.5851993 9.81872618,15.5851993 C10.3757777,15.5851993 10.8269642,15.1398652 10.8269642,14.5900394 C10.8269642,14.0407111 10.3757777,13.5948794 9.81872618,13.5948794 Z M4.65856388,3.28651558 C5.21561539,3.28651558 5.66680192,2.84118153 5.66680192,2.29135568 C5.66680192,1.74202741 5.21561539,1.29619578 4.65856388,1.29619578 C4.10201648,1.29619578 3.65032583,1.74202741 3.65032583,2.29135568 C3.65032583,2.84118153 4.10201648,3.28651558 4.65856388,3.28651558 Z M9.8192303,3.28651558 C10.3762818,3.28651558 10.8274683,2.84118153 10.8274683,2.29135568 C10.8274683,1.74202741 10.3762818,1.29619578 9.8192303,1.29619578 C9.2626829,1.29619578 8.81099225,1.74202741 8.81099225,2.29135568 C8.81099225,2.84118153 9.26217878,3.28651558 9.8192303,3.28651558 Z" id="Shape"></path>
                </g>
            </g>
        </g>
    </g>
</svg>