<?xml version="1.0" encoding="UTF-8"?>
<svg width="45px" height="44px" viewBox="0 0 45 44" version="1.1" xmlns="http://www.w3.org/2000/svg" xmlns:xlink="http://www.w3.org/1999/xlink">
    <!-- Generator: Sketch 49.1 (51147) - http://www.bohemiancoding.com/sketch -->
    <title>iconNasa</title>
    <desc>Created with Sketch.</desc>
    <defs></defs>
    <g id="Page-1" stroke="none" stroke-width="1" fill="none" fill-rule="evenodd" opacity="0.821557971">
        <g id="Imersão-Copy" transform="translate(-909.000000, -735.000000)" fill="#E5C688" fill-rule="nonzero">
            <g id="Group-3" transform="translate(887.000000, 711.000000)">
                <g id="iconNasa" transform="translate(22.000000, 24.000000)">
                    <path d="M30.8637409,19.0912232 C30.7476963,11.9320145 26.4259573,0 22,0 C17.5740427,0 13.2523038,11.9320145 13.1362591,19.0912232 L5.19422311,27.8344069 C5.0476817,27.99574 4.97876883,28.2138716 5.00574296,28.4310076 L6.48401862,40.3630221 C6.53023277,40.7361493 6.84454855,41.0161938 7.21724335,41.0162999 L8.69551902,41.0162999 C9.0602457,41.0161599 9.37034876,40.7476172 9.4257872,40.3839031 L10.8338448,31.1544899 L17.4543023,29.1506572 C17.6183909,29.2625199 17.7846969,29.3691622 17.9532204,29.4676014 L16.1925941,32.4289782 C16.0594396,32.6501195 16.050478,32.9253816 16.1689615,33.1548626 C16.287445,33.3843437 16.5161525,33.5346891 16.7720781,33.5513333 L14.7704929,36.0757002 C14.5928487,36.2995627 14.5581688,36.6063693 14.6812923,36.8648403 C14.8044158,37.1233112 15.0635289,37.287653 15.3477595,37.2875454 L17.2126043,37.2875454 L16.1393761,39.9938754 C16.048386,40.2236664 16.0762934,40.4840304 16.2138712,40.6888817 C16.3514491,40.893733 16.5807787,41.0163907 16.8260352,41.0162999 L20.0649372,41.0162999 L21.3384716,43.5869033 C21.4635068,43.840022 21.7196937,44 22,44 C22.2803063,44 22.5364932,43.840022 22.6615284,43.5869033 L23.9350629,41.0162999 L27.1739648,41.0162999 C27.4192213,41.0163907 27.6485509,40.893733 27.7861288,40.6888817 C27.9237066,40.4840304 27.951614,40.2236664 27.8606239,39.9938754 L26.7873957,37.2875454 L27.9131027,37.2875454 C28.179446,37.2874943 28.4251646,37.1428696 28.5563014,36.9089725 C28.6874382,36.6750754 28.6837106,36.3880822 28.5465438,36.1577328 L27.0010066,33.5587908 L27.1739648,33.5587908 C27.4403081,33.5587398 27.6860268,33.414115 27.8171636,33.1802179 C27.9483004,32.9463209 27.9445728,32.6593277 27.807406,32.4289782 L26.0467796,29.4676014 C26.2153031,29.3691622 26.3816091,29.2625199 26.5456977,29.1506572 L33.1661552,31.1544899 L34.5742128,40.3839031 C34.6296513,40.7476172 34.9397543,41.0161599 35.304481,41.0162999 L36.7827567,41.0162999 C37.1554515,41.0161938 37.4697672,40.7361493 37.5159814,40.3630221 L38.9942571,28.4310076 C39.0212311,28.2138716 38.9523183,27.99574 38.8057769,27.8344069 L30.8637409,19.0912232 Z M22,1.49150182 C23.2262297,1.49150182 24.6985922,3.31784579 26.0061271,5.96600726 L17.993873,5.96600726 C19.3014078,3.31784579 20.7737703,1.49150182 22,1.49150182 Z M17.3123879,7.45750908 L26.6876121,7.45750908 C28.3192885,11.2296573 29.2363514,15.2767559 29.3913783,19.3895236 C29.3913783,26.0505707 25.5596878,29.0842854 22,29.0842854 C18.4403122,29.0842854 14.6086217,26.0505707 14.6086217,19.3895236 C14.7636486,15.2767559 15.6807115,11.2296573 17.3123879,7.45750908 Z M9.96166213,29.8613578 C9.68875943,29.9443093 9.48744371,30.1781838 9.44426564,30.4624331 L8.06133876,39.5247981 L7.86990206,39.5247981 L6.51506241,28.588361 L13.2316079,21.1949865 C13.3991744,23.7261885 14.4113208,26.1255536 16.1031584,28.0022008 L9.96166213,29.8613578 Z M26.6070461,35.7960436 L25.6956892,35.7960436 C25.4504327,35.7959527 25.2211031,35.9186105 25.0835252,36.1234618 C24.9459474,36.3283131 24.91804,36.5886771 25.0090301,36.8184681 L26.0822583,39.5247981 L23.4782757,39.5247981 C23.1967931,39.5232478 22.938872,39.6831438 22.8130516,39.9371984 L22,41.5860536 L21.1869484,39.9371984 C21.061128,39.6831438 20.8032069,39.5232478 20.5217243,39.5247981 L17.9177418,39.5247981 L18.9909699,36.8184681 C19.08196,36.5886771 19.0540526,36.3283131 18.9164748,36.1234618 C18.7788969,35.9186105 18.5495673,35.7959527 18.3043108,35.7960436 L16.8859053,35.7960436 L18.6598361,33.5587908 L20.235678,33.5587908 L19.8210217,34.8146354 C19.7487388,35.0329017 19.7803806,35.272613 19.9067617,35.4641844 L21.3850373,37.7014371 C21.5221276,37.9088715 21.7528906,38.0334636 22,38.0334636 C22.2471094,38.0334636 22.4778724,37.9088715 22.6149627,37.7014371 L24.0932383,35.4641844 C24.2196195,35.272613 24.2512612,35.0329017 24.1789783,34.8146354 L23.764322,33.5587908 L25.2773372,33.5587908 L26.6070461,35.7960436 Z M22.2062195,33.5587908 L22.6622675,34.9406673 L22,35.9451937 L21.334776,34.9429045 L21.7937805,33.5587908 L22.2062195,33.5587908 Z M25.8679083,32.067289 L18.1320917,32.067289 L19.3051035,30.0932864 C21.0451653,30.7363973 22.9548347,30.7363973 24.6948965,30.0932864 L25.8679083,32.067289 Z M36.130098,39.5247981 L35.9386613,39.5247981 L34.5564735,30.4624331 C34.5132954,30.1781838 34.3119797,29.9443093 34.039077,29.8613578 L27.8975808,28.0022008 C29.5894183,26.1255536 30.6015648,23.7261885 30.7691313,21.1949865 L37.4856767,28.588361 L36.130098,39.5247981 Z" id="Shape"></path>
                    <path d="M22,19 C24.7614237,19 27,16.7614237 27,14 C27,11.2385763 24.7614237,9 22,9 C19.2385763,9 17,11.2385763 17,14 C17.0035417,16.7599554 19.2400446,18.9964583 22,19 Z M22,10.4285714 C23.9724455,10.4285714 25.5714286,12.0275545 25.5714286,14 C25.5714286,15.9724455 23.9724455,17.5714286 22,17.5714286 C20.0275545,17.5714286 18.4285714,15.9724455 18.4285714,14 C18.4309329,12.0285334 20.0285334,10.4309329 22,10.4285714 Z" id="Shape"></path>
                    <path d="M19.1612245,26 L20,24.8454212 C18.3474848,23.4245916 17.3778324,21.2771692 17.3605442,19 L16,19 C16.0216833,21.7268079 17.1828497,24.2980155 19.1612245,26 Z" id="Shape"></path>
                    <rect id="Rectangle-path" transform="translate(21.500000, 26.500000) rotate(-61.904000) translate(-21.500000, -26.500000) " x="21" y="26" width="1" height="1"></rect>
                    <path d="M23.5315207,13.8885888 L24.990461,14 C25.0568336,13.2317371 24.7746945,12.4724747 24.2111376,11.9027684 C23.6423532,11.3381918 22.8478616,11.0120849 22.0117302,11 L22,12.3504389 C22.4297493,12.3538255 22.8385992,12.5217159 23.1285547,12.8138693 C23.4185101,13.1060227 23.5634332,13.4961032 23.5285882,13.8906144 L23.5315207,13.8885888 Z" id="Shape"></path>
                    <path d="M41.4255319,8.57153583 L34.7234043,8.57153583 C33.4895767,8.57942487 32.4826936,7.62652021 32.4744681,6.44316378 C32.4662426,5.25980731 33.4597894,4.29411201 34.693617,4.28622297 C35.4859574,4.31836282 35.7264894,4.32621922 35.9826596,4.0898128 C36.1295956,3.95440755 36.2126819,3.76743842 36.212766,3.57200416 C36.2145054,2.59972063 36.8986156,1.7504386 37.8790906,1.50336166 C38.8595655,1.2562847 39.8905951,1.67335628 40.3904255,2.51924564 C40.5372476,2.77096366 40.8285149,2.91219352 41.1269149,2.87635504 C41.2259557,2.86422872 41.3256876,2.85802684 41.4255319,2.85778535 C42.364025,2.85403761 43.2485409,3.27820444 43.8085106,4.00053545 L45,3.14347288 C44.1595331,2.06056271 42.8330898,1.42447095 41.4255319,1.42934773 C40.5461861,0.304220757 39.0602764,-0.22125883 37.6298498,0.0870363166 C36.1994231,0.395331473 35.0907785,1.48000679 34.7978723,2.85778535 L34.7234043,2.85778535 C32.6670249,2.85778535 31,4.45661862 31,6.4288794 C31,8.40114015 32.6670249,9.99997345 34.7234043,9.99997345 L41.4255319,9.99997345 C42.8330619,10.0047358 44.1594544,9.36866837 45,8.2858483 L43.8085106,7.42878573 C43.2480683,8.15057576 42.3638573,8.5745964 41.4255319,8.57153583 Z" id="Shape"></path>
                    <path d="M7.3474924,17.5714602 L0.0146656535,17.5714602 L0.0146656535,19 L7.3474924,19 C8.65737577,18.9951515 9.86510238,18.309976 10.5157334,17.2025723 C11.1663644,16.0951686 11.1610535,14.7337779 10.501801,13.6312227 C9.84254866,12.5286676 8.62951103,11.8524524 7.31962765,11.8573009 L7.27563069,11.8573009 C6.98632406,10.4765925 5.89055855,9.39067971 4.47829497,9.08511776 C3.0660314,8.77955588 1.60134226,9.31148039 0.739148936,10.4430465 L0.029331307,10.4287611 L0,11.8573009 L1.11458966,11.878729 L1.12925532,11.878729 C1.39174913,11.8792336 1.63449803,11.7430269 1.76574468,11.5215941 C2.25698941,10.6745794 3.272369,10.2561953 4.23850262,10.5027014 C5.20463625,10.7492076 5.87905901,11.5987399 5.88092705,12.5715708 C5.88120912,12.766771 5.96300773,12.9534592 6.10751139,13.0887022 C6.35976063,13.3258398 6.59661094,13.3151258 7.3474924,13.2858407 C8.56243487,13.2858407 9.54734042,14.2452094 9.54734042,15.4286505 C9.54734042,16.6120916 8.56243487,17.5714602 7.3474924,17.5714602 Z" id="Shape"></path>
                </g>
            </g>
        </g>
    </g>
</svg>