<?xml version="1.0" encoding="UTF-8"?>
<svg width="27px" height="27px" viewBox="0 0 27 27" version="1.1" xmlns="http://www.w3.org/2000/svg" xmlns:xlink="http://www.w3.org/1999/xlink">
    <!-- Generator: Sketch 49.1 (51147) - http://www.bohemiancoding.com/sketch -->
    <title>linkedin_logo</title>
    <desc>Created with Sketch.</desc>
    <defs></defs>
    <g id="Page-1" stroke="none" stroke-width="1" fill="none" fill-rule="evenodd">
        <g id="Seven-Copy-3" transform="translate(-1121.000000, -811.000000)" fill-rule="nonzero">
            <g id="linkedin_logo" transform="translate(1122.000000, 812.000000)">
                <rect id="Rectangle-path" stroke="#FCFCFC" fill="#000000" x="0" y="0" width="24.887931" height="24.887931" rx="4"></rect>
                <path d="M6.92241379,10.3534483 L9.50862069,10.3534483 L9.50862069,18.6982759 L6.92241379,18.6982759 L6.92241379,10.3534483 Z M8.22413793,6.20689655 C9.05142619,6.21165116 9.71867146,6.8853148 9.71550626,7.71261067 C9.71234107,8.53990653 9.0399606,9.20844483 8.21266018,9.20686906 C7.38535976,9.20529329 6.7155309,8.53419847 6.71551724,7.70689655 C6.71551065,7.30757367 6.87472873,6.92473053 7.15790055,6.64317683 C7.44107237,6.36162314 7.82482165,6.20460159 8.22413793,6.20689655 Z" id="Shape" fill="#FFFFFF"></path>
                <path d="M11.1465517,10.3534483 L13.637931,10.3534483 L13.637931,11.4913793 C14.1533886,10.6100172 15.1184224,10.0908956 16.137931,10.1465517 C18.7241379,10.1465517 19.25,11.8706897 19.25,14.1206897 L19.25,18.6982759 L16.6637931,18.6982759 L16.6637931,14.637931 C16.6637931,13.6724138 16.6637931,12.4224138 15.3189655,12.4224138 C13.9741379,12.4224138 13.7672414,13.4741379 13.7672414,14.5603448 L13.7672414,18.6896552 L11.1810345,18.6896552 L11.1465517,10.3534483 Z" id="Shape" fill="#FFFFFF"></path>
            </g>
        </g>
    </g>
</svg>