<?xml version="1.0" encoding="UTF-8"?>
<svg width="47px" height="40px" viewBox="0 0 47 40" version="1.1" xmlns="http://www.w3.org/2000/svg" xmlns:xlink="http://www.w3.org/1999/xlink">
    <!-- Generator: Sketch 49.1 (51147) - http://www.bohemiancoding.com/sketch -->
    <title>noun_chatting_697701</title>
    <desc>Created with Sketch.</desc>
    <defs></defs>
    <g id="Page-1" stroke="none" stroke-width="1" fill="none" fill-rule="evenodd">
        <g id="Exclusividade" transform="translate(-922.000000, -276.000000)" fill="#E5C688" fill-rule="nonzero">
            <g id="noun_chatting_697701" transform="translate(922.000000, 276.000000)">
                <g id="Group">
                    <path d="M24.8953597,0 C24.5692041,0 24.2391135,0.126453046 23.9903883,0.374679274 C23.493454,0.869770314 23.493454,1.68650925 23.9903883,2.18160029 L25.2549312,3.44009991 C25.4058,3.59007694 25.6494623,3.59007694 25.8003311,3.44009991 L27.0633625,2.18160029 C27.5602969,1.68650925 27.5602969,0.869770314 27.0633625,0.374679274 C26.6415945,-0.0455958086 26.0195097,-0.030304021 25.5283861,0.262879852 C25.3255252,0.140839725 25.1237928,0 24.8953597,0 Z M26.1583911,0.770509836 C26.2870905,0.770509836 26.4165448,0.822039095 26.5179625,0.923100973 C26.7208884,1.12527114 26.7208884,1.43100069 26.5179625,1.63317859 C26.5174589,1.63317761 26.5169554,1.63317761 26.5164518,1.63317859 L25.5268754,2.6197335 L24.5357883,1.63317859 C24.3328624,1.43100069 24.3328624,1.12527114 24.5357883,0.923100973 C24.5362919,0.923101956 24.5367954,0.923101956 24.537299,0.923100973 C24.6384421,0.822155124 24.7648843,0.773531404 24.8953597,0.773531404 C25.0255837,0.773531404 25.1538422,0.822418125 25.2549312,0.923100973 C25.4058,1.073078 25.6494623,1.073078 25.8003311,0.923100973 C25.9017488,0.822039095 26.0296925,0.770509836 26.1583911,0.770509836 Z M10.443013,3.09412562 C9.80677106,3.09412562 9.28270353,3.61819314 9.28271591,4.25442272 C9.28271591,4.8906523 9.80677957,5.41471983 10.443013,5.41471983 C11.0792465,5.41471983 11.6033101,4.8906523 11.6033101,4.25442272 C11.6033225,3.61819314 11.079255,3.09412562 10.443013,3.09412562 Z M10.443013,3.86765702 C10.6612022,3.86765702 10.8297834,4.03628687 10.8297787,4.25442272 C10.8297787,4.47263593 10.6611992,4.64118843 10.443013,4.64118843 C10.2248269,4.64118843 10.0562473,4.47263593 10.0562473,4.25442272 C10.0562427,4.03628687 10.2248238,3.86765702 10.443013,3.86765702 Z M12.6744701,6.18825124 C12.0844033,6.18825124 11.5972673,6.67532694 11.5972673,7.26545405 L11.5972673,12.0698096 C11.5972673,12.6599368 12.0844049,13.1470125 12.6744701,13.1470125 L13.4827501,13.1470125 L13.4827501,14.2997553 L13.4857715,14.2453667 C13.4650331,14.3907133 13.5046998,14.5528161 13.57793,14.6623481 C13.6511603,14.7718802 13.7393637,14.833601 13.8105944,14.8753717 C13.8818211,14.9171424 13.9428458,14.9418714 13.9782929,14.9569553 C14.0137438,14.9724251 14.0336483,15.0127818 13.9405229,14.9191845 C14.0130461,14.9917171 14.1114086,15.0324752 14.2139786,15.0324953 C14.3151086,15.0324953 14.3864274,14.952205 14.4768586,14.9131417 C14.4768586,14.9131417 14.4783693,14.9131417 14.4783693,14.9131417 C14.5943288,14.9130352 14.7041235,14.8609104 14.7775086,14.771126 L16.1085264,13.1500339 L21.3615898,13.1500339 C21.9516566,13.1500339 22.4387934,12.6644689 22.4387926,12.0743418 L22.4387926,7.26847547 C22.4387942,6.67834836 21.9517092,6.19127265 21.3615898,6.19127265 C18.4789206,6.18353734 15.5875902,6.19900796 12.7152615,6.19127265 C12.7016738,6.1905552 12.6880578,6.1905552 12.6744701,6.19127265 L12.6744701,6.18825124 Z M12.6714479,6.96480405 C12.6724553,6.96480799 12.6734627,6.96480799 12.6744701,6.96480405 C15.5638219,6.97253937 18.4684547,6.95706874 21.3600791,6.96480405 C21.3605827,6.96480504 21.3610862,6.96480504 21.3615898,6.96480405 C21.5372967,6.96480405 21.6652628,7.09435355 21.6652612,7.26847547 L21.6652612,12.0743418 C21.6652612,12.2484637 21.5373493,12.3765025 21.3615898,12.3765025 L15.9257193,12.3765025 C15.8097598,12.3766089 15.6999651,12.4287337 15.62658,12.5185182 L14.2955622,14.1396103 L14.4768586,14.1396103 C14.3981273,14.1392958 14.3211746,14.1630142 14.2562815,14.2075967 L14.2562815,12.7602468 C14.2562588,12.5466514 14.0831112,12.3735038 13.8695158,12.3734811 L12.6744701,12.3734811 C12.498716,12.3734811 12.3707987,12.2439316 12.3707987,12.0698096 L12.3707987,7.26545405 C12.3707987,7.09295655 12.4983757,6.96735671 12.6714479,6.96480405 Z M13.9239043,8.50884545 L13.9239043,9.28237685 L20.1136663,9.28237685 L20.1136663,8.50884545 L13.9239043,8.50884545 Z M27.8474696,8.89561115 L27.8474696,9.28237685 L27.8474696,9.66914256 L27.4607039,9.66914256 L27.0739382,9.66914256 L27.0739382,10.442674 L27.4607039,10.442674 L27.8474696,10.442674 L27.8474696,10.8294397 L27.8474696,11.2162054 L28.621001,11.2162054 L28.621001,10.8294397 L28.621001,10.442674 L29.0077667,10.442674 L29.3945324,10.442674 L29.3945324,9.66914256 L29.0077667,9.66914256 L28.621001,9.66914256 L28.621001,9.28237685 L28.621001,8.89561115 L27.8474696,8.89561115 Z M13.9239043,10.0559083 L13.9239043,10.8294397 L20.1136663,10.8294397 L20.1136663,10.0559083 L13.9239043,10.0559083 Z M40.2239721,11.2162054 C39.4809364,11.2162054 38.8702991,11.8269084 38.8702921,12.5698853 C38.8702991,13.3129396 39.4809364,13.9235653 40.2239721,13.9235653 C40.9670078,13.9235653 41.5776451,13.3129396 41.577652,12.5698853 C41.5776451,11.8269084 40.9670078,11.2162054 40.2239721,11.2162054 Z M35.9695494,11.6029711 C35.7559446,11.6029711 35.5827837,11.776132 35.5827837,11.9897368 C35.5827837,12.2033416 35.7559446,12.3765025 35.9695494,12.3765025 C36.1831542,12.3765025 36.3563151,12.2033416 36.3563151,11.9897368 C36.3563151,11.776132 36.1831542,11.6029711 35.9695494,11.6029711 Z M40.2239721,11.9897368 C40.5489628,11.9897368 40.8041175,12.2449248 40.8041206,12.5698853 C40.8041175,12.8949232 40.5489628,13.1500339 40.2239721,13.1500339 C39.8989814,13.1500339 39.6438266,12.8949232 39.6438235,12.5698853 C39.6438266,12.2449248 39.8989814,11.9897368 40.2239721,11.9897368 Z M9.28271591,13.5367996 L9.28271591,13.9235653 L9.28271591,14.310331 L8.89595021,14.310331 L8.50918451,14.310331 L8.50918451,15.0838624 L8.89595021,15.0838624 L9.28271591,15.0838624 L9.28271591,15.4706281 L9.28271591,15.8573938 L10.0562473,15.8573938 L10.0562473,15.4706281 L10.0562473,15.0838624 L10.443013,15.0838624 L10.8297787,15.0838624 L10.8297787,14.310331 L10.443013,14.310331 L10.0562473,14.310331 L10.0562473,13.9235653 L10.0562473,13.5367996 L9.28271591,13.5367996 Z M36.6675408,13.925076 L36.6675408,13.9280974 C36.6544554,13.9274321 36.6413447,13.9274321 36.6282593,13.9280974 C33.0890963,13.9358327 29.5361892,13.9280974 25.9906918,13.9280974 C25.3122638,13.9280974 24.7548547,14.4870589 24.7548547,15.165446 L24.7548547,17.2987002 L4.12181107,17.2987002 C2.73675521,17.2987002 1.61236644,18.4327529 1.61236644,19.8232529 L1.61538801,19.7779286 L0.0411307718,33.6954511 L0.0411307718,33.7120696 L0.0396199102,33.7120696 L0.0396199102,33.7135804 L0.000339057285,36.3861917 C-0.0248881224,38.0793754 1.36097554,39.4501016 3.04007575,39.4501016 L43.3724862,39.4501016 C45.0515468,39.4501016 46.413734,38.0787658 46.413734,36.3922353 L46.413734,33.719624 C46.413734,33.719624 46.413734,33.7181132 46.413734,33.7181132 L46.413734,33.6954511 L44.839477,19.7779286 L44.8409877,19.8232529 C44.8409877,18.4327529 43.7166048,17.2987002 42.3315427,17.2987002 L37.9033779,17.2987002 L37.9033779,15.1624238 C37.9033779,14.4839594 37.3459263,13.925076 36.6675408,13.925076 Z M16.6312643,14.310331 C16.4176595,14.310331 16.2444986,14.4834919 16.2444986,14.6970967 C16.2444986,14.9107015 16.4176595,15.0838624 16.6312643,15.0838624 C16.8448691,15.0838624 17.01803,14.9107015 17.01803,14.6970967 C17.01803,14.4834919 16.8448691,14.310331 16.6312643,14.310331 Z M25.9906918,14.7016288 L25.9906918,14.704651 C29.5476568,14.704651 33.1136598,14.7123863 36.6675408,14.704651 C36.6685479,14.7046549 36.6695551,14.7046549 36.6705622,14.704651 C36.9309352,14.704651 37.1298465,14.9034509 37.1298465,15.165446 L37.1298465,21.1935522 C37.1298465,21.4570936 36.9304486,21.6573686 36.6675408,21.6573686 L35.1990394,21.6573686 C34.985444,21.6573913 34.8122964,21.8305389 34.8122737,22.0441343 L34.8122737,23.9417035 C34.8108813,23.9649095 34.7982588,23.9764521 34.7745037,23.9764521 C34.7636974,23.9764521 34.7533561,23.9682697 34.7457987,23.962855 C34.1531398,23.2473384 33.5624527,22.5221721 32.9706045,21.7993843 C32.8972194,21.7095999 32.7874247,21.6574751 32.6714652,21.6573686 L25.9906918,21.6573686 C25.7277801,21.6573686 25.5283861,21.4570936 25.5283861,21.1935522 L25.5283861,15.165446 C25.5283861,14.9018265 25.7278226,14.7016288 25.9906918,14.7016288 Z M14.7684436,14.7786803 C14.6967697,14.8612509 14.5822004,14.8704389 14.4829014,14.911631 L14.7684436,14.7786803 Z M27.0739382,16.2396274 L27.0739382,17.022223 L35.5827837,17.022223 L35.5827837,16.2396274 L27.0739382,16.2396274 Z M27.0739382,17.7957544 L27.0739382,18.5692858 L35.5827837,18.5692858 L35.5827837,17.7957544 L27.0739382,17.7957544 Z M4.12181107,18.0722316 L6.77780386,18.0722316 L5.73232759,34.7635889 C5.72565738,34.8702827 5.76344039,34.9749797 5.83670733,35.0528258 C5.90997427,35.1306719 6.01219135,35.1747251 6.11909329,35.1745275 L40.0124592,35.1745275 C40.1190986,35.1743081 40.2209165,35.1300729 40.2938517,35.0522754 C40.3667869,34.9744778 40.4043681,34.8700207 40.3977142,34.7635889 L39.3537493,18.0722316 L42.3315427,18.0722316 C43.2985111,18.0722316 44.0674563,18.8449678 44.0674563,19.8232529 L44.0674563,19.8444044 L45.6386919,33.7317104 C45.6328904,35.1386867 44.6233113,36.5387831 42.7757191,36.5387831 L25.430184,36.5387831 L22.8240476,36.5387831 L3.3603661,36.5387831 C2.43470659,36.5387831 1.83486354,36.1991495 1.42653758,35.6836682 C1.01982158,35.170198 0.819286502,34.4552252 0.817683745,33.7271775 L2.38589784,19.8459151 L2.38589784,19.8232529 C2.38589784,18.8449678 3.15485187,18.0722316 4.12181107,18.0722316 Z M7.55284597,18.0722316 L24.7548547,18.0722316 L24.7548547,21.1935522 C24.7548547,21.8719385 25.3123063,22.4309 25.9906918,22.4309 L32.488658,22.4309 C33.0426721,23.1078947 33.5969885,23.7892622 34.1550744,24.4629307 C34.1565564,24.4654659 34.1580672,24.4679842 34.1596065,24.470485 C34.3134032,24.6490934 34.5379384,24.7514942 34.7745037,24.7514942 C35.2125808,24.7516489 35.5773225,24.3930421 35.5858051,23.9553007 C35.5858297,23.9527826 35.5858297,23.9502644 35.5858051,23.9477464 L35.5858051,23.9386821 L35.5858051,22.4278786 L36.6675408,22.4278786 C37.3459247,22.4278786 37.9033779,21.8689171 37.9033779,21.19053 L37.9033779,18.0722316 L38.5787071,18.0722316 L39.6000099,34.4009961 L6.5300317,34.4009961 L7.55284597,18.0722316 Z M27.0739382,19.3428172 L27.0739382,20.1163486 L31.7151266,20.1163486 L31.7151266,19.3428172 L27.0739382,19.3428172 Z M10.518553,20.1163486 C9.84016751,20.1163486 9.28271591,20.6752328 9.28271591,21.3536972 L9.28271591,27.3818035 C9.28271591,28.0601897 9.84016905,28.6191513 10.518553,28.6191513 L11.6002887,28.6191513 L11.6002887,30.1057819 C11.5790963,30.268232 11.5419258,30.4773864 11.7166201,30.6980169 C11.8078488,30.8132731 11.9417023,30.8799028 12.059573,30.909529 C12.1774429,30.9389232 12.290182,30.9428396 12.4206551,30.9397455 C12.5200746,30.937367 12.6147585,30.896788 12.6850458,30.8264347 C13.790416,29.7210583 14.5786167,28.7509247 14.6853493,28.620662 L21.2346827,28.620662 C21.9130682,28.620662 22.4705198,28.0617012 22.4705198,27.3833142 L22.4705198,21.3552079 C22.4705198,20.6768209 21.9131107,20.1178593 21.2346827,20.1178593 C17.6765976,20.1178593 14.1111067,20.1255947 10.5593452,20.1178593 C10.5457573,20.1171419 10.5321409,20.1171419 10.518553,20.1178593 L10.518553,20.1163486 Z M10.5155316,20.8929022 C10.5165387,20.8929062 10.5175459,20.8929062 10.518553,20.8929022 C14.0855237,20.9006375 17.6646225,20.8929022 21.2346827,20.8929022 C21.4975526,20.8929022 21.6969884,21.0930991 21.6969884,21.3567186 L21.6969884,27.3848249 C21.6969884,27.648367 21.4975944,27.8486413 21.2346827,27.8486413 L14.5146286,27.8486413 C14.3986691,27.8487477 14.2888744,27.9008725 14.2154893,27.990657 C14.2154893,27.990657 13.337074,29.0199179 12.3738201,30.0211769 L12.3738201,28.2323856 C12.3737974,28.0187902 12.2006498,27.8456426 11.9870544,27.8456199 L10.518553,27.8456199 C10.2556451,27.8456199 10.0562473,27.6453448 10.0562473,27.3818035 L10.0562473,21.3536972 C10.0562473,21.0917021 10.2551586,20.8954549 10.5155316,20.8929022 Z M11.6033101,22.4278786 L11.6033101,23.2104743 L20.1121556,23.2104743 L20.1121556,22.4278786 L11.6033101,22.4278786 Z M30.7149745,23.9794735 L30.1680638,24.5263842 L30.3946846,24.7530049 L30.1680638,24.9796257 L30.7149745,25.5265363 L30.9415952,25.2999156 L31.168216,25.5265363 L31.7151266,24.9796257 L31.4885059,24.7530049 L31.7151266,24.5263842 L31.168216,23.9794735 L30.9415952,24.2060943 L30.7149745,23.9794735 Z M11.6033101,23.9840057 L11.6033101,24.7575371 L20.1121556,24.7575371 L20.1121556,23.9840057 L11.6033101,23.9840057 Z M3.89065815,24.5958814 L3.57338937,27.8018063 L4.34238835,27.8788577 L4.66116791,24.6714214 L3.89065815,24.5958814 Z M15.4709671,25.5310685 L15.4709671,26.3045999 L20.1121556,26.3045999 L20.1121556,25.5310685 L15.4709671,25.5310685 Z M41.9583749,25.8513592 C41.1568827,25.8343415 40.6001056,26.4788046 40.7164942,27.2745363 C40.8328767,28.0701134 41.581457,28.7412045 42.3829106,28.7581448 C43.1843642,28.7751625 43.7396012,28.1321336 43.6232798,27.3364792 C43.506943,26.5407474 42.7598679,25.8682995 41.9583749,25.8513592 Z M42.0701742,26.6203577 C42.4447165,26.628093 42.7904271,26.9347959 42.846727,27.3198598 C42.9030169,27.7049238 42.6456336,27.9970363 42.2711106,27.9891463 C41.8965876,27.981411 41.5523839,27.6761414 41.4960685,27.2911549 C41.4397399,26.9060909 41.6956311,26.6124685 42.0701742,26.6203577 Z M3.71087251,28.9092255 C3.43262089,28.9286297 3.21676883,29.1616442 3.21683974,29.4425391 C3.21674185,29.5845432 3.27276325,29.7207485 3.37253827,29.8210904 C3.47231329,29.9214323 3.6076382,29.9776604 3.74864258,29.9773633 C4.04172308,29.9771405 4.27913754,29.7376969 4.27893464,29.4425391 C4.27831036,29.1479712 4.04113787,28.9094473 3.74864258,28.9092255 C3.73605655,28.9087742 3.72345855,28.9087742 3.71087251,28.9092255 Z M17.4047957,30.1677248 C17.1911909,30.1677248 17.01803,30.3408857 17.01803,30.5544905 C17.01803,30.7680953 17.1911909,30.9412562 17.4047957,30.9412562 C17.6184005,30.9412562 17.7915614,30.7680953 17.7915614,30.5544905 C17.7915614,30.3408857 17.6184005,30.1677248 17.4047957,30.1677248 Z M45.6402026,35.9284189 L45.6402026,36.3922353 C45.6402026,37.6664736 44.6334345,38.6765702 43.3724862,38.6765702 L3.04007575,38.6765702 C1.77916874,38.6765702 0.754990958,37.6638892 0.773870462,36.3967674 L0.778402892,36.0961174 C0.794291227,36.1172418 0.804254543,36.1418254 0.82070539,36.1625932 C1.36494468,36.8496438 2.23330531,37.3108038 3.3603661,37.3108038 L22.8240476,37.3108038 L25.430184,37.3108038 L42.7757191,37.3108038 C44.0381974,37.3108038 45.014087,36.7391053 45.6402026,35.9284189 Z" id="Shape"></path>
                </g>
            </g>
        </g>
    </g>
</svg>