<?xml version="1.0" encoding="UTF-8"?>
<svg width="91px" height="133px" viewBox="0 0 91 133" version="1.1" xmlns="http://www.w3.org/2000/svg" xmlns:xlink="http://www.w3.org/1999/xlink">
    <!-- Generator: Sketch 49.1 (51147) - http://www.bohemiancoding.com/sketch -->
    <title>Group Copy 2</title>
    <desc>Created with Sketch.</desc>
    <defs></defs>
    <g id="Page-1" stroke="none" stroke-width="1" fill="none" fill-rule="evenodd">
        <g id="Home-Copy-2" transform="translate(-675.000000, -406.000000)" fill-rule="nonzero">
            <g id="Group-Copy-2" transform="translate(675.000000, 406.000000)">
                <g id="prototipos_elite-01">
                    <polygon id="Shape" fill="#E5C688" points="31.8969072 8.71309864 8.65327298 8.71309864 8.65327298 11.7697369 30.1835193 11.7697369 30.1835193 20.5029892 8.63334986 20.5029892 8.63334986 23.1901438 30.1635962 23.1901438 30.1635962 31.9233961 8.63334986 31.9233961 8.63334986 34.9800344 31.8769841 34.9800344 31.8769841 43.7132867 0 43.7132867 0 0 31.8769841 0"></polygon>
                    <polygon id="Shape" fill="#E5C688" points="69.402268 43.7132867 38.4639175 43.7132867 38.4639175 0 47.3092784 0 47.3092784 35.0083306 60.5773196 35.0083306 60.5773196 26.256248 69.4226804 26.256248"></polygon>
                    <polygon id="Shape" fill="#E5C688" points="91 8.74265734 86.5403734 8.74265734 86.5403734 34.9706294 91 34.9706294 91 43.7132867 73.1752577 43.7132867 73.1752577 34.9706294 77.6348844 34.9706294 77.6348844 8.74265734 73.1752577 8.74265734 73.1752577 0 91 0"></polygon>
                    <polygon id="Shape" fill="#E5C688" points="45.0309278 89.8730971 28.0050271 89.8730971 28.0050271 95.2715516 42.8227201 95.2715516 42.8227201 106.102201 28.0050271 106.102201 28.0050271 133 16.9983842 133 16.9983842 106.088705 2.20820774 106.088705 2.20820774 95.2513074 17.0259008 95.2513074 17.0259008 89.8528529 0 89.8528529 0 79.0559441 45.0309278 79.0559441"></polygon>
                    <polygon id="Shape" fill="#E5C688" points="91 89.8083521 61.5379748 89.8083521 61.5379748 93.5902336 88.8052193 93.5902336 88.8052193 104.376348 61.5379748 104.376348 61.5379748 107.659372 88.8052193 107.659372 88.8052193 118.445487 61.5379748 118.445487 61.5379748 122.213885 91 122.213885 91 133 50.6597938 133 50.6597938 79.0559441 91 79.0559441"></polygon>
                    <path d="M2.61406413,44.7935994 C3.40106058,44.625946 4.21178577,44.5983481 5.00849942,44.7120903 C5.83132422,44.8238005 6.63614382,45.0406925 7.4029347,45.3573701 C8.1681688,45.6716682 8.88818009,46.0850609 9.54424397,46.5867977 C10.1767111,47.0646491 10.7326005,47.6348922 11.1929837,48.2781099 C11.6288834,48.8901852 11.9360173,49.5832351 12.0960279,50.3158353 C12.2561825,51.0726217 12.2232588,51.8571526 12.0002505,52.5980878 C11.6904913,53.662187 11.1192291,54.6331706 10.3378282,55.4237338 C9.68326836,56.0759184 8.93093972,56.6235358 8.1075828,57.0471217 C7.23172925,57.4929288 6.28923645,57.7956767 5.31635538,57.9437209 C5.14676713,58.159817 5.02127981,58.4066932 4.94692822,58.6705097 C4.81466418,59.0418285 4.67783931,59.4946564 4.5364536,60.0289933 C4.3950679,60.5633302 4.24456054,61.145214 4.08493152,61.7746448 C3.9253025,62.4086038 3.77935597,63.0516194 3.64709193,63.7036915 C3.30959057,65.2342498 2.96296756,66.9414109 2.60722289,68.8251748 C2.32487373,68.7464753 2.08143872,68.5676191 1.92309852,68.3225359 C1.69058486,67.9887697 1.51493012,67.6193148 1.403164,67.2289566 C1.21603258,66.5451239 1.12622519,65.8386514 1.1363555,65.1300993 C1.12485698,64.5082719 1.15685975,63.8864022 1.23213291,63.2689768 C1.31878866,62.476528 1.43052898,61.5912495 1.56735385,60.6131413 C1.70417872,59.635033 1.86836857,58.5912648 2.05992339,57.4818365 C2.24691739,56.3724082 2.43391138,55.2765647 2.62090538,54.1943061 C3.07698829,51.65847 3.59464239,48.9165972 4.17386769,45.9686877 C3.08382953,45.8962352 2.25603905,45.8124621 1.69049624,45.7173682 C1.49430736,45.6906063 1.30162397,45.6427792 1.11583177,45.5747274 C0.974446064,45.5203881 0.9174357,45.4547281 0.944800675,45.3777473 C0.97216565,45.3007666 1.11811218,45.2124651 1.38264027,45.112843 C1.78390435,44.9740623 2.19568703,44.8673086 2.61406413,44.7935994 Z M10.0299723,52.6592196 C10.1733933,52.3024199 10.2499048,51.9225924 10.2557333,51.5384706 C10.2558006,51.1928792 10.2027401,50.849302 10.0983847,50.5196079 C9.99652429,50.1971822 9.84910903,49.8907344 9.66054512,49.6094238 C9.48184963,49.3433699 9.28287034,49.0913116 9.06535692,48.8554654 C8.52934307,48.2619879 7.90112748,47.7574987 7.20453864,47.3611334 L5.59684637,56.0350514 C6.20455744,55.958653 6.79459623,55.7794586 7.34136351,55.5052428 C7.87569896,55.2309242 8.36853197,54.8833728 8.80538966,54.4727952 C9.34280927,53.9622693 9.76083605,53.3408636 10.0299723,52.6524272 L10.0299723,52.6592196 Z" id="Shape" fill="#C2C2C2"></path>
                    <path d="M11.2921806,56.7290193 C10.9833176,57.0825642 10.8024121,57.2593366 10.7494641,57.2593366 C10.6965162,57.2593366 10.6965162,57.1618852 10.7494641,56.9669822 C10.8525276,56.7077204 10.971913,56.4556265 11.1068628,56.2122999 L11.5701573,55.3420356 L11.9077005,54.6961363 C11.9871224,54.5397607 11.9937409,54.5125649 11.9077005,54.6281469 C12.0718967,54.3781757 12.3271456,54.2066377 12.6158793,54.1522211 C12.8875886,54.1059373 13.1648633,54.1059373 13.4365725,54.1522211 C13.7623304,54.2130733 14.0815306,54.3064345 14.3896356,54.4309776 L11.2789436,62.4741235 C11.4409828,61.9968853 11.6287983,61.5292992 11.8415156,61.0735419 C12.1239046,60.4389742 12.4746848,59.7341508 12.8938561,58.9590716 C13.3316316,58.1507645 13.8087678,57.3656251 14.3234507,56.6066384 C14.824775,55.8697673 15.3968327,55.1864484 16.031022,54.5669564 C16.5699225,54.0206025 17.1969281,53.5743331 17.8842002,53.2479621 C18.484522,52.9616093 19.1721158,52.9370836 19.7903263,53.1799727 C20.1614097,53.3257014 20.5219254,53.4983775 20.8691408,53.6966921 C21.0751555,53.811477 21.2626825,53.9582501 21.4250942,54.1318243 C21.5222807,54.2278804 21.5772363,54.3604245 21.5773196,54.498967 C21.5679778,54.6100552 21.5125105,54.7116274 21.4250942,54.7777236 C21.0927903,55.0453445 20.6980057,55.2188159 20.2800949,55.2808451 C20.4001242,55.1602598 20.5087154,55.0282189 20.604401,54.8865066 C20.657114,54.8041919 20.6716536,54.7021296 20.644112,54.6077501 C20.617638,54.5125649 20.4940928,54.4649723 20.2734764,54.4649723 C19.4671398,54.4677068 18.6746646,54.6805844 17.9702406,55.0836759 C17.2005073,55.5213562 16.4979743,56.0735039 15.8854151,56.7222204 C15.2047938,57.4372037 14.5848178,58.2105567 14.0322369,59.03386 C13.4730363,59.8610464 12.9582332,60.7189906 12.490128,61.6038592 C11.2826733,63.9044956 10.2621657,66.3036036 9.43900243,68.7767408 C9.13712601,68.9046892 8.79032677,68.7710938 8.6447832,68.4707885 C8.48273374,68.0688583 8.41691317,67.6328574 8.45284689,67.1993868 C8.48301949,66.5544569 8.56492526,65.9131824 8.69773115,65.2820857 C8.84333801,64.5523328 9.0242435,63.7953842 9.24044762,63.0112398 C9.73462847,61.175526 10.4185395,59.0814525 11.2921806,56.7290193 Z" id="Shape" fill="#C2C2C2"></path>
                    <path d="M27.4452257,54.3239222 C27.0628621,54.059965 26.5754736,53.9991351 26.1398009,54.1609948 C25.8915047,54.2504685 25.6565505,54.3732463 25.4413987,54.5259522 C25.1422058,54.73711 24.8664977,54.9796226 24.6189811,55.2493498 C24.2737959,55.6254135 23.9594795,56.0286023 23.6790752,56.4550125 C22.5894537,58.1798479 21.7314157,60.0400909 21.1269698,61.9880267 C20.8958115,62.8717539 20.7472273,63.77498 20.6831254,64.6861043 C20.6317395,65.4202739 20.7135533,66.157675 20.924629,66.8628142 C21.5109851,66.7044229 22.0593194,66.4295687 22.5368286,66.0546944 C23.1025638,65.5961585 23.6129362,65.0734478 24.0576484,64.4971085 C24.702527,63.6425142 25.2233111,62.7012774 25.6045768,61.7012745 C26.0071096,60.7618985 26.3344895,59.7921635 26.5836454,58.8011669 C26.7291391,58.2201408 26.835982,57.630142 26.9034744,57.035034 C26.9381921,56.6345974 26.8824282,56.2314871 26.7402963,55.8554397 C26.6848278,55.7210214 26.7046885,55.567337 26.7925133,55.4513798 C26.9312417,55.3144377 27.1016121,55.2137155 27.2885747,55.1581105 C27.6768668,55.0437953 28.0783729,54.9802664 28.4830384,54.9691147 C28.9229974,54.9649628 29.3610178,54.9102943 29.7884632,54.8061873 C30.0456911,54.7397871 30.2935024,54.6412528 30.5260282,54.512918 C30.6949507,54.4171376 30.834782,54.2775211 30.9307099,54.1088581 C30.9865065,54.3175317 30.9583979,54.5397163 30.8523844,54.7279822 C30.7177704,54.9336112 30.5395013,55.1071565 30.3302145,55.2363156 C29.973302,55.4510013 29.5753011,55.5886446 29.1618593,55.6403756 C28.6222837,55.7489938 28.2415348,55.8380608 28.0196126,55.9075765 C27.8544457,55.9397957 27.7062724,56.0299501 27.6018767,56.1617432 C27.5465801,56.2862383 27.5465801,56.4282738 27.6018767,56.5527689 C27.6671872,56.7654259 27.7130646,56.9835542 27.7389463,57.2044785 C27.7505472,57.676458 27.6866484,58.1472625 27.5496597,58.599137 C27.3556024,59.3651581 27.1136239,60.1182745 26.825149,60.8540521 C26.4846745,61.7420393 26.0990735,62.612115 25.669848,63.4608903 C25.253616,64.2938655 24.7666512,65.0896908 24.2142994,65.8396302 C23.761655,66.4708417 23.2081741,67.0234723 22.5759913,67.4754212 C22.0896521,67.8581864 21.4506372,67.9886931 20.8528306,67.8273444 C20.3035162,67.6843031 19.8253936,67.3459601 19.5082431,66.8758484 C19.1673094,66.3616689 18.9444218,65.7786005 18.8555307,65.1683694 C18.7469049,64.4432821 18.7337389,63.7071225 18.816368,62.9786252 C18.9855445,61.3433936 19.3968843,59.7422918 20.0369401,58.2276625 C20.330538,57.5242255 20.6820305,56.8462988 21.0878071,56.2008458 C21.523986,55.46088 22.0823057,54.799858 22.7391694,54.2457171 C23.1829852,53.882727 23.6643729,53.5681209 24.1751367,53.3072553 C24.617268,53.1199272 25.0916915,53.0203185 25.5719412,53.013986 C25.9662328,53.0712375 26.3534417,53.1695292 26.7272421,53.3072553 C26.9732531,53.4021114 27.1958842,53.5488222 27.3799545,53.7373836 C27.5287263,53.8972003 27.5552333,54.1353965 27.4452257,54.3239222 Z" id="Shape" fill="#C2C2C2"></path>
                    <path d="M54.4917502,75.7991459 C54.9248268,76.2093245 55.2136777,76.7466461 55.3157558,77.3319642 C55.3817399,77.7257989 55.3535144,78.1295061 55.2333552,78.5105311 C55.11891,78.8011988 54.9907314,78.9465327 54.8488193,78.9465327 C54.7069072,78.9465327 54.6931738,78.7035526 54.807619,78.2175925 C54.9147766,77.7211571 54.7967799,77.2030797 54.4848835,76.8005872 C54.1029671,76.2769209 53.6393725,75.8169847 53.111541,75.4380821 C52.5024859,74.9801411 51.859805,74.5679722 51.1888614,74.205015 C50.4701455,73.8098885 49.7834742,73.4533663 49.1288476,73.1354485 C48.7408692,72.9687065 48.3387313,72.8364783 47.9271728,72.740322 C47.469392,72.6267799 46.9749887,72.5291337 46.4439629,72.4473834 C45.9129371,72.3656331 45.365889,72.2997787 44.8028185,72.2498201 L43.1616742,72.1203822 C41.898199,72.0431735 40.5775013,72.0250068 39.1995809,72.0658819 C38.4859213,73.2250796 37.5991887,74.2701957 36.5696299,75.165581 C35.3874202,76.2273892 34.1248153,77.1976168 32.7929379,78.0677169 C31.4477528,78.9517703 30.0488629,79.7526285 28.6042431,80.4657259 C27.3616554,81.094048 26.0713399,81.6247794 24.7451506,82.0530443 C23.6621545,82.4214668 22.5359636,82.6504225 21.3941947,82.7342969 C20.3990649,82.8015475 19.4000563,82.7878768 18.4071747,82.6934217 C17.603766,82.6181509 16.8086822,82.4722439 16.0312921,82.2574201 C15.5163584,82.122191 15.0152188,81.9397378 14.5343487,81.712418 C14.2896288,81.5824628 14.0594569,81.427181 13.8476774,81.2491663 C13.607113,81.0567869 13.4144427,80.8120219 13.284607,80.5338511 C13.1488319,80.2303865 13.1035555,79.8946758 13.1541394,79.5664725 C13.2469464,79.1044003 13.4520135,78.671779 13.7515434,78.3061553 C14.214913,77.7124184 14.747337,77.1750492 15.3377541,76.7052118 C16.2413153,75.9817867 17.201062,75.3302998 18.20804,74.7568295 C19.137713,74.2303752 20.1064288,73.7748911 21.1057928,73.3943244 C22.1360515,72.9909436 23.1883124,72.6452323 24.257614,72.3588205 C25.333399,72.0681528 26.409184,71.8274436 27.484969,71.6366928 C28.560754,71.4459421 29.5976276,71.2937957 30.5955898,71.1802536 C32.9247489,70.9034974 35.2676376,70.7556638 37.6133703,70.7374395 C37.8165866,70.4843815 37.8992469,70.1563491 37.8399718,69.8381861 C37.7525332,69.5855035 37.5706358,69.3757775 37.331835,69.2523089 C37.0149689,69.0824791 36.6713207,68.9672979 36.3155616,68.9116826 C35.8755095,68.8326188 35.4303314,68.7848097 34.9834193,68.7686196 C33.6594653,68.7230296 32.3340006,68.7891218 31.021326,68.9661829 C30.3789268,69.0894532 29.7254065,69.1465274 29.0711796,69.136496 C28.840505,69.1379419 28.6103266,69.1151057 28.3845083,69.0683707 C28.182898,69.0262247 27.9885772,68.955077 27.8077045,68.8571824 C27.644217,68.7706772 27.5103619,68.6378784 27.4231685,68.475681 C27.3371227,68.2977127 27.3129741,68.0964646 27.3545014,67.9034289 C27.3828333,67.6579213 27.5028857,67.4318649 27.6909703,67.269864 C27.9228493,67.0570552 28.184124,66.8781295 28.4669089,66.738487 C28.8099227,66.5663509 29.1657479,66.4205889 29.5312494,66.3024854 C29.9295187,66.1707766 30.3254991,66.0481511 30.7191907,65.934609 C30.1169899,65.4237586 29.7318593,64.7058162 29.6411168,63.924914 C29.4899162,62.9679197 29.4899162,61.9933974 29.6411168,61.0364032 C29.799861,59.9650225 30.0690746,58.9126452 30.4445222,57.8958289 C30.7839223,56.9430909 31.2259502,56.0294665 31.762931,55.1708187 C32.1974951,54.4633465 32.7316182,53.8210335 33.3491416,53.2633116 C33.7575689,52.8952545 34.2208012,52.5919338 34.7224842,52.3640582 C35.1531776,52.1693999 35.6226728,52.0739129 36.0958268,52.0847447 C36.4721696,52.1441355 36.8422318,52.2376313 37.2013675,52.3640582 C37.4484648,52.4469416 37.6720902,52.5870642 37.8537052,52.7728098 C38.0155444,52.9534801 38.0155444,53.2257043 37.8537052,53.4063746 C37.4845755,53.1449946 37.0091813,53.0812591 36.5833634,53.2360615 C36.0243219,53.4655975 35.5261663,53.8199471 35.1276203,54.2715654 C34.360981,55.1431325 33.718661,56.1150553 33.2186741,57.1600762 C32.5939645,58.2963925 32.1053959,59.5013162 31.762931,60.7502771 C31.5382359,61.5960119 31.3911462,62.4601851 31.3234614,63.3322243 C31.2725279,64.0416948 31.3492579,64.7544967 31.5500629,65.4372947 C32.1162064,65.2795893 32.6457488,65.0134359 33.1088067,64.6538542 C33.6583178,64.2206363 34.1518696,63.7218268 34.5782832,63.1687237 C35.1975679,62.3528344 35.7012345,61.4565978 36.0752266,60.5050262 C36.4711021,59.6072928 36.7881471,58.677339 37.022833,57.7255158 C37.1560897,57.1528117 37.2546888,56.5727106 37.3181016,55.9883218 C37.3492047,55.5988193 37.3001436,55.2071099 37.1739007,54.837005 C37.0868933,54.7194396 37.0868933,54.5594439 37.1739007,54.4418785 C37.3084495,54.3138087 37.4739968,54.222303 37.6545705,54.17619 C38.0417769,54.0682626 38.440571,54.0065142 38.8425119,53.9922518 C39.2760057,53.9886133 39.7073535,53.9314016 40.1265871,53.8219387 C40.3758993,53.753487 40.6174936,53.6598946 40.847592,53.5426252 C41.0240588,53.4629124 41.1655145,53.3225729 41.2458613,53.1474987 C41.2664852,53.3513951 41.2283882,53.5569129 41.1359939,53.7401884 C40.9980109,53.9329183 40.8258268,54.0991267 40.6278572,54.2306902 C40.2843682,54.4465083 39.8978379,54.5859556 39.4948496,54.6394418 L38.4030422,54.8915052 C38.2433202,54.9160045 38.097427,54.9956126 37.9910395,55.1163185 C37.9329932,55.2369659 37.9329932,55.3771726 37.9910395,55.49782 C38.0621535,55.7194951 38.1104668,55.9477427 38.1352404,56.1790725 C38.1667261,56.4804859 38.1434689,56.7850584 38.0665733,57.0783259 C37.9600857,57.5664981 37.8271361,58.0486168 37.668304,58.5225813 C37.4897694,59.0766667 37.2723235,59.6670856 37.0159663,60.2938379 C36.759609,60.9205903 36.4712071,61.5428009 36.1507605,62.1604699 C35.8375219,62.7676195 35.4937535,63.3587826 35.1207535,63.9317265 C34.7895471,64.4467661 34.4052316,64.9262235 33.9740125,65.3623569 C33.9917847,65.3685907 34.011174,65.3685907 34.0289462,65.3623569 C34.2704732,65.3727521 34.5059581,65.4405038 34.7156175,65.5599201 C34.7888624,65.6371287 34.7179064,65.7166082 34.5027494,65.7983585 C34.0079212,65.9487882 33.5031436,66.0648814 32.9920726,66.1457973 C32.5342917,66.2411727 32.0238661,66.3569856 31.4607956,66.4932361 C30.9240467,66.6246736 30.3945879,66.7838496 29.874585,66.9701129 C29.4540428,67.1158679 29.0473215,67.2982461 28.6591768,67.5151149 C28.3387302,67.701324 28.2059738,67.8784496 28.2609075,68.0464919 C28.3158412,68.2145342 28.560754,68.3417014 28.9956458,68.4279933 C29.5292396,68.4541482 30.0640601,68.4404847 30.5955898,68.3871182 L32.8135381,68.1895549 C33.6421214,68.1123463 34.5004605,68.073742 35.3885553,68.073742 C36.2028105,68.0299153 37.0161854,68.1745144 37.764438,68.4961186 C38.2218992,68.7092014 38.6272298,69.018355 38.9523793,69.4021845 C39.2391627,69.7986815 39.3885525,70.2767813 39.3781155,70.7646896 C42.7333299,70.4886744 46.1072025,70.9925111 49.2318483,72.2361951 C50.3711736,72.7042838 51.4500307,73.3057802 52.4454698,74.0278893 C53.1775574,74.5589258 53.8621811,75.1515348 54.4917502,75.7991459 Z M26.791431,78.88522 C28.0415468,78.2453607 29.2501529,77.5286499 30.4101886,76.7392744 C31.5775298,75.9444798 32.623559,75.1996437 33.5482763,74.5047661 C34.6057501,73.7008881 35.6151569,72.8879267 36.5764966,72.0658819 C33.1744607,72.3046269 29.7913746,72.7597305 26.4480953,73.428387 C25.1479977,73.7099714 23.8410334,74.0415143 22.5272023,74.4230158 C21.2762398,74.7840212 20.0549736,75.2395207 18.8741112,75.7855209 C17.825292,76.2643243 16.8366152,76.8633668 15.9282914,77.5704025 C15.145683,78.1614772 14.5267411,78.9395961 14.1292126,79.832161 C14.0147674,80.0955787 14.1177681,80.3226628 14.4382147,80.5134136 C14.8793969,80.7372731 15.3594137,80.8759805 15.8527575,80.9221651 C16.5953176,81.0115097 17.3437591,81.0433977 18.0913059,81.0175404 C19.0120104,80.99292 19.9298329,80.9041385 20.837991,80.7518519 C21.8469091,80.5862825 22.8444993,80.3587612 23.8250111,80.0705994 C24.8500431,79.7713291 25.8434795,79.3743525 26.791431,78.88522 Z" id="Shape" fill="#C2C2C2"></path>
                    <path d="M41.3438027,56.7146973 C41.0358708,57.0668792 40.8555106,57.2429702 40.8027222,57.2429702 C40.7499339,57.2429702 40.7499339,57.1458944 40.8027222,56.9517428 C40.9054751,56.6934805 41.0245005,56.4423585 41.1590436,56.1999699 L41.6209415,55.3330606 L41.9574672,54.6896514 C42.0366497,54.5338786 42.0432483,54.5067877 41.9574672,54.6219241 C42.1211684,54.3729165 42.375648,54.2020399 42.6635113,54.147833 C42.9344015,54.1017276 43.2108404,54.1017276 43.4817306,54.147833 C43.8065065,54.2084506 44.1247445,54.3014519 44.4319207,54.4255149 L41.3306057,62.4376533 C41.4921564,61.9622549 41.6794057,61.4964713 41.8914818,61.0424711 C42.1730196,60.4103497 42.5227424,59.7082435 42.9406501,58.9361524 C43.377106,58.1309614 43.8528039,57.3488489 44.3659353,56.5927882 C44.8657484,55.8587578 45.4360817,55.1780732 46.0683593,54.5609695 C46.6056354,54.0167219 47.230751,53.5721728 47.9159513,53.2470601 C48.5144635,52.9618112 49.1999846,52.9373801 49.8163316,53.1793328 C50.1862963,53.3244997 50.5457253,53.4965101 50.8918941,53.6940602 C51.0972878,53.8084026 51.2842495,53.9546098 51.4461717,54.1275148 C51.5430652,54.2232007 51.5978552,54.3552338 51.5979381,54.4932422 C51.5886245,54.6039021 51.5333244,54.7050828 51.4461717,54.7709241 C51.1148695,55.0375133 50.7212749,55.210316 50.3046238,55.272106 C50.4242913,55.1519856 50.5325551,55.0204537 50.6279524,54.8792878 C50.6805064,54.7972904 50.6950022,54.6956215 50.6675436,54.6016059 C50.6411494,54.5067877 50.5179767,54.4593786 50.2980252,54.4593786 C49.4941193,54.4621025 48.7040329,54.6741594 48.0017324,55.0756969 C47.2343193,55.5116899 46.533904,56.061709 45.9231914,56.7079246 C45.2446217,57.4201515 44.6265146,58.1905231 44.0755994,59.0106524 C43.5027018,59.8534624 42.9761951,60.7285119 42.4985477,61.6316985 C41.2947328,63.9234656 40.2773015,66.3133247 39.4566195,68.7769276 C39.1556531,68.9043826 38.8098992,68.7713023 38.6647944,68.4721547 C38.5032334,68.071774 38.4376113,67.637454 38.4734367,67.2056544 C38.5035183,66.5632108 38.5851772,65.9244086 38.7175827,65.2957449 C38.8627507,64.5688053 39.0431109,63.8147748 39.2586632,63.0336534 C39.7777486,61.1643802 40.4727951,59.0580615 41.3438027,56.7146973 Z" id="Shape" fill="#C2C2C2"></path>
                    <path d="M57.8845402,55.8349164 C57.4623534,55.4683389 56.9366885,55.2404223 56.3793926,55.182318 C56.1355775,55.1645142 55.8904903,55.1877379 55.6544361,55.2510126 C55.3713002,55.3309988 55.1031302,55.4562858 54.8604362,55.6219632 C54.5498128,55.8308889 54.2668176,56.0778353 54.0181059,56.3569951 C53.6867768,56.7332395 53.3995498,57.1457702 53.1619669,57.5866279 C52.600342,58.5717244 52.1156115,59.5982941 51.712054,60.6572751 C51.3389425,61.6230042 51.0298852,62.6120383 50.7868715,63.6180111 C50.5850816,64.4294161 50.455698,65.2569647 50.4002281,66.0910155 C50.3443567,66.6379404 50.3935617,67.1904476 50.5452193,67.7190768 C51.710214,66.4601861 52.8028397,65.1368546 53.8178798,63.7554002 C54.8096174,62.4110798 55.7314077,61.017039 56.5796186,59.5787704 C57.508654,58.0055489 58.2721697,56.3412085 58.8580532,54.6121531 C59.0908349,54.4466784 59.3499002,54.3212835 59.6244357,54.2412024 C59.8079481,54.1994054 60.0005755,54.2288906 60.1629748,54.3236359 C60.3148704,54.4198083 60.4092298,54.6648189 60.446053,55.0586678 C60.4290496,55.5001836 60.3331953,55.9351637 60.1629748,56.3432562 C59.9558443,56.9386092 59.7003835,57.6255548 59.3965922,58.4040933 L58.4299837,60.911445 C58.0893692,61.7998948 57.7901808,62.6677362 57.5324185,63.5149692 C57.2930345,64.2926312 57.1130097,65.0871671 56.9938795,65.8918013 C56.8793539,66.4952716 56.912508,67.1173036 57.0905403,67.7053379 C57.1273635,67.8198288 57.2401345,67.792351 57.4288533,67.6229044 C57.6777862,67.3862192 57.908575,67.1313382 58.119288,66.8603947 C58.3954619,66.5215015 58.708459,66.1207832 59.0582792,65.6582398 C59.4080995,65.1956963 59.7533168,64.719414 60.0939313,64.2293927 C60.9086442,63.0570054 61.8292238,61.6991428 62.8556701,60.1558048 C62.8004353,60.4397423 62.7336933,60.7236799 62.655444,61.0076174 C62.5771948,61.291555 62.5058499,61.5457249 62.4414093,61.7701272 C62.3614254,62.0223099 62.2621737,62.2680371 62.1445224,62.505159 C62.070876,62.6562871 61.9143775,62.9150366 61.6750268,63.2814077 C61.4356761,63.6477787 61.1548993,64.0668156 60.8326964,64.5385183 C60.5104936,64.9964821 60.1652762,65.4819237 59.7970444,65.9948431 C59.4288125,66.5077626 59.067485,66.9657264 58.7130619,67.3687345 C58.4180236,67.7148972 58.1045784,68.0451032 57.7740707,68.3579363 C57.4978968,68.614396 57.283862,68.7311768 57.1319664,68.7082786 C56.8608652,68.6372887 56.6117466,68.5003757 56.40701,68.3098501 C56.0787999,67.995147 55.8507227,67.5914599 55.751097,67.1489119 C55.5735279,66.4327573 55.5106156,65.693216 55.5646796,64.9575551 C55.6531372,63.762548 55.8730905,62.5808022 56.2205926,61.4335238 C56.2758274,61.2274401 56.1952767,61.2892652 55.9789405,61.6189991 L55.0675666,62.9928905 C54.6763203,63.5974027 54.2298392,64.2728993 53.7281233,65.0193803 C53.2264074,65.7658612 52.7338973,66.4528069 52.2505931,67.0802173 C51.8462661,67.6070709 51.3829962,68.0864369 50.8697236,68.5090644 C50.4416541,68.8479576 50.1056426,68.9143623 49.861689,68.7082786 C49.4603675,68.3209493 49.183971,67.8235585 49.0676891,67.2794316 C48.8672485,66.5219573 48.7720044,65.7407418 48.7846108,64.9575551 C48.7915,64.0036044 48.8815946,63.0520486 49.0538804,62.1136 C49.2374278,61.0838482 49.5337803,60.0771954 49.9376368,59.1116473 C50.3451807,58.1381856 50.8666023,57.2158982 51.4911149,56.3638646 C52.1072289,55.5141348 52.8805105,54.7890581 53.7695494,54.2274635 C54.1517943,53.9825137 54.6134649,53.8916288 55.0606623,53.9732936 C55.5442192,54.042235 56.0117094,54.1957272 56.4415317,54.4266778 C56.8260171,54.6298997 57.1793974,54.8866562 57.4909925,55.1891875 C57.7533576,55.4685454 57.8845402,55.6837884 57.8845402,55.8349164 Z" id="Shape" fill="#C2C2C2"></path>
                    <path d="M61.1492029,61.283273 C61.4591855,60.2925888 61.7386396,59.4871 61.9875651,58.8668068 C62.2364905,58.2465135 62.4595841,57.7444776 62.6568458,57.360699 C62.8031128,57.0548549 62.9726433,56.759545 63.1640901,56.4771158 C63.309688,56.2763014 63.429454,56.1022623 63.5233882,55.9549984 C63.6853878,55.6979494 63.9334551,55.499962 64.2278942,55.3927182 C64.4580159,55.3294944 64.7022786,55.3294944 64.9324002,55.3927182 C65.1769027,55.4732601 65.4037589,55.5957808 65.6016809,55.7541841 C65.0005025,57.4276371 64.5073483,58.8333377 64.1222183,59.9712858 C63.9484401,60.4666279 63.7934488,60.9262697 63.6572443,61.3502111 C63.5210398,61.7741525 63.4200606,62.1133057 63.3543067,62.3676706 C63.301711,62.5093954 63.2778072,62.6592947 63.2838561,62.8094622 C63.2838561,62.8451625 63.3707452,62.7157488 63.5445234,62.4212211 C63.8357192,61.8321656 64.2419843,61.1159277 64.7633188,60.2725073 C65.2846532,59.429087 65.8318196,58.6191357 66.4048178,57.8426535 C66.9731193,57.0706338 67.5108922,56.4012526 68.0181366,55.8345098 C68.5253809,55.267767 68.9128592,54.9643142 69.1805715,54.9241513 C69.5103431,54.8574507 69.8511985,54.8574507 70.1809701,54.9241513 C70.4276544,54.9878835 70.6470023,55.1237024 70.8079804,55.3123924 C70.963047,55.4987753 71.0714581,55.7162324 71.1250081,55.9483046 C71.1836895,56.2010446 71.2120506,56.459287 71.2095488,56.718093 C71.1868709,57.4693498 71.0492235,58.21347 70.8009353,58.9270511 C71.3509069,58.0973151 71.9680406,57.3095269 72.6467411,56.5708292 C73.0791038,56.0919895 73.5711767,55.6649102 74.1121136,55.2990048 C74.4390767,55.06687 74.826234,54.9234298 75.2322782,54.8839885 C75.5089905,54.8667189 75.7851491,54.9247698 76.02837,55.0513338 C76.2421384,55.1724146 76.4249997,55.3370144 76.5637946,55.5332883 C76.6907785,55.7067423 76.8015722,55.8904046 76.8949124,56.0821809 C76.9544926,56.4859629 76.9085208,56.8974723 76.7610563,57.2803733 C76.5966715,57.9140541 76.3618362,58.6682237 76.0565502,59.5428818 C75.7512643,60.4175399 75.4412817,61.3457486 75.1266023,62.3275077 C74.7884394,63.2914167 74.4878502,64.183925 74.2248346,65.0050326 C73.961819,65.8261402 73.769254,66.524528 73.6471397,67.1001958 C73.5203286,67.6624761 73.5344187,67.9703914 73.68941,68.0239419 C73.8444013,68.0774924 74.0369663,68.008323 74.267105,67.8164337 C74.5608819,67.5834069 74.8320323,67.3257753 75.0772869,67.0466453 C75.3684827,66.7253423 75.6737686,66.3661077 75.9931447,65.9689416 C76.3125208,65.5717754 76.6084133,65.181303 76.8808223,64.7975244 C77.1532313,64.4092833 77.3880666,64.0656676 77.5853283,63.7666773 C77.78259,63.467687 77.9187945,63.24456 77.9939418,63.0972961 C78.0925726,62.8964817 78.1888551,62.791612 78.2827893,62.7826869 C78.3754791,62.7726509 78.468707,62.7965914 78.5434565,62.849625 C78.6421959,62.9499815 78.7295645,63.0599172 78.8041237,63.1776218 C78.2640024,63.896091 77.7520614,64.5654723 77.2683006,65.1857655 C76.8596871,65.7212705 76.4675121,66.227769 76.0917755,66.7052609 L75.3097739,67.6825575 C75.1380361,67.8840054 74.9495631,68.0720355 74.746169,68.2448377 C74.5068422,68.4546775 74.2269026,68.6183591 73.921897,68.7267922 C73.615541,68.8361665 73.2815081,68.8548359 72.9637688,68.7803427 C72.5702817,68.6607449 72.2383982,68.405131 72.0338209,68.0641048 C71.8549221,67.7681741 71.778518,67.4262759 71.815424,67.0868082 C71.8338976,66.5590946 71.8927619,66.0333577 71.9915505,65.5137623 C72.0995748,64.9157818 72.2498694,64.266482 72.4424344,63.565863 C72.6349993,62.8652439 72.8393061,62.1668562 73.0553546,61.4706997 C73.5579022,59.832947 74.1872609,58.0479304 74.9434307,56.1156499 C74.3743125,56.2494273 73.8505414,56.5189916 73.4216977,56.898826 C72.8892626,57.3544695 72.4162189,57.8691001 72.0126857,58.431709 C71.5436581,59.0723909 71.1222784,59.7434034 70.7516199,60.4398526 C70.3523998,61.1850971 69.9884051,61.934804 69.6596356,62.6889735 C68.8383445,64.6356588 68.1327281,66.6246194 67.5461175,68.6464665 C67.1579334,68.3623561 66.8364039,68.0044208 66.6020795,67.5955379 C66.4151046,67.2320411 66.3347877,66.8273539 66.3695925,66.4241208 C66.415515,65.9165293 66.5315819,65.4168928 66.7148004,64.9380945 C66.9167588,64.3758142 67.1727294,63.706433 67.482712,62.9299508 C67.7927766,62.154273 68.0585275,61.3632513 68.2788038,60.5603413 C68.499549,59.7526212 68.6780239,59.0163019 68.8142284,58.3513832 C68.9692197,57.5793635 69.0960308,56.825194 69.1946616,56.0888747 C68.7417847,56.2776658 68.3431603,56.5668931 68.0322267,56.932295 C67.5592155,57.4273781 67.1259059,57.9554358 66.7359356,58.5120347 C66.3085353,59.1278654 65.88818,59.7972467 65.4748699,60.5201784 C65.0615597,61.2431101 64.6599912,61.9883545 64.2701646,62.7559117 C63.3590034,64.5409283 62.4595841,66.499984 61.5719065,68.6330788 C61.2142711,68.5768801 60.8894965,68.4012256 60.6560487,68.1377367 C60.4264307,67.8672701 60.2628131,67.5517775 60.1769846,67.2139906 C60.0761716,66.8266259 60.0311421,66.4280553 60.0431285,66.0291859 C60.0534552,65.5804344 60.0981924,65.1329949 60.1769846,64.6904234 C60.3977358,63.5303418 60.7230053,62.3904311 61.1492029,61.283273 Z" id="Shape" fill="#C2C2C2"></path>
                    <path d="M86.0288701,55.8349164 C85.6066833,55.4683389 85.0810184,55.2404223 84.5237225,55.182318 C84.2799074,55.1645142 84.0348202,55.1877379 83.798766,55.2510126 C83.5156301,55.3309988 83.2474601,55.4562858 83.0047661,55.6219632 C82.6941427,55.8308889 82.4111475,56.0778353 82.1624358,56.3569951 C81.8311067,56.7332395 81.5438797,57.1457702 81.3062968,57.5866279 C80.7446719,58.5717244 80.2599414,59.5982941 79.8563839,60.6572751 C79.4832724,61.6230042 79.1742151,62.6120383 78.9312014,63.6180111 C78.7294115,64.4294161 78.6000279,65.2569647 78.5445579,66.0910155 C78.4886866,66.6379404 78.5378916,67.1904476 78.6895492,67.7190768 C79.8545439,66.4601861 80.9471696,65.1368546 81.9622097,63.7554002 C82.9539473,62.4110798 83.8757376,61.017039 84.7239485,59.5787704 C85.6529839,58.0055489 86.4164996,56.3412085 87.0023831,54.6121531 C87.2351648,54.4466784 87.4942301,54.3212835 87.7687656,54.2412024 C87.952278,54.1994054 88.1449054,54.2288906 88.3073047,54.3236359 C88.4592003,54.4198083 88.5535597,54.6648189 88.5903829,55.0586678 C88.5733795,55.5001836 88.4775252,55.9351637 88.3073047,56.3432562 C88.1001742,56.9386092 87.8447134,57.6255548 87.5409221,58.4040933 L86.5743135,60.911445 C86.2336991,61.7998948 85.9345107,62.6677362 85.6767484,63.5149692 C85.4373643,64.2926312 85.2573396,65.0871671 85.1382094,65.8918013 C85.0236838,66.4952716 85.0568378,67.1173036 85.2348702,67.7053379 C85.2716934,67.8198288 85.3844644,67.792351 85.5731832,67.6229044 C85.8221161,67.3862192 86.0529049,67.1313382 86.2636179,66.8603947 C86.5397918,66.5215015 86.8527889,66.1207832 87.2026091,65.6582398 C87.5524294,65.1956963 87.8976467,64.719414 88.2382612,64.2293927 C89.0529741,63.0570054 89.9735537,61.6991428 91,60.1558048 C90.9447652,60.4397423 90.8780232,60.7236799 90.7997739,61.0076174 C90.7215247,61.291555 90.6501798,61.5457249 90.5857392,61.7701272 C90.5057553,62.0223099 90.4065036,62.2680371 90.2888523,62.505159 C90.2152059,62.6562871 90.0587074,62.9150366 89.8193567,63.2814077 C89.580006,63.6477787 89.2992292,64.0668156 88.9770263,64.5385183 C88.6548235,64.9964821 88.3096061,65.4819237 87.9413743,65.9948431 C87.5731424,66.5077626 87.2118149,66.9657264 86.8573918,67.3687345 C86.5623535,67.7148972 86.2489083,68.0451032 85.9184006,68.3579363 C85.6422267,68.614396 85.4281919,68.7311768 85.2762963,68.7082786 C85.0051951,68.6372887 84.7560765,68.5003757 84.5513399,68.3098501 C84.2231298,67.995147 83.9950525,67.5914599 83.8954269,67.1489119 C83.7178578,66.4327573 83.6549455,65.693216 83.7090095,64.9575551 C83.7974671,63.762548 84.0174204,62.5808022 84.3649225,61.4335238 C84.4201573,61.2274401 84.3396066,61.2892652 84.1232704,61.6189991 L83.2118965,62.9928905 C82.8206502,63.5974027 82.3741691,64.2728993 81.8724532,65.0193803 C81.3707373,65.7658612 80.8782272,66.4528069 80.394923,67.0802173 C79.990596,67.6070709 79.5273261,68.0864369 79.0140535,68.5090644 C78.585984,68.8479576 78.2499725,68.9143623 78.0060189,68.7082786 C77.6046973,68.3209493 77.3283009,67.8235585 77.212019,67.2794316 C77.0115784,66.5219573 76.9163343,65.7407418 76.9289407,64.9575551 C76.9358299,64.0036044 77.0259245,63.0520486 77.1982103,62.1136 C77.3817577,61.0838482 77.6781101,60.0771954 78.0819667,59.1116473 C78.4895106,58.1381856 79.0109322,57.2158982 79.6354448,56.3638646 C80.2515588,55.5141348 81.0248404,54.7890581 81.9138793,54.2274635 C82.2961242,53.9825137 82.7577948,53.8916288 83.2049922,53.9732936 C83.6885491,54.042235 84.1560393,54.1957272 84.5858616,54.4266778 C84.970347,54.6298997 85.3237273,54.8866562 85.6353224,55.1891875 C85.8976875,55.4685454 86.0288701,55.6837884 86.0288701,55.8349164 Z" id="Shape" fill="#C2C2C2"></path>
                </g>
            </g>
        </g>
    </g>
</svg>