<?xml version="1.0" encoding="UTF-8"?>
<svg width="42px" height="42px" viewBox="0 0 42 42" version="1.1" xmlns="http://www.w3.org/2000/svg" xmlns:xlink="http://www.w3.org/1999/xlink">
    <!-- Generator: Sketch 49.1 (51147) - http://www.bohemiancoding.com/sketch -->
    <title>iconPrefeitura</title>
    <desc>Created with Sketch.</desc>
    <defs></defs>
    <g id="Page-1" stroke="none" stroke-width="1" fill="none" fill-rule="evenodd" opacity="0.821557971">
        <g id="Imersão-Copy" transform="translate(-910.000000, -845.000000)" fill="#E5C688" fill-rule="nonzero">
            <g id="Group-6" transform="translate(887.000000, 820.000000)">
                <g id="iconPrefeitura" transform="translate(23.000000, 25.000000)">
                    <path d="M34.6530612,19.2368466 L34.6530612,12.6544193 L21.2659592,6.64809736 L21.266449,0 L15.5358367,0 L15.5358367,3.56558511 L20.0419592,3.56558511 L20.0419592,6.88242004 L6.97959184,12.6519318 L6.97959184,19.2368466 L0,19.2368466 L0,39.4686939 L15.1244082,39.4686939 L15.1244082,41 L27.4878367,40.9208974 L27.4878367,39.4686939 L42,39.4686939 L42,19.2368466 L34.6530612,19.2368466 Z M16.7603265,1.24375091 L20.0419592,1.24375091 L20.0419592,2.3218342 L16.7603265,2.3218342 L16.7603265,1.24375091 Z M1.2244898,35.1568582 L15.1244082,35.1568582 L15.1244082,35.7722662 L1.2244898,35.7722662 L1.2244898,35.1568582 Z M16.348898,35.7722662 L16.348898,22.9680993 L20.6938776,22.9680993 L20.6938776,35.7722662 L16.348898,35.7722662 Z M21.9183673,22.9680993 L26.2633469,22.9680993 L26.2633469,35.7722662 L21.9183673,35.7722662 L21.9183673,22.9680993 Z M27.4878367,35.1568582 L40.7755102,35.1568582 L40.7755102,35.7722662 L27.4878367,35.7722662 L27.4878367,35.1568582 Z M31.3165714,19.2368466 L28.7578776,19.2368466 L28.7578776,16.7971048 C28.7578776,16.0807043 29.3319184,15.4976338 30.0372245,15.4976338 C30.7420408,15.4976338 31.3160816,16.0807043 31.3160816,16.7971048 L31.3160816,19.2368466 L31.3165714,19.2368466 Z M30.0372245,14.2538829 C28.6564898,14.2538829 27.5333878,15.3946513 27.5333878,16.7971048 L27.5333878,19.2368466 L26.3936327,19.2368466 L26.3936327,16.7971048 C26.3936327,15.3946513 25.2705306,14.2538829 23.8902857,14.2538829 C22.5100408,14.2538829 21.3869388,15.3946513 21.3869388,16.7971048 L21.3869388,19.2368466 L20.2471837,19.2368466 L20.2471837,16.7971048 C20.2471837,15.3946513 19.1240816,14.2538829 17.7433469,14.2538829 C16.363102,14.2538829 15.24,15.3946513 15.24,16.7971048 L15.24,19.2368466 L14.1002449,19.2368466 L14.1002449,16.7971048 C14.1002449,15.3946513 12.9771429,14.2538829 11.5964082,14.2538829 C10.2156735,14.2538829 9.09257143,15.3946513 9.09257143,16.7971048 L9.09257143,19.2368466 L8.20408163,19.2368466 L8.20408163,13.68126 L33.4285714,13.68126 L33.4285714,19.2368466 L32.5405714,19.2368466 L32.5405714,16.7971048 C32.5410612,15.3946513 31.4179592,14.2538829 30.0372245,14.2538829 Z M25.1691429,19.2368466 L22.6109388,19.2368466 L22.6109388,16.7971048 C22.6109388,16.0807043 23.1849796,15.4976338 23.8897959,15.4976338 C24.5946122,15.4976338 25.1686531,16.0807043 25.1686531,16.7971048 L25.1686531,19.2368466 L25.1691429,19.2368466 Z M19.0222041,19.2368466 L16.4635102,19.2368466 L16.4635102,16.7971048 C16.4635102,16.0807043 17.0370612,15.4976338 17.7423673,15.4976338 C18.4476735,15.4976338 19.0217143,16.0807043 19.0217143,16.7971048 L19.0217143,19.2368466 L19.0222041,19.2368466 Z M12.8752653,19.2368466 L10.3165714,19.2368466 L10.3165714,16.7971048 C10.3165714,16.0807043 10.8906122,15.4976338 11.5959184,15.4976338 C12.3012245,15.4976338 12.8752653,16.0807043 12.8752653,16.7971048 L12.8752653,19.2368466 Z M28.2847347,12.4375091 L20.8099592,9.2952968 L13.708898,12.4375091 L10.5345306,12.4375091 L20.9177143,7.85105324 L31.1392653,12.4375091 L28.2847347,12.4375091 Z M25.0834286,12.4375091 L16.7750204,12.4375091 L20.8226939,10.6460103 L25.0834286,12.4375091 Z M40.7755102,20.4805975 L40.7755102,33.9131073 L27.4878367,33.9131073 L27.4878367,21.7243484 L15.1244082,21.7243484 L15.1244082,33.9131073 L1.2244898,33.9131073 L1.2244898,20.4805975 L40.7755102,20.4805975 Z M1.2244898,38.224943 L1.2244898,37.0160171 L15.1244082,37.0160171 L15.1244082,38.224943 L1.2244898,38.224943 Z M16.348898,39.7482891 L16.348898,37.0160171 L26.2633469,37.0160171 L26.2633469,39.684609 L16.348898,39.7482891 Z M40.7755102,38.224943 L27.4878367,38.224943 L27.4878367,37.0160171 L40.7755102,37.0160171 L40.7755102,38.224943 Z" id="Shape"></path>
                    <path d="M8,22 L2,22 L2,27 L8,27 L8,22 Z M6.75,25.8461183 L3.25,25.8461183 L3.25,23.1538817 L6.75,23.1538817 L6.75,25.8461183 Z" id="Shape"></path>
                    <path d="M15,22 L9,22 L9,27 L15,27 L15,22 Z M13.75,25.8461183 L10.25,25.8461183 L10.25,23.1538817 L13.75,23.1538817 L13.75,25.8461183 Z" id="Shape"></path>
                    <path d="M8,28 L2,28 L2,33 L8,33 L8,28 Z M6.75,31.8461183 L3.25,31.8461183 L3.25,29.1538817 L6.75,29.1538817 L6.75,31.8461183 Z" id="Shape"></path>
                    <path d="M15,28 L9,28 L9,33 L15,33 L15,28 Z M13.75,31.8461183 L10.25,31.8461183 L10.25,29.1538817 L13.75,29.1538817 L13.75,31.8461183 Z" id="Shape"></path>
                    <path d="M35,22 L29,22 L29,27 L35,27 L35,22 Z M33.75,25.8461183 L30.25,25.8461183 L30.25,23.1538817 L33.75,23.1538817 L33.75,25.8461183 Z" id="Shape"></path>
                    <path d="M41,22 L35,22 L35,27 L41,27 L41,22 Z M39.75,25.8461183 L36.25,25.8461183 L36.25,23.1538817 L39.75,23.1538817 L39.75,25.8461183 Z" id="Shape"></path>
                    <path d="M35,28 L29,28 L29,33 L35,33 L35,28 Z M33.75,31.8461183 L30.25,31.8461183 L30.25,29.1538817 L33.75,29.1538817 L33.75,31.8461183 Z" id="Shape"></path>
                    <path d="M41,28 L35,28 L35,33 L41,33 L41,28 Z M39.75,31.8461183 L36.25,31.8461183 L36.25,29.1538817 L39.75,29.1538817 L39.75,31.8461183 Z" id="Shape"></path>
                    <rect id="Rectangle-path" x="20" y="29" width="1" height="1"></rect>
                    <rect id="Rectangle-path" x="23" y="29" width="1" height="1"></rect>
                    <rect id="Rectangle-path" x="1" y="41" width="3" height="1"></rect>
                    <rect id="Rectangle-path" x="5" y="41" width="9" height="1"></rect>
                    <rect id="Rectangle-path" x="30" y="41" width="9" height="1"></rect>
                    <rect id="Rectangle-path" x="39" y="41" width="3" height="1"></rect>
                </g>
            </g>
        </g>
    </g>
</svg>