<?xml version="1.0" encoding="UTF-8"?>
<svg width="27px" height="27px" viewBox="0 0 27 27" version="1.1" xmlns="http://www.w3.org/2000/svg" xmlns:xlink="http://www.w3.org/1999/xlink">
    <!-- Generator: Sketch 49.1 (51147) - http://www.bohemiancoding.com/sketch -->
    <title>Group 3</title>
    <desc>Created with Sketch.</desc>
    <defs></defs>
    <g id="Page-1" stroke="none" stroke-width="1" fill="none" fill-rule="evenodd">
        <g id="Seven-Copy-3" transform="translate(-1161.000000, -811.000000)" fill-rule="nonzero">
            <g id="Group-3" transform="translate(1162.000000, 812.000000)">
                <rect id="Rectangle-path" stroke="#FCFCFC" fill="#000000" x="0" y="0" width="24.9233577" height="24.9233577" rx="4"></rect>
                <path d="M16.4306569,22.3467153 L8.49270073,22.3467153 C4.9674183,22.34169 2.11086477,19.4851364 2.10583942,15.959854 L2.10583942,8.96350365 C2.11086477,5.43822122 4.9674183,2.58166769 8.49270073,2.57664234 L16.4306569,2.57664234 C19.9559394,2.58166769 22.8124929,5.43822122 22.8175182,8.96350365 L22.8175182,15.9580292 C22.8134979,19.4840242 19.9566507,22.3416877 16.4306569,22.3467153 Z M8.49270073,3.99452555 C5.7496606,3.99754264 3.52673972,6.22046352 3.52372263,8.96350365 L3.52372263,15.9580292 C3.52673972,18.7010693 5.7496606,20.9239902 8.49270073,20.9270073 L16.4306569,20.9270073 C19.1736971,20.9239902 21.3966179,18.7010693 21.399635,15.9580292 L21.399635,8.96350365 C21.3966179,6.22046352 19.1736971,3.99754264 16.4306569,3.99452555 L8.49270073,3.99452555 Z" id="Shape" fill="#FFFFFF"></path>
                <path d="M12.4616788,18.1478102 C9.32155276,18.1478101 6.77588358,15.602413 6.77554777,12.4622869 C6.77521196,9.32216086 9.32033668,6.77621935 12.4604627,6.77554758 C15.6005887,6.7748758 18.1468025,9.31972811 18.1478102,12.459854 C18.1447941,15.5992631 15.6010867,18.1437868 12.4616788,18.1478102 Z M12.4616788,8.19343066 C10.1056359,8.19343087 8.19559167,10.1032031 8.19525591,12.459246 C8.19492015,14.8152889 10.1044199,16.7256055 12.4604628,16.7262772 C14.8165057,16.7269489 16.7270945,14.8177216 16.7281022,12.4616788 C16.7260915,10.1059361 14.8174205,8.19644869 12.4616788,8.19343066 Z" id="Shape" fill="#FFFFFF"></path>
                <circle id="Oval" fill="#FFFFFF" cx="18.0620438" cy="6.95072993" r="1.18065693"></circle>
            </g>
        </g>
    </g>
</svg>