<?xml version="1.0" encoding="UTF-8"?>
<svg width="24px" height="40px" viewBox="0 0 24 40" version="1.1" xmlns="http://www.w3.org/2000/svg" xmlns:xlink="http://www.w3.org/1999/xlink">
    <!-- Generator: Sketch 49.1 (51147) - http://www.bohemiancoding.com/sketch -->
    <title>noun_Microphone_171</title>
    <desc>Created with Sketch.</desc>
    <defs></defs>
    <g id="Page-1" stroke="none" stroke-width="1" fill="none" fill-rule="evenodd">
        <g id="Exclusividade" transform="translate(-933.000000, -600.000000)" fill="#E5C688" fill-rule="nonzero">
            <g id="noun_Microphone_171" transform="translate(933.000000, 600.000000)">
                <path d="M20.8,15 L20.8,20.6451613 C20.8,24.5794355 17.5032,27.9032258 13.6,27.9032258 L10.4,27.9032258 C6.4972,27.9032258 3.2,24.5794355 3.2,20.6451613 L3.2,15 L0,15 L0,20.6451613 C0,26.3282258 4.7624,31.1290323 10.4,31.1290323 L10.4,36.7741935 L3.6,36.7741935 L3.6,40 L20.4,40 L20.4,36.7741935 L13.6,36.7741935 L13.6,31.1290323 C19.2376,31.1290323 24,26.3282258 24,20.6451613 L24,15 L20.8,15 Z" id="Shape"></path>
                <path d="M9.5,26 L12.5,26 C14.64275,26 16.5455,24.1787813 16.9265,21.9375 L12.468875,21.9375 L12.468875,20.3125 L17,20.3125 L17,18.6875 L12.468875,18.6875 L12.468875,17.0625 L17,17.0625 L17,15.4375 L12.468875,15.4375 L12.468875,13.8125 L17,13.8125 L17,12.1875 L12.468875,12.1875 L12.468875,10.5625 L17,10.5625 L17,8.9375 L12.468875,8.9375 L12.468875,7.3125 L17,7.3125 L17,5.6875 L12.468875,5.6875 L12.468875,4.0625 L16.9265,4.0625 C16.5455,1.82121875 14.64275,0 12.5,0 L9.5,0 C7.102625,0 5,2.27784375 5,4.875 L5,21.125 C5,23.7221563 7.102625,26 9.5,26 Z" id="Shape"></path>
            </g>
        </g>
    </g>
</svg>