<?xml version="1.0" encoding="UTF-8"?>
<svg width="42px" height="45px" viewBox="0 0 42 45" version="1.1" xmlns="http://www.w3.org/2000/svg" xmlns:xlink="http://www.w3.org/1999/xlink">
    <!-- Generator: Sketch 49.1 (51147) - http://www.bohemiancoding.com/sketch -->
    <title>Group 9</title>
    <desc>Created with Sketch.</desc>
    <defs></defs>
    <g id="Page-1" stroke="none" stroke-width="1" fill="none" fill-rule="evenodd" opacity="0.821557971">
        <g id="Imersão-Copy" transform="translate(-209.000000, -736.000000)" fill="#E5C688" fill-rule="nonzero">
            <g id="Group" transform="translate(185.000000, 712.000000)">
                <g id="Group-9" transform="translate(24.000000, 24.000000)">
                    <g id="iconSail">
                        <rect id="Rectangle-path" x="3.96226415" y="28.5283019" width="2.37735849" height="2.37735849"></rect>
                        <rect id="Rectangle-path" x="7.9245283" y="28.5283019" width="2.37735849" height="2.37735849"></rect>
                        <rect id="Rectangle-path" x="11.8867925" y="28.5283019" width="2.37735849" height="2.37735849"></rect>
                        <rect id="Rectangle-path" x="3.96226415" y="32.490566" width="2.37735849" height="2.37735849"></rect>
                        <rect id="Rectangle-path" x="7.9245283" y="32.490566" width="2.37735849" height="2.37735849"></rect>
                        <rect id="Rectangle-path" x="11.8867925" y="32.490566" width="2.37735849" height="2.37735849"></rect>
                        <rect id="Rectangle-path" x="18.2264151" y="22.1886792" width="2.37735849" height="3.96226415"></rect>
                        <rect id="Rectangle-path" x="22.1886792" y="22.1886792" width="2.37735849" height="3.96226415"></rect>
                        <rect id="Rectangle-path" x="18.2264151" y="15.8490566" width="2.37735849" height="3.96226415"></rect>
                        <rect id="Rectangle-path" x="22.1886792" y="15.8490566" width="2.37735849" height="3.96226415"></rect>
                        <rect id="Rectangle-path" x="27.7358491" y="28.5283019" width="2.37735849" height="2.37735849"></rect>
                        <rect id="Rectangle-path" x="31.6981132" y="28.5283019" width="2.37735849" height="2.37735849"></rect>
                        <rect id="Rectangle-path" x="35.6603774" y="28.5283019" width="2.37735849" height="2.37735849"></rect>
                        <rect id="Rectangle-path" x="27.7358491" y="32.490566" width="2.37735849" height="2.37735849"></rect>
                        <rect id="Rectangle-path" x="31.6981132" y="32.490566" width="2.37735849" height="2.37735849"></rect>
                        <rect id="Rectangle-path" x="35.6603774" y="32.490566" width="2.37735849" height="2.37735849"></rect>
                        <path d="M32,17.5492281 L32,13.5149228 L22,6.85831904 L22,6.05145798 L28.8,6.05145798 L25.8,3.02572899 L28.6,0 L20,0 L20,7.06003431 L10,13.5149228 L10,17.5492281 L10,20.1715266 L0,20.1715266 L0,24.2058319 L0,26.2229846 L0,40.3430532 L0,44.3773585 L42,44.3773585 L42,40.3430532 L42,26.2229846 L42,24.2058319 L42,20.1715266 L32,20.1715266 L32,17.5492281 Z M22,2.01715266 L23.8,2.01715266 L22.8,3.02572899 L23.8,4.03430532 L22,4.03430532 L22,2.01715266 Z M30,14.7252144 L30,16.3389365 L22,11.0943396 L22,9.4806175 L30,14.7252144 Z M12,14.7252144 L20,9.4806175 L20,11.0943396 L12,16.3389365 L12,14.7252144 Z M2,22.1886792 L10,22.1886792 L10,24.2058319 L2,24.2058319 L2,22.1886792 Z M40,42.3602058 L2,42.3602058 L2,40.3430532 L16,40.3430532 L26,40.3430532 L40,40.3430532 L40,42.3602058 Z M24,38.3259005 L22,38.3259005 L22,30.2572899 L24,30.2572899 L24,38.3259005 Z M20,38.3259005 L18,38.3259005 L18,30.2572899 L20,30.2572899 L20,38.3259005 Z M40,38.3259005 L26,38.3259005 L26,28.2401372 L22,28.2401372 L20,28.2401372 L16,28.2401372 L16,38.3259005 L2,38.3259005 L2,26.2229846 L12,26.2229846 L12,22.1886792 L12,18.7595197 L21,12.909777 L30,18.7595197 L30,22.1886792 L30,26.2229846 L40,26.2229846 L40,38.3259005 Z M40,22.1886792 L40,24.2058319 L32,24.2058319 L32,22.1886792 L40,22.1886792 Z" id="Shape"></path>
                    </g>
                </g>
            </g>
        </g>
    </g>
</svg>