<?xml version="1.0" encoding="UTF-8"?>
<svg width="120px" height="37px" viewBox="0 0 120 37" version="1.1" xmlns="http://www.w3.org/2000/svg" xmlns:xlink="http://www.w3.org/1999/xlink">
    <!-- Generator: Sketch 49.1 (51147) - http://www.bohemiancoding.com/sketch -->
    <title>Group 2</title>
    <desc>Created with Sketch.</desc>
    <defs>
        <path d="M38.3115364,18.5 C38.3115364,28.7410714 29.7373737,37 19.2578416,37 C8.7102605,37 0.20414673,28.675 0.20414673,18.5 C0.20414673,8.25892857 8.77830941,0 19.2578416,0 C29.8054226,0 38.3115364,8.25892857 38.3115364,18.5 Z" id="path-1"></path>
    </defs>
    <g id="Page-1" stroke="none" stroke-width="1" fill="none" fill-rule="evenodd">
        <g id="Seven-Copy-3" transform="translate(-271.000000, -825.000000)">
            <g id="Group-2" transform="translate(271.000000, 825.000000)">
                <g id="logo_eduzz_2018_horizontal_02">
                    <path d="M37.5757576,18.5 C37.5757576,28.7410714 29.1212121,37 18.7878788,37 C8.38744589,37 0,28.675 0,18.5 C0,8.25892857 8.45454545,0 18.7878788,0 C29.1883117,0 37.5757576,8.25892857 37.5757576,18.5 Z" id="Shape" fill="#FFCD33" fill-rule="nonzero"></path>
                    <g id="Clipped">
                        <mask id="mask-2" fill="white">
                            <use xlink:href="#path-1"></use>
                        </mask>
                        <g id="a"></g>
                        <g id="Group" mask="url(#mask-2)" fill="#FFFFFF" fill-rule="nonzero">
                            <g transform="translate(-15.651249, 5.285714)" id="Shape">
                                <path d="M35.7937267,3.7 C35.7937267,5.61607143 34.2286018,7.13571429 32.2551834,7.13571429 L9.86709197,7.13571429 C7.89367358,7.13571429 6.32854864,5.61607143 6.32854864,3.7 C6.32854864,1.78392857 7.89367358,0.264285714 9.86709197,0.264285714 L32.2551834,0.264285714 C34.1605529,0.264285714 35.7937267,1.78392857 35.7937267,3.7 Z M29.6693248,12.95 C29.6693248,14.8660714 28.1041999,16.3857143 26.1307815,16.3857143 L3.81073897,16.3857143 C1.83732057,16.3857143 0.272195641,14.8660714 0.272195641,12.95 C0.272195641,11.0339286 1.83732057,9.51428571 3.81073897,9.51428571 L26.1988304,9.51428571 C28.1041999,9.51428571 29.6693248,11.0339286 29.6693248,12.95 Z M35.7937267,22.1339286 C35.7937267,24.05 34.2286018,25.5696429 32.2551834,25.5696429 L9.86709197,25.5696429 C7.89367358,25.5696429 6.32854864,24.05 6.32854864,22.1339286 C6.32854864,20.2178571 7.89367358,18.6982143 9.86709197,18.6982143 L32.2551834,18.6982143 C34.1605529,18.6982143 35.7937267,20.2839286 35.7937267,22.1339286 Z"></path>
                            </g>
                        </g>
                    </g>
                    <g id="Group" transform="translate(44.848485, 7.161290)" fill="#FFFFFF" fill-rule="nonzero">
                        <path d="M13.9470379,14.2067362 C13.8116298,15.3406072 13.4731095,15.6740987 12.3221403,15.6740987 L3.45290745,15.6740987 L3.45290745,16.3410816 C3.45290745,18.6088235 4.80698881,19.5425996 7.98907999,19.5425996 C9.27545728,19.5425996 10.6972427,19.409203 12.1190281,19.0757116 C13.1345891,18.8089184 13.4054054,19.0757116 13.4054054,20.1428843 L13.4054054,20.543074 C13.4054054,21.5435484 13.2022932,21.8103416 12.1190281,22.0771347 C10.8326508,22.4106262 9.47856948,22.5440228 7.98907999,22.5440228 C2.64045864,22.5440228 0.135408135,20.543074 0.135408135,15.8074953 L0.135408135,13.0728653 C0.135408135,8.5373814 2.50505051,6.26963947 7.24433524,6.26963947 C11.7128037,6.26963947 14.014742,8.47068311 14.014742,12.7393738 C14.014742,13.2729602 13.9470379,13.7398482 13.9470379,14.2067362 Z M3.45290745,13.006167 L10.9003549,13.006167 L10.9003549,12.2057875 C10.9003549,10.1381404 9.68168168,9.07096774 7.17663118,9.07096774 C4.73928474,9.07096774 3.52061152,10.0714421 3.52061152,12.2057875 L3.45290745,13.006167 Z M30.1283101,15.8741935 C30.1283101,20.3429791 27.4201474,22.6107211 22.8839749,22.6107211 C18.009282,22.6107211 15.5719356,20.4096774 15.5719356,15.8741935 L15.5719356,13.2062619 C15.5719356,8.67077799 17.8061698,6.33633776 22.2746383,6.33633776 C24.5088725,6.33633776 26.0660661,7.00332068 26.9462189,8.40398482 L26.9462189,1.7341556 C26.9462189,0.60028463 27.2170352,0.333491461 28.3680044,0.333491461 L28.7742288,0.333491461 C29.9251979,0.333491461 30.1960142,0.60028463 30.1960142,1.7341556 L30.1283101,15.8741935 Z M18.8217308,15.8074953 C18.8217308,18.4754269 19.6341796,19.5425996 22.8162708,19.5425996 C25.998362,19.5425996 26.8785149,18.4087287 26.8785149,15.8074953 L26.8785149,13.1395636 C26.8785149,10.4716319 25.9306579,9.4044592 22.8162708,9.4044592 C19.7018837,9.4044592 18.8217308,10.5383302 18.8217308,13.1395636 L18.8217308,15.8074953 Z M35.3415233,16.4744782 C35.3415233,18.6088235 36.1539722,19.5425996 38.997543,19.5425996 C41.8411138,19.5425996 42.5858586,18.6088235 42.5858586,16.4744782 L42.5858586,8.07049336 C42.5858586,6.93662239 42.8566749,6.66982922 44.007644,6.66982922 L44.4138684,6.66982922 C45.5648376,6.66982922 45.8356538,6.93662239 45.8356538,8.07049336 L45.8356538,16.4744782 C45.8356538,20.543074 43.7368277,22.6107211 38.9298389,22.6107211 C34.3259623,22.6107211 31.95632,20.543074 31.95632,16.4744782 L31.95632,8.07049336 C31.95632,6.93662239 32.2271362,6.66982922 33.3781054,6.66982922 L33.7843298,6.66982922 C34.9352989,6.66982922 35.2061152,6.93662239 35.2061152,8.07049336 L35.3415233,16.4744782 Z M48.2730003,7.93709677 C48.2730003,6.93662239 48.5438165,6.66982922 49.5593776,6.66982922 L56.8714169,6.66982922 C59.5795796,6.66982922 60.5274365,7.53690702 60.5274365,9.87134725 C60.5274365,11.5388046 60.0535081,12.4058824 58.0900901,13.6064516 L50.981163,17.8751423 C50.5072345,18.1419355 50.3041223,18.4087287 50.3041223,18.7422201 C50.3041223,19.1424099 50.6426426,19.2758065 51.3196833,19.2758065 L59.2410592,19.2758065 C60.2566203,19.2758065 60.5274365,19.5425996 60.5274365,20.543074 L60.5274365,20.9432638 C60.5274365,21.9437381 60.2566203,22.2105313 59.2410592,22.2105313 L50.981163,22.2105313 C48.5438165,22.2105313 47.3251433,21.1433586 47.3251433,19.0090133 C47.3251433,17.4749526 48.1375921,16.207685 49.7624898,15.2739089 L56.8037128,11.0052182 C57.2776413,10.6717268 57.5484575,10.4049336 57.5484575,10.1381404 C57.5484575,9.80464896 57.2099372,9.60455408 56.5328965,9.60455408 L49.4916735,9.60455408 C48.4761125,9.60455408 48.2052962,9.33776091 48.2052962,8.33728653 L48.2730003,7.93709677 Z M62.3554464,7.93709677 C62.3554464,6.93662239 62.6262626,6.66982922 63.6418236,6.66982922 L70.953863,6.66982922 C73.6620257,6.66982922 74.6098826,7.53690702 74.6098826,9.87134725 C74.6098826,11.5388046 74.1359541,12.4058824 72.1725362,13.6064516 L65.0636091,17.8751423 C64.5896806,18.1419355 64.3865684,18.4087287 64.3865684,18.7422201 C64.3865684,19.1424099 64.7250887,19.2758065 65.4021294,19.2758065 L73.3235053,19.2758065 C74.3390663,19.2758065 74.6098826,19.5425996 74.6098826,20.543074 L74.6098826,20.9432638 C74.6098826,21.9437381 74.3390663,22.2105313 73.3235053,22.2105313 L65.0636091,22.2105313 C62.6262626,22.2105313 61.4075894,21.1433586 61.4075894,19.0090133 C61.4075894,17.4749526 62.2200382,16.207685 63.8449358,15.2739089 L70.8861589,11.0052182 C71.3600874,10.6717268 71.6309036,10.4049336 71.6309036,10.1381404 C71.6309036,9.80464896 71.2923833,9.60455408 70.6153426,9.60455408 L63.5741196,9.60455408 C62.5585586,9.60455408 62.2877423,9.33776091 62.2877423,8.33728653 L62.3554464,7.93709677 Z" id="Shape"></path>
                    </g>
                </g>
            </g>
        </g>
    </g>
</svg>